SplineFontDB: 3.2
FontName: MahdiFont
FullName: Mahdi Font
FamilyName: Mahdi Font
Weight: Book
Copyright: Copyright (c) 2026, root
Version: 001.000
ItalicAngle: 0
UnderlinePosition: -204
UnderlineWidth: 102
Ascent: 1638
Descent: 410
InvalidEm: 0
sfntRevision: 0x00010000
LayerCount: 2
Layer: 0 1 "Back" 1
Layer: 1 1 "Fore" 0
XUID: [1021 397 -1771454458 1352]
StyleMap: 0x0000
FSType: 0
OS2Version: 4
OS2_WeightWidthSlopeOnly: 0
OS2_UseTypoMetrics: 1
CreationTime: 1779468549
ModificationTime: 1779489539
PfmFamily: 17
TTFWeight: 400
TTFWidth: 5
LineGap: 184
VLineGap: 0
Panose: 2 0 5 3 0 0 0 0 0 0
OS2TypoAscent: 1638
OS2TypoAOffset: 0
OS2TypoDescent: -410
OS2TypoDOffset: 0
OS2TypoLinegap: 184
OS2WinAscent: 1638
OS2WinAOffset: 0
OS2WinDescent: 411
OS2WinDOffset: 0
HheadAscent: 1638
HheadAOffset: 0
HheadDescent: -411
HheadDOffset: 0
OS2SubXSize: 1331
OS2SubYSize: 1433
OS2SubXOff: 0
OS2SubYOff: 286
OS2SupXSize: 1331
OS2SupYSize: 1433
OS2SupXOff: 0
OS2SupYOff: 983
OS2StrikeYSize: 102
OS2StrikeYPos: 530
OS2CapHeight: 1638
OS2XHeight: 1180
OS2Vendor: 'PfEd'
OS2CodePages: 00000001.00000000
OS2UnicodeRanges: 80000001.00000000.00000000.00000000
DEI: 91125
ShortTable: cvt  2
  68
  1297
EndShort
ShortTable: maxp 16
  1
  0
  82
  109
  4
  0
  0
  2
  0
  1
  1
  0
  64
  46
  0
  0
EndShort
LangName: 1033 "" "" "Regular" "FontForge 2.0 : Mahdi Font : 22-5-2026"
GaspTable: 1 65535 2 0
Encoding: UnicodeBmp
UnicodeInterp: none
NameList: AGL For New Fonts
DisplaySize: -48
AntiAlias: 1
FitToEm: 0
WinInfo: 342 38 14
BeginChars: 65539 162

StartChar: .notdef
Encoding: 65536 -1 0
Width: 748
GlyphClass: 1
Flags: W
LayerCount: 2
Fore
SplineSet
68 0 m 5,0,-1
 68 1365 l 5,1,-1
 612 1365 l 5,2,-1
 612 0 l 5,3,-1
 68 0 l 5,0,-1
136 68 m 5,4,-1
 544 68 l 5,5,-1
 544 1297 l 5,6,-1
 136 1297 l 5,7,-1
 136 68 l 5,4,-1
EndSplineSet
EndChar

StartChar: !
Encoding: 33 33 4
Width: 360
GlyphClass: 1
Flags: W
LayerCount: 2
Fore
SplineSet
101 288 m 0,0,1
 101 308 101 308 107.5 314.5 c 128,-1,2
 114 321 114 321 133 321 c 0,3,4
 162 321 162 321 172.5 299.5 c 128,-1,5
 183 278 183 278 163 258 c 0,6,7
 143 237 143 237 122 247 c 128,-1,8
 101 257 101 257 101 288 c 0,0,1
250 1536 m 0,9,10
 255 1545 255 1545 264 1551.5 c 128,-1,11
 273 1558 273 1558 280 1558 c 0,12,13
 305 1558 305 1558 309 1535 c 0,14,15
 316 1496 316 1496 263 1272 c 0,16,17
 254 1231 254 1231 240 1173 c 0,18,19
 156 822 156 822 139 700 c 0,20,21
 127 619 127 619 119.5 599.5 c 128,-1,22
 112 580 112 580 91 577 c 0,23,24
 59 572 59 572 52.5 601.5 c 128,-1,25
 46 631 46 631 59 720 c 0,26,27
 71 807 71 807 153 1157.5 c 128,-1,28
 235 1508 235 1508 250 1536 c 0,9,10
EndSplineSet
EndChar

StartChar: &
Encoding: 38 38 5
Width: 1934
GlyphClass: 1
Flags: W
LayerCount: 2
Fore
SplineSet
468 695 m 0,0,1
 478 725 478 725 522 713 c 128,-1,2
 566 701 566 701 656 645 c 0,3,4
 732 597 732 597 744 583 c 128,-1,5
 756 569 756 569 746 542 c 0,6,7
 736 517 736 517 708 525 c 128,-1,8
 680 533 680 533 602 581 c 0,9,10
 507 641 507 641 491 641 c 0,11,12
 474 641 474 641 467.5 656.5 c 128,-1,13
 461 672 461 672 468 695 c 0,0,1
1100 763 m 0,14,15
 1140 789 1140 789 1164 795 c 128,-1,16
 1188 801 1188 801 1246 798 c 0,17,18
 1306 795 1306 795 1341 780.5 c 128,-1,19
 1376 766 1376 766 1472 706 c 0,20,21
 1620 614 1620 614 1620 578 c 0,22,23
 1620 564 1620 564 1599 555 c 0,24,25
 1581 549 1581 549 1545.5 565.5 c 128,-1,26
 1510 582 1510 582 1391 654 c 0,27,28
 1302 708 1302 708 1253 717.5 c 128,-1,29
 1204 727 1204 727 1153 700 c 0,30,31
 1116 682 1116 682 1081.5 631 c 128,-1,32
 1047 580 1047 580 1047 545 c 0,33,34
 1047 509 1047 509 1020 501 c 0,35,36
 990 491 990 491 978.5 505 c 128,-1,37
 967 519 967 519 967 565 c 0,38,39
 967 617 967 617 1002.5 670.5 c 128,-1,40
 1038 724 1038 724 1100 763 c 0,14,15
173 828 m 0,41,42
 198 844 198 844 223.5 848.5 c 128,-1,43
 249 853 249 853 299 851 c 0,44,45
 349 848 349 848 377.5 837.5 c 128,-1,46
 406 827 406 827 419 807 c 128,-1,47
 432 787 432 787 425 751 c 128,-1,48
 418 715 418 715 395.5 666 c 128,-1,49
 373 617 373 617 331 544 c 0,50,51
 273 444 273 444 249 412.5 c 128,-1,52
 225 381 225 381 206 381 c 0,53,54
 175 381 175 381 175 405 c 0,55,56
 175 440 175 440 254 574 c 0,57,58
 339 718 339 718 340 749 c 0,59,60
 340 772 340 772 305 773 c 0,61,62
 302 774 302 774 299 774 c 0,63,64
 213 774 213 774 158 694 c 0,65,66
 128 647 128 647 137 611 c 0,67,68
 144 576 144 576 130 556.5 c 128,-1,69
 116 537 116 537 89 544 c 0,70,71
 65 550 65 550 55.5 574.5 c 128,-1,72
 46 599 46 599 51.5 633.5 c 128,-1,73
 57 668 57 668 72.5 704.5 c 128,-1,74
 88 741 88 741 114.5 775 c 128,-1,75
 141 809 141 809 173 828 c 0,41,42
1571 994 m 0,76,77
 1579 1013 1579 1013 1640 1013 c 0,78,79
 1680 1013 1680 1013 1699.5 1004 c 128,-1,80
 1719 995 1719 995 1753 961 c 2,81,-1
 1805 909 l 1,82,-1
 1845 958 l 1,83,-1
 1883 1006 l 1,84,-1
 1884 942 l 2,85,86
 1884 906 1884 906 1877 883 c 128,-1,87
 1870 860 1870 860 1851 835 c 0,88,89
 1837 817 1837 817 1827.5 794.5 c 128,-1,90
 1818 772 1818 772 1818 758 c 0,91,92
 1818 724 1818 724 1797 665.5 c 128,-1,93
 1776 607 1776 607 1755 585 c 0,94,95
 1736 563 1736 563 1705.5 562 c 128,-1,96
 1675 561 1675 561 1658 581 c 0,97,98
 1639 605 1639 605 1651 662.5 c 128,-1,99
 1663 720 1663 720 1697 770 c 0,100,101
 1726 811 1726 811 1729.5 824.5 c 128,-1,102
 1733 838 1733 838 1720 865 c 0,103,104
 1699 905 1699 905 1677 919 c 128,-1,105
 1655 933 1655 933 1617 931 c 0,106,107
 1583 927 1583 927 1570.5 944 c 128,-1,108
 1558 961 1558 961 1571 994 c 0,76,77
EndSplineSet
EndChar

StartChar: '
Encoding: 39 39 6
Width: 188
GlyphClass: 1
Flags: W
LayerCount: 2
Fore
SplineSet
53 1208 m 0,0,1
 57 1226 57 1226 65 1232 c 128,-1,2
 73 1238 73 1238 89 1236 c 0,3,4
 118 1232 118 1232 129.5 1177 c 128,-1,5
 141 1122 141 1122 137 1000 c 0,6,7
 134 895 134 895 126 882 c 0,8,9
 121 873 121 873 100 873 c 0,10,11
 75 873 75 873 69.5 892 c 128,-1,12
 64 911 64 911 56 1022 c 0,13,14
 56 1023 56 1023 56 1024 c 0,15,16
 44 1176 44 1176 53 1208 c 0,0,1
EndSplineSet
EndChar

StartChar: (
Encoding: 40 40 7
Width: 550
GlyphClass: 1
Flags: W
LayerCount: 2
Fore
SplineSet
89 1134 m 0,0,1
 130 1175 130 1175 151 1152 c 0,2,3
 174 1128 174 1128 148 1064 c 0,4,5
 148 1062 148 1062 147 1060 c 0,6,7
 82 902 82 902 258 698 c 0,8,9
 347 594 347 594 423.5 496 c 128,-1,10
 500 398 500 398 500 388 c 0,11,12
 500 383 500 383 491.5 374.5 c 128,-1,13
 483 366 483 366 471 360 c 0,14,15
 451 349 451 349 438.5 356 c 128,-1,16
 426 363 426 363 394 403 c 0,17,18
 383 416 383 416 357.5 447 c 128,-1,19
 332 478 332 478 296 521 c 128,-1,20
 260 564 260 564 236 594 c 0,21,22
 191 648 191 648 149 707 c 128,-1,23
 107 766 107 766 93 794 c 0,24,25
 51 885 51 885 50 989 c 128,-1,26
 49 1093 49 1093 89 1134 c 0,0,1
EndSplineSet
EndChar

StartChar: )
Encoding: 41 41 8
Width: 441
GlyphClass: 1
Flags: W
LayerCount: 2
Fore
SplineSet
61 1114 m 0,0,1
 73 1128 73 1128 97 1128.5 c 128,-1,2
 121 1129 121 1129 150.5 1118 c 128,-1,3
 180 1107 180 1107 213 1087 c 128,-1,4
 246 1067 246 1067 275.5 1042 c 128,-1,5
 305 1017 305 1017 330 986.5 c 128,-1,6
 355 956 355 956 368 927 c 0,7,8
 389 882 389 882 390.5 830 c 128,-1,9
 392 778 392 778 375 692 c 128,-1,10
 358 606 358 606 314 434 c 0,11,12
 226 102 226 102 211 68 c 1,13,14
 193 43 193 43 179 42 c 0,15,16
 168 42 168 42 158.5 48 c 128,-1,17
 149 54 149 54 145 63 c 0,18,19
 142 72 142 72 166 178 c 128,-1,20
 190 284 190 284 226 420 c 0,21,22
 314 756 314 756 314 799 c 0,23,24
 314 871 314 871 252.5 945 c 128,-1,25
 191 1019 191 1019 114 1040 c 0,26,27
 69 1052 69 1052 55.5 1071 c 128,-1,28
 42 1090 42 1090 61 1114 c 0,0,1
EndSplineSet
EndChar

StartChar: ,
Encoding: 44 44 9
Width: 427
GlyphClass: 1
Flags: W
LayerCount: 2
Fore
SplineSet
304 36 m 0,0,1
 327 65 327 65 350 60.5 c 128,-1,2
 373 56 373 56 377 22 c 0,3,4
 379 1 379 1 354.5 -33 c 128,-1,5
 330 -67 330 -67 252 -151 c 0,6,7
 216 -188 216 -188 193 -212.5 c 128,-1,8
 170 -237 170 -237 150 -256 c 128,-1,9
 130 -275 130 -275 117.5 -284 c 128,-1,10
 105 -293 105 -293 95 -297 c 128,-1,11
 85 -301 85 -301 78 -299.5 c 128,-1,12
 71 -298 71 -298 64 -293 c 0,13,14
 41 -274 41 -274 58.5 -243.5 c 128,-1,15
 76 -213 76 -213 164 -120 c 0,16,17
 267 -9 267 -9 304 36 c 0,0,1
EndSplineSet
EndChar

StartChar: -
Encoding: 45 45 10
Width: 653
GlyphClass: 1
Flags: W
LayerCount: 2
Fore
SplineSet
130 764 m 0,0,1
 176 768 176 768 392 768 c 2,2,-1
 598 767 l 1,3,-1
 602 731 l 2,4,5
 605 704 605 704 596 698.5 c 128,-1,6
 587 693 587 693 535 692 c 0,7,8
 486 692 486 692 263 687 c 0,9,10
 132 685 132 685 95 687.5 c 128,-1,11
 58 690 58 690 53 703 c 0,12,13
 44 727 44 727 64.5 743.5 c 128,-1,14
 85 760 85 760 130 764 c 0,0,1
EndSplineSet
EndChar

StartChar: .
Encoding: 46 46 11
Width: 181
GlyphClass: 1
Flags: W
LayerCount: 2
Fore
SplineSet
52 -61 m 0,0,1
 55 -53 55 -53 66.5 -46.5 c 128,-1,2
 78 -40 78 -40 91 -40 c 128,-1,3
 104 -40 104 -40 115 -46.5 c 128,-1,4
 126 -53 126 -53 129 -61 c 0,5,6
 136 -80 136 -80 123 -100 c 128,-1,7
 110 -120 110 -120 91 -120 c 128,-1,8
 72 -120 72 -120 58.5 -100 c 128,-1,9
 45 -80 45 -80 52 -61 c 0,0,1
EndSplineSet
EndChar

StartChar: 0
Encoding: 48 48 12
Width: 172
GlyphClass: 1
Flags: W
LayerCount: 2
Fore
SplineSet
51 698 m 0,0,1
 48 724 48 724 53.5 729 c 128,-1,2
 59 734 59 734 85 731 c 0,3,4
 107 729 107 729 114.5 721.5 c 128,-1,5
 122 714 122 714 122 694 c 128,-1,6
 122 674 122 674 115.5 667.5 c 128,-1,7
 109 661 109 661 89 661 c 128,-1,8
 69 661 69 661 61 668.5 c 128,-1,9
 53 676 53 676 51 698 c 0,0,1
EndSplineSet
EndChar

StartChar: 1
Encoding: 49 49 13
Width: 359
GlyphClass: 1
Flags: W
LayerCount: 2
Fore
SplineSet
51 1258 m 0,0,1
 59 1281 59 1281 89 1276 c 0,2,3
 100 1275 100 1275 108.5 1265.5 c 128,-1,4
 117 1256 117 1256 131.5 1224 c 128,-1,5
 146 1192 146 1192 164 1141 c 128,-1,6
 182 1090 182 1090 216 993 c 0,7,8
 255 879 255 879 282.5 788.5 c 128,-1,9
 310 698 310 698 309 687 c 0,10,11
 308 675 308 675 298.5 667 c 128,-1,12
 289 659 289 659 275 657 c 0,13,14
 254 654 254 654 243 668 c 0,15,16
 224 694 224 694 155 897 c 0,17,18
 145 926 145 926 125 986 c 0,19,20
 42 1233 42 1233 51 1258 c 0,0,1
EndSplineSet
EndChar

StartChar: 2
Encoding: 50 50 14
Width: 837
GlyphClass: 1
Flags: W
LayerCount: 2
Fore
SplineSet
582 1411 m 0,0,1
 669 1577 669 1577 691 1607.5 c 128,-1,2
 713 1638 713 1638 745 1638 c 0,3,4
 787 1638 787 1638 787 1631 c 0,5,6
 787 1623 787 1623 676 1410 c 128,-1,7
 565 1197 565 1197 539 1155 c 0,8,9
 499 1093 499 1093 438 1068 c 128,-1,10
 377 1043 377 1043 310.5 1061.5 c 128,-1,11
 244 1080 244 1080 190 1138 c 0,12,13
 156 1173 156 1173 145 1173 c 0,14,15
 138 1173 138 1173 137 1130 c 128,-1,16
 136 1087 136 1087 140.5 1022.5 c 128,-1,17
 145 958 145 958 152.5 890 c 128,-1,18
 160 822 160 822 170 764.5 c 128,-1,19
 180 707 180 707 189 684 c 0,20,21
 202 653 202 653 192 633.5 c 128,-1,22
 182 614 182 614 154 614 c 0,23,24
 123 614 123 614 110 645 c 0,25,26
 84 713 84 713 62 964.5 c 128,-1,27
 40 1216 40 1216 56 1259 c 0,28,29
 72 1301 72 1301 111.5 1290 c 128,-1,30
 151 1279 151 1279 231 1212 c 0,31,32
 309 1147 309 1147 349 1136 c 128,-1,33
 389 1125 389 1125 431 1159 c 0,34,35
 445 1170 445 1170 489 1243.5 c 128,-1,36
 533 1317 533 1317 582 1411 c 0,0,1
EndSplineSet
EndChar

StartChar: 3
Encoding: 51 51 15
Width: 1223
GlyphClass: 1
Flags: W
LayerCount: 2
Fore
SplineSet
991 941 m 0,0,1
 1129 1004 1129 1004 1158 992 c 0,2,3
 1173 986 1173 986 1173 961 c 0,4,5
 1173 939 1173 939 1147 922 c 128,-1,6
 1121 905 1121 905 1020 859 c 0,7,8
 862 789 862 789 802 748 c 1,9,10
 734 707 734 707 715 707 c 256,11,12
 696 707 696 707 597 756 c 2,13,-1
 499 807 l 1,14,-1
 427 731 l 2,15,16
 363 662 363 662 324.5 649 c 128,-1,17
 286 636 286 636 213 659 c 0,18,19
 184 669 184 669 160 673.5 c 128,-1,20
 136 678 136 678 133 675 c 0,21,22
 125 668 125 668 147.5 512 c 128,-1,23
 170 356 170 356 190 270 c 0,24,25
 219 151 219 151 183 150 c 0,26,27
 174 149 174 149 162 154 c 0,28,29
 137 163 137 163 117.5 223.5 c 128,-1,30
 98 284 98 284 76 417 c 0,31,32
 45 606 45 606 51 690 c 128,-1,33
 57 774 57 774 101 774 c 0,34,35
 127 774 127 774 184 752 c 0,36,37
 237 733 237 733 264.5 732 c 128,-1,38
 292 731 292 731 317 746.5 c 128,-1,39
 342 762 342 762 386 807 c 0,40,41
 440 863 440 863 457.5 872.5 c 128,-1,42
 475 882 475 882 516 876 c 0,43,44
 538 873 538 873 573.5 859 c 128,-1,45
 609 845 609 845 634 829 c 2,46,-1
 697 791 l 1,47,-1
 779 837 l 2,48,49
 855 879 855 879 991 941 c 0,0,1
EndSplineSet
EndChar

StartChar: 4
Encoding: 52 52 16
Width: 868
GlyphClass: 1
Flags: W
LayerCount: 2
Fore
SplineSet
175 960 m 0,0,1
 234 1021 234 1021 256 1032.5 c 128,-1,2
 278 1044 278 1044 298 1024 c 0,3,4
 316 1004 316 1004 307.5 987 c 128,-1,5
 299 970 299 970 236 903 c 0,6,7
 161 822 161 822 141.5 777 c 128,-1,8
 122 732 122 732 145 687 c 0,9,10
 165 646 165 646 200 621.5 c 128,-1,11
 235 597 235 597 336 555 c 0,12,13
 409 526 409 526 424 513.5 c 128,-1,14
 439 501 439 501 437 474 c 0,15,16
 435 436 435 436 380 381 c 0,17,18
 286 287 286 287 364 258 c 0,19,20
 397 244 397 244 590 215 c 0,21,22
 784 186 784 186 799 179 c 0,23,24
 819 172 819 172 818.5 146.5 c 128,-1,25
 818 121 818 121 799 113 c 0,26,27
 775 104 775 104 569.5 136 c 128,-1,28
 364 168 364 168 317 188 c 0,29,30
 263 212 263 212 247 242.5 c 128,-1,31
 231 273 231 273 246 324 c 0,32,33
 253 345 253 345 269.5 373.5 c 128,-1,34
 286 402 286 402 302 421 c 0,35,36
 330 453 330 453 332 461.5 c 128,-1,37
 334 470 334 470 317 477 c 0,38,39
 203 518 203 518 145.5 557.5 c 128,-1,40
 88 597 88 597 66 650 c 0,41,42
 36 721 36 721 62 795 c 128,-1,43
 88 869 88 869 175 960 c 0,0,1
EndSplineSet
EndChar

StartChar: 5
Encoding: 53 53 17
Width: 768
GlyphClass: 1
Flags: W
LayerCount: 2
Fore
SplineSet
560 731 m 0,0,1
 534 756 534 756 488 765.5 c 128,-1,2
 442 775 442 775 412 762 c 256,3,4
 382 749 382 749 322 681 c 128,-1,5
 262 613 262 613 214 540 c 128,-1,6
 166 467 166 467 166 441 c 0,7,8
 166 424 166 424 229 433 c 0,9,10
 335 445 335 445 414 453 c 0,11,12
 537 465 537 465 563 480 c 0,13,14
 607 504 607 504 622.5 547 c 128,-1,15
 638 590 638 590 621.5 639.5 c 128,-1,16
 605 689 605 689 560 731 c 0,0,1
372 828 m 0,17,18
 477 877 477 877 572.5 825.5 c 128,-1,19
 668 774 668 774 704 649 c 0,20,21
 724 582 724 582 715 542.5 c 128,-1,22
 706 503 706 503 659 454 c 0,23,24
 630 423 630 423 599 408 c 128,-1,25
 568 393 568 393 515 383.5 c 128,-1,26
 462 374 462 374 345 363 c 0,27,28
 172 345 172 345 150 337 c 0,29,30
 130 329 130 329 137 308 c 0,31,32
 138 304 138 304 147 284 c 0,33,34
 183 196 183 196 123 204 c 0,35,36
 89 209 89 209 67 257 c 128,-1,37
 45 305 45 305 51 361 c 0,38,39
 60 432 60 432 114.5 533 c 128,-1,40
 169 634 169 634 241.5 718 c 128,-1,41
 314 802 314 802 372 828 c 0,17,18
EndSplineSet
EndChar

StartChar: 6
Encoding: 54 54 18
Width: 997
GlyphClass: 1
Flags: W
LayerCount: 2
Fore
SplineSet
382 1134 m 0,0,1
 424 1147 424 1147 669.5 1142 c 128,-1,2
 915 1137 915 1137 929 1123 c 0,3,4
 983 1070 983 1070 872 966 c 0,5,6
 814 912 814 912 471.5 653.5 c 128,-1,7
 129 395 129 395 102 385 c 0,8,9
 84 378 84 378 67 391 c 128,-1,10
 50 404 50 404 50 424 c 0,11,12
 50 431 50 431 144.5 506.5 c 128,-1,13
 239 582 239 582 373 682 c 0,14,15
 643 885 643 885 739 962.5 c 128,-1,16
 835 1040 835 1040 835 1056 c 0,17,18
 835 1069 835 1069 593 1065 c 2,19,-1
 349 1060 l 1,20,-1
 349 1093 l 2,21,22
 349 1125 349 1125 382 1134 c 0,0,1
EndSplineSet
EndChar

StartChar: 7
Encoding: 55 55 19
Width: 1008
GlyphClass: 1
Flags: W
LayerCount: 2
Fore
SplineSet
896 1195 m 0,0,1
 914 1209 914 1209 932 1203.5 c 128,-1,2
 950 1198 950 1198 958 1177 c 0,3,4
 967 1155 967 1155 728 821 c 0,5,6
 589 626 589 626 530.5 548.5 c 128,-1,7
 472 471 472 471 443 441.5 c 128,-1,8
 414 412 414 412 386 401 c 0,9,10
 326 378 326 378 260 474 c 128,-1,11
 194 570 194 570 87 833 c 0,12,13
 54 914 54 914 50.5 943.5 c 128,-1,14
 47 973 47 973 70 982 c 256,15,16
 93 991 93 991 113.5 962.5 c 128,-1,17
 134 934 134 934 174 836 c 0,18,19
 222 718 222 718 275 614.5 c 128,-1,20
 328 511 328 511 348 494 c 0,21,22
 360 484 360 484 364 484 c 0,23,24
 379 486 379 486 439 567 c 0,25,26
 472 612 472 612 654 867 c 0,27,28
 875 1177 875 1177 896 1195 c 0,0,1
EndSplineSet
EndChar

StartChar: 8
Encoding: 56 56 20
Width: 921
GlyphClass: 1
Flags: W
LayerCount: 2
Fore
SplineSet
396 1329 m 0,0,1
 418 1353 418 1353 455.5 1357.5 c 128,-1,2
 493 1362 493 1362 525 1345 c 0,3,4
 554 1330 554 1330 583.5 1272.5 c 128,-1,5
 613 1215 613 1215 658 1086 c 0,6,7
 709 940 709 940 792 750 c 0,8,9
 824 679 824 679 847.5 618.5 c 128,-1,10
 871 558 871 558 871 546 c 0,11,12
 871 522 871 522 851 513.5 c 128,-1,13
 831 505 831 505 812 520 c 0,14,15
 793 536 793 536 711.5 723 c 128,-1,16
 630 910 630 910 585 1040 c 0,17,18
 556 1124 556 1124 533.5 1177 c 128,-1,19
 511 1230 511 1230 495 1255 c 128,-1,20
 479 1280 479 1280 468 1276 c 0,21,22
 450 1270 450 1270 391.5 1156 c 128,-1,23
 333 1042 333 1042 284 920 c 0,24,25
 230 781 230 781 185 623 c 128,-1,26
 140 465 140 465 138 405 c 0,27,28
 136 338 136 338 128.5 316.5 c 128,-1,29
 121 295 121 295 100 295 c 0,30,31
 71 295 71 295 58 327 c 128,-1,32
 45 359 45 359 53 413 c 0,33,34
 69 528 69 528 133.5 728 c 128,-1,35
 198 928 198 928 274.5 1104 c 128,-1,36
 351 1280 351 1280 396 1329 c 0,0,1
EndSplineSet
EndChar

StartChar: 9
Encoding: 57 57 21
Width: 652
GlyphClass: 1
Flags: W
LayerCount: 2
Fore
SplineSet
234 1412 m 2,0,1
 210 1434 210 1434 183 1437.5 c 128,-1,2
 156 1441 156 1441 147 1425 c 0,3,4
 139 1413 139 1413 144 1404 c 128,-1,5
 149 1395 149 1395 166 1390 c 128,-1,6
 183 1385 183 1385 211 1385 c 2,7,-1
 266 1387 l 1,8,-1
 234 1412 l 2,0,1
96 1492 m 0,9,10
 110 1503 110 1503 131.5 1510.5 c 128,-1,11
 153 1518 153 1518 169 1518 c 0,12,13
 210 1518 210 1518 262.5 1489 c 128,-1,14
 315 1460 315 1460 346 1420 c 0,15,16
 370 1388 370 1388 390.5 1380.5 c 128,-1,17
 411 1373 411 1373 486 1367 c 0,18,19
 529 1363 529 1363 562.5 1356 c 128,-1,20
 596 1349 596 1349 599 1344 c 0,21,22
 607 1334 607 1334 599 1304 c 0,23,24
 594 1290 594 1290 587.5 1285.5 c 128,-1,25
 581 1281 581 1281 561.5 1279.5 c 128,-1,26
 542 1278 542 1278 504 1283 c 2,27,-1
 419 1290 l 1,28,-1
 430 1234 l 2,29,30
 445 1151 445 1151 437.5 977.5 c 128,-1,31
 430 804 430 804 407 695 c 0,32,33
 373 536 373 536 352 514 c 0,34,35
 337 498 337 498 309 526 c 0,36,37
 296 540 296 540 297 560.5 c 128,-1,38
 298 581 298 581 314 649 c 0,39,40
 353 811 353 811 360 983 c 128,-1,41
 367 1155 367 1155 338 1247 c 0,42,43
 329 1277 329 1277 314.5 1284.5 c 128,-1,44
 300 1292 300 1292 236 1299 c 0,45,46
 159 1307 159 1307 110.5 1326.5 c 128,-1,47
 62 1346 62 1346 54 1372 c 0,48,49
 45 1401 45 1401 57 1436 c 128,-1,50
 69 1471 69 1471 96 1492 c 0,9,10
EndSplineSet
EndChar

StartChar: :
Encoding: 58 58 22
Width: 270
GlyphClass: 1
Flags: W
LayerCount: 2
Fore
SplineSet
59 -50 m 0,0,1
 74 -38 74 -38 90.5 -42 c 128,-1,2
 107 -46 107 -46 118 -63.5 c 128,-1,3
 129 -81 129 -81 122 -99 c 0,4,5
 119 -108 119 -108 107 -114 c 128,-1,6
 95 -120 95 -120 82 -120 c 0,7,8
 64 -120 64 -120 57 -113.5 c 128,-1,9
 50 -107 50 -107 50 -89 c 0,10,11
 50 -56 50 -56 59 -50 c 0,0,1
143 658 m 0,12,13
 162 681 162 681 182 673.5 c 128,-1,14
 202 666 202 666 214 634 c 0,15,16
 225 599 225 599 217.5 578.5 c 128,-1,17
 210 558 210 558 186 558 c 0,18,19
 168 558 168 558 153.5 578 c 128,-1,20
 139 598 139 598 136 620 c 128,-1,21
 133 642 133 642 143 658 c 0,12,13
EndSplineSet
EndChar

StartChar: ;
Encoding: 59 59 23
Width: 390
GlyphClass: 1
Flags: W
LayerCount: 2
Fore
SplineSet
166 -149 m 0,0,1
 231 -97 231 -97 265 -77 c 128,-1,2
 299 -57 299 -57 313 -61 c 0,3,4
 338 -68 338 -68 339.5 -99 c 128,-1,5
 341 -130 341 -130 317 -143 c 0,6,7
 295 -154 295 -154 200 -230 c 0,8,9
 68 -336 68 -336 52 -279 c 0,10,11
 51 -275 51 -275 50 -270 c 0,12,13
 48 -254 48 -254 72.5 -228.5 c 128,-1,14
 97 -203 97 -203 166 -149 c 0,0,1
187 321 m 0,15,16
 194 341 194 341 210 346 c 128,-1,17
 226 351 226 351 240 340 c 128,-1,18
 254 329 254 329 254 308 c 0,19,20
 254 274 254 274 228 270 c 0,21,22
 203 265 203 265 191 280 c 128,-1,23
 179 295 179 295 187 321 c 0,15,16
EndSplineSet
EndChar

StartChar: ?
Encoding: 63 63 24
Width: 731
GlyphClass: 1
Flags: W
LayerCount: 2
Fore
SplineSet
249 272 m 0,0,1
 269 281 269 281 277.5 279.5 c 128,-1,2
 286 278 286 278 299 262 c 0,3,4
 317 241 317 241 306 221.5 c 128,-1,5
 295 202 295 202 265 202 c 0,6,7
 246 202 246 202 239 208.5 c 128,-1,8
 232 215 232 215 232 234 c 0,9,10
 232 247 232 247 237.5 258.5 c 128,-1,11
 243 270 243 270 249 272 c 0,0,1
53 1509 m 0,12,13
 57 1518 57 1518 66.5 1525 c 128,-1,14
 76 1532 76 1532 86 1532 c 0,15,16
 109 1532 109 1532 303 1421 c 0,17,18
 502 1305 502 1305 577 1266 c 0,19,20
 632 1236 632 1236 657 1214 c 128,-1,21
 682 1192 682 1192 680.5 1167.5 c 128,-1,22
 679 1143 679 1143 652 1117 c 128,-1,23
 625 1091 625 1091 567 1054 c 0,24,25
 517 1022 517 1022 487 1000.5 c 128,-1,26
 457 979 457 979 432.5 954.5 c 128,-1,27
 408 930 408 930 397 911 c 128,-1,28
 386 892 386 892 380.5 863.5 c 128,-1,29
 375 835 375 835 377 806.5 c 128,-1,30
 379 778 379 778 385 734 c 0,31,32
 390 699 390 699 392.5 678 c 128,-1,33
 395 657 395 657 395.5 639 c 128,-1,34
 396 621 396 621 394.5 612 c 128,-1,35
 393 603 393 603 388 597 c 128,-1,36
 383 591 383 591 376.5 589 c 128,-1,37
 370 587 370 587 359 587 c 0,38,39
 331 587 331 587 322 610 c 128,-1,40
 313 633 313 633 299 739 c 0,41,42
 290 803 290 803 290 838 c 128,-1,43
 290 873 290 873 299 899 c 0,44,45
 315 948 315 948 372 1009.5 c 128,-1,46
 429 1071 429 1071 498 1113 c 0,47,48
 578 1161 578 1161 578 1166 c 0,49,50
 578 1167 578 1167 547 1185.5 c 128,-1,51
 516 1204 516 1204 457.5 1237.5 c 128,-1,52
 399 1271 399 1271 337 1306 c 0,53,54
 127 1426 127 1426 85.5 1455.5 c 128,-1,55
 44 1485 44 1485 53 1509 c 0,12,13
EndSplineSet
EndChar

StartChar: A
Encoding: 65 65 25
Width: 1310
GlyphClass: 1
Flags: W
LayerCount: 2
Fore
SplineSet
582 1121 m 0,0,1
 554 1160 554 1160 533.5 1157.5 c 128,-1,2
 513 1155 513 1155 485 1110 c 0,3,4
 449 1054 449 1054 421.5 998.5 c 128,-1,5
 394 943 394 943 398 934 c 0,6,7
 400 931 400 931 437.5 938.5 c 128,-1,8
 475 946 475 946 525 960 c 2,9,-1
 646 993 l 1,10,-1
 627 1037 l 2,11,12
 613 1076 613 1076 582 1121 c 0,0,1
494 1239 m 0,13,14
 523 1251 523 1251 536 1250.5 c 128,-1,15
 549 1250 549 1250 581 1234 c 0,16,17
 612 1217 612 1217 648 1167 c 128,-1,18
 684 1117 684 1117 703 1063 c 0,19,20
 710 1043 710 1043 718.5 1028 c 128,-1,21
 727 1013 727 1013 732 1013 c 0,22,23
 738 1013 738 1013 981 1067 c 0,24,25
 1220 1123 1220 1123 1240 1114 c 0,26,27
 1261 1106 1261 1106 1260 1080.5 c 128,-1,28
 1259 1055 1259 1055 1238 1046 c 0,29,30
 1188 1031 1188 1031 989 986 c 0,31,32
 764 935 764 935 760 929 c 0,33,34
 756 925 756 925 816 746 c 0,35,36
 869 587 869 587 931.5 368.5 c 128,-1,37
 994 150 994 150 994 122 c 0,38,39
 994 96 994 96 973.5 87.5 c 128,-1,40
 953 79 953 79 936 97 c 0,41,42
 929 105 929 105 910.5 157.5 c 128,-1,43
 892 210 892 210 875 275 c 0,44,45
 802 543 802 543 708 816 c 2,46,-1
 674 917 l 1,47,-1
 578 892 l 2,48,49
 560 887 560 887 414 845 c 2,50,-1
 348 827 l 1,51,-1
 292 657 l 2,52,53
 236 487 236 487 188 305 c 128,-1,54
 140 123 140 123 134 59 c 0,55,56
 130 20 130 20 123 3 c 128,-1,57
 116 -14 116 -14 102 -18 c 0,58,59
 72 -28 72 -28 61 -12.5 c 128,-1,60
 50 3 50 3 50 54 c 0,61,62
 50 100 50 100 109 332.5 c 128,-1,63
 168 565 168 565 210 686 c 0,64,65
 238 770 238 770 232 780 c 0,66,67
 228 788 228 788 203 782 c 0,68,69
 185 777 185 777 174.5 781 c 128,-1,70
 164 785 164 785 156 800 c 0,71,72
 141 828 141 828 153.5 841.5 c 128,-1,73
 166 855 166 855 218 868 c 0,74,75
 252 877 252 877 268 887.5 c 128,-1,76
 284 898 284 898 291 917 c 0,77,78
 310 968 310 968 358.5 1060 c 128,-1,79
 407 1152 407 1152 432 1183 c 0,80,81
 446 1201 446 1201 464 1217.5 c 128,-1,82
 482 1234 482 1234 494 1239 c 0,13,14
EndSplineSet
EndChar

StartChar: B
Encoding: 66 66 26
Width: 724
GlyphClass: 1
Flags: W
LayerCount: 2
Fore
SplineSet
479 948 m 1,0,1
 411 959 411 959 302 965 c 2,2,-1
 169 976 l 1,3,-1
 169 942 l 2,4,5
 169 901 169 901 199.5 815.5 c 128,-1,6
 230 730 230 730 260 687 c 0,7,8
 298 632 298 632 343.5 604.5 c 128,-1,9
 389 577 389 577 454 569 c 0,10,11
 509 563 509 563 552 572 c 128,-1,12
 595 581 595 581 595 599 c 0,13,14
 595 618 595 618 543.5 670 c 128,-1,15
 492 722 492 722 437 759 c 0,16,17
 353 814 353 814 357 849 c 128,-1,18
 361 884 361 884 453 915 c 2,19,-1
 522 938 l 1,20,-1
 479 948 l 1,0,1
121 1228 m 0,21,22
 136 1240 136 1240 156 1235 c 0,23,24
 191 1229 191 1229 164 1103 c 2,25,-1
 153 1053 l 1,26,-1
 232 1053 l 2,27,28
 305 1053 305 1053 420 1039.5 c 128,-1,29
 535 1026 535 1026 579 1012 c 0,30,31
 612 1001 612 1001 631.5 976.5 c 128,-1,32
 651 952 651 952 648 928 c 128,-1,33
 645 904 645 904 619 893 c 2,34,35
 619 893 619 893 539 861 c 2,36,-1
 490 841 l 1,37,-1
 575 756 l 2,38,39
 647 684 647 684 666 634.5 c 128,-1,40
 685 585 685 585 656 541 c 0,41,42
 628 499 628 499 555 486 c 128,-1,43
 482 473 482 473 399.5 492.5 c 128,-1,44
 317 512 317 512 264 557 c 0,45,46
 214 599 214 599 165 695.5 c 128,-1,47
 116 792 116 792 96 887 c 0,48,49
 88 925 88 925 78.5 953.5 c 128,-1,50
 69 982 69 982 63 984 c 0,51,52
 50 989 50 989 50 1021 c 128,-1,53
 50 1053 50 1053 63 1053 c 0,54,55
 69 1053 69 1053 72.5 1064 c 128,-1,56
 76 1075 76 1075 76 1091 c 0,57,58
 76 1126 76 1126 91.5 1172.5 c 128,-1,59
 107 1219 107 1219 121 1228 c 0,21,22
EndSplineSet
EndChar

StartChar: C
Encoding: 67 67 27
Width: 884
GlyphClass: 1
Flags: W
LayerCount: 2
Fore
SplineSet
126 1123 m 0,0,1
 154 1153 154 1153 171.5 1157 c 128,-1,2
 189 1161 189 1161 207 1143 c 0,3,4
 224 1127 224 1127 220 1113 c 128,-1,5
 216 1099 216 1099 180 1058 c 0,6,7
 150 1024 150 1024 143 1002.5 c 128,-1,8
 136 981 136 981 136 921 c 0,9,10
 137 877 137 877 141.5 847 c 128,-1,11
 146 817 146 817 164 780 c 128,-1,12
 182 743 182 743 207 712.5 c 128,-1,13
 232 682 232 682 284.5 631.5 c 128,-1,14
 337 581 337 581 398.5 529.5 c 128,-1,15
 460 478 460 478 563 395 c 0,16,17
 834 174 834 174 834 168 c 0,18,19
 834 151 834 151 821 136.5 c 128,-1,20
 808 122 808 122 792 122 c 0,21,22
 768 122 768 122 497.5 340.5 c 128,-1,23
 227 559 227 559 164 629 c 0,24,25
 97 703 97 703 68.5 796 c 128,-1,26
 40 889 40 889 54.5 976.5 c 128,-1,27
 69 1064 69 1064 126 1123 c 0,0,1
EndSplineSet
EndChar

StartChar: D
Encoding: 68 68 28
Width: 947
GlyphClass: 1
Flags: W
LayerCount: 2
Fore
SplineSet
411 1158 m 0,0,1
 261 1199 261 1199 256 1199 c 0,2,3
 244 1199 244 1199 189 946 c 0,4,5
 128 667 128 667 128 478 c 0,6,7
 128 417 128 417 133 399.5 c 128,-1,8
 138 382 138 382 161 367 c 0,9,10
 193 346 193 346 245 358.5 c 128,-1,11
 297 371 297 371 393 424 c 0,12,13
 513 489 513 489 616 580 c 128,-1,14
 719 671 719 671 773.5 758 c 128,-1,15
 828 845 828 845 814 900 c 0,16,17
 804 939 804 939 752 991 c 128,-1,18
 700 1043 700 1043 637 1077 c 0,19,20
 605 1093 605 1093 538 1117 c 128,-1,21
 471 1141 471 1141 411 1158 c 0,0,1
97 1310 m 0,22,23
 109 1321 109 1321 152.5 1313 c 128,-1,24
 196 1305 196 1305 366 1259 c 0,25,26
 554 1207 554 1207 636.5 1171.5 c 128,-1,27
 719 1136 719 1136 784 1079 c 0,28,29
 867 1005 867 1005 889.5 920.5 c 128,-1,30
 912 836 912 836 871 747 c 0,31,32
 841 679 841 679 745.5 586.5 c 128,-1,33
 650 494 650 494 529.5 413 c 128,-1,34
 409 332 409 332 310 296 c 0,35,36
 230 267 230 267 184 269 c 128,-1,37
 138 271 138 271 99 307 c 0,38,39
 80 323 80 323 73.5 330.5 c 128,-1,40
 67 338 67 338 61 358 c 128,-1,41
 55 378 55 378 53.5 399 c 128,-1,42
 52 420 52 420 51 473 c 0,43,44
 46 608 46 608 61 716 c 0,45,46
 70 790 70 790 109.5 980.5 c 128,-1,47
 149 1171 149 1171 163 1206 c 0,48,49
 165 1212 165 1212 155 1220.5 c 128,-1,50
 145 1229 145 1229 128 1235 c 0,51,52
 100 1246 100 1246 90.5 1269.5 c 128,-1,53
 81 1293 81 1293 97 1310 c 0,22,23
EndSplineSet
EndChar

StartChar: E
Encoding: 69 69 29
Width: 1862
GlyphClass: 1
Flags: W
LayerCount: 2
Fore
SplineSet
401 920 m 0,0,1
 531 940 531 940 870 921 c 0,2,3
 997 915 997 915 1013 907 c 0,4,5
 1023 901 1023 901 1023 880 c 2,6,-1
 1023 847 l 1,7,-1
 731 847 l 2,8,9
 426 844 426 844 382 835 c 0,10,11
 346 829 346 829 334 831.5 c 128,-1,12
 322 834 322 834 313 851 c 0,13,14
 299 878 299 878 319 893.5 c 128,-1,15
 339 909 339 909 401 920 c 0,0,1
526 1198 m 0,16,17
 578 1209 578 1209 871 1211 c 0,18,19
 1120 1212 1120 1212 1162 1199 c 0,20,21
 1192 1190 1192 1190 1185 1164 c 0,22,23
 1184 1160 1184 1160 1183 1155 c 0,24,25
 1178 1142 1178 1142 1120 1137.5 c 128,-1,26
 1062 1133 1062 1133 866 1129 c 0,27,28
 693 1126 693 1126 609 1119.5 c 128,-1,29
 525 1113 525 1113 478 1099 c 0,30,31
 326 1057 326 1057 272 990 c 0,32,33
 251 964 251 964 248 941 c 128,-1,34
 245 918 245 918 250 840 c 0,35,36
 255 767 255 767 278.5 646.5 c 128,-1,37
 302 526 302 526 313 516 c 0,38,39
 318 510 318 510 857 655 c 128,-1,40
 1396 800 1396 800 1405 800 c 0,41,42
 1417 800 1417 800 1427.5 775 c 128,-1,43
 1438 750 1438 750 1431 738 c 0,44,45
 1427 731 1427 731 1269 685 c 128,-1,46
 1111 639 1111 639 886 579 c 0,47,48
 471 469 471 469 406 443 c 0,49,50
 353 423 353 423 353 404 c 0,51,52
 352 394 352 394 371 369 c 0,53,54
 389 346 389 346 391 321.5 c 128,-1,55
 393 297 393 297 378 288 c 0,56,57
 358 275 358 275 331 293 c 128,-1,58
 304 311 304 311 285 349 c 0,59,60
 258 401 258 401 252 401 c 0,61,62
 245 401 245 401 163 360 c 0,63,64
 104 330 104 330 89.5 328 c 128,-1,65
 75 326 75 326 63 343 c 0,66,67
 43 370 43 370 56 386.5 c 128,-1,68
 69 403 69 403 140 438 c 0,69,70
 174 455 174 455 199 473 c 128,-1,71
 224 491 224 491 223 498 c 0,72,73
 219 517 219 517 193 641 c 0,74,75
 168 757 168 757 166.5 859 c 128,-1,76
 165 961 165 961 187 1008 c 0,77,78
 219 1074 219 1074 305.5 1123 c 128,-1,79
 392 1172 392 1172 526 1198 c 0,16,17
1721 1574 m 0,80,81
 1721 1622 1721 1622 1727 1630 c 128,-1,82
 1733 1638 1733 1638 1766 1638 c 2,83,-1
 1812 1638 l 1,84,-1
 1805 1556 l 2,85,86
 1791 1396 1791 1396 1745 1365 c 0,87,88
 1725 1352 1725 1352 1704 1369 c 0,89,90
 1691 1380 1691 1380 1691 1394 c 128,-1,91
 1691 1408 1691 1408 1703 1448 c 0,92,93
 1721 1506 1721 1506 1721 1574 c 0,80,81
EndSplineSet
EndChar

StartChar: F
Encoding: 70 70 30
Width: 962
GlyphClass: 1
Flags: W
LayerCount: 2
Fore
SplineSet
554 1114 m 0,0,1
 635 1127 635 1127 686.5 1135 c 128,-1,2
 738 1143 738 1143 780.5 1147.5 c 128,-1,3
 823 1152 823 1152 845 1153 c 128,-1,4
 867 1154 867 1154 882.5 1151 c 128,-1,5
 898 1148 898 1148 903.5 1142.5 c 128,-1,6
 909 1137 909 1137 911 1127 c 0,7,8
 916 1102 916 1102 904 1093 c 0,9,10
 895 1082 895 1082 621 1041 c 0,11,12
 343 999 343 999 260 978 c 0,13,14
 235 972 235 972 223.5 969.5 c 128,-1,15
 212 967 212 967 199 962 c 128,-1,16
 186 957 186 957 182 954.5 c 128,-1,17
 178 952 178 952 173.5 944 c 128,-1,18
 169 936 169 936 167.5 929.5 c 128,-1,19
 166 923 166 923 164 909 c 0,20,21
 154 843 154 843 140.5 687.5 c 128,-1,22
 127 532 127 532 131 528 c 0,23,24
 136 522 136 522 408 607 c 0,25,26
 679 694 679 694 708 694 c 0,27,28
 734 694 734 694 745 672 c 128,-1,29
 756 650 756 650 738 634 c 0,30,31
 717 615 717 615 445.5 534.5 c 128,-1,32
 174 454 174 454 151 460 c 0,33,34
 137 463 137 463 133 449 c 0,35,36
 125 419 125 419 141 131 c 0,37,38
 143 98 143 98 146 42 c 0,39,40
 148 13 148 13 142.5 3.5 c 128,-1,41
 137 -6 137 -6 119 -8 c 0,42,43
 106 -10 106 -10 97 -7.5 c 128,-1,44
 88 -5 88 -5 80.5 8.5 c 128,-1,45
 73 22 73 22 68.5 42.5 c 128,-1,46
 64 63 64 63 60.5 102.5 c 128,-1,47
 57 142 57 142 55 190.5 c 128,-1,48
 53 239 53 239 51 315 c 0,49,50
 46 586 46 586 67 784 c 0,51,52
 75 851 75 851 80.5 895.5 c 128,-1,53
 86 940 86 940 93 974.5 c 128,-1,54
 100 1009 100 1009 106.5 1027.5 c 128,-1,55
 113 1046 113 1046 121.5 1055 c 128,-1,56
 130 1064 130 1064 140 1063.5 c 128,-1,57
 150 1063 150 1063 163 1056 c 0,58,59
 188 1042 188 1042 234 1057 c 0,60,61
 274 1067 274 1067 554 1114 c 0,0,1
EndSplineSet
EndChar

StartChar: G
Encoding: 71 71 31
Width: 984
GlyphClass: 1
Flags: W
LayerCount: 2
Fore
SplineSet
349 1070 m 0,0,1
 575 1115 575 1115 598 1059 c 0,2,3
 602 1047 602 1047 599 1030 c 0,4,5
 596 1015 596 1015 572.5 1009 c 128,-1,6
 549 1003 549 1003 469 998 c 0,7,8
 346 991 346 991 284 973 c 0,9,10
 190 943 190 943 153.5 862 c 128,-1,11
 117 781 117 781 127 625 c 256,12,13
 137 469 137 469 190 412 c 128,-1,14
 243 355 243 355 376 356 c 0,15,16
 464 357 464 357 581 379.5 c 128,-1,17
 698 402 698 402 751 429 c 0,18,19
 794 451 794 451 817 481.5 c 128,-1,20
 840 512 840 512 849 558 c 0,21,22
 855 587 855 587 849.5 596.5 c 128,-1,23
 844 606 844 606 813 619 c 0,24,25
 770 638 770 638 642 650 c 0,26,27
 550 658 550 658 532.5 664 c 128,-1,28
 515 670 515 670 515 694 c 2,29,-1
 515 727 l 1,30,-1
 655 726 l 2,31,32
 742 726 742 726 778.5 720.5 c 128,-1,33
 815 715 815 715 851 696 c 0,34,35
 899 672 899 672 916.5 645.5 c 128,-1,36
 934 619 934 619 934 571 c 0,37,38
 934 533 934 533 910.5 478 c 128,-1,39
 887 423 887 423 860 399 c 0,40,41
 788 337 788 337 571 296 c 0,42,43
 428 267 428 267 331.5 271 c 128,-1,44
 235 275 235 275 178 311.5 c 128,-1,45
 121 348 121 348 85 426 c 0,46,47
 61 478 61 478 55.5 517.5 c 128,-1,48
 50 557 50 557 50 680 c 0,49,50
 50 809 50 809 55 843.5 c 128,-1,51
 60 878 60 878 86 921 c 0,52,53
 119 978 119 978 183 1014 c 128,-1,54
 247 1050 247 1050 349 1070 c 0,0,1
EndSplineSet
EndChar

StartChar: H
Encoding: 72 72 32
Width: 1320
GlyphClass: 1
Flags: W
LayerCount: 2
Fore
SplineSet
956 1415 m 0,0,1
 967 1435 967 1435 985 1437.5 c 128,-1,2
 1003 1440 1003 1440 1017 1423 c 0,3,4
 1028 1409 1028 1409 1087 1198 c 2,5,-1
 1144 989 l 1,6,-1
 1186 992 l 2,7,8
 1211 993 1211 993 1220 987.5 c 128,-1,9
 1229 982 1229 982 1231 964 c 0,10,11
 1234 947 1234 947 1227 937 c 128,-1,12
 1220 927 1220 927 1200 920 c 0,13,14
 1185 914 1185 914 1176.5 905 c 128,-1,15
 1168 896 1168 896 1171 889 c 0,16,17
 1190 840 1190 840 1232 657.5 c 128,-1,18
 1274 475 1274 475 1269 462 c 0,19,20
 1263 444 1263 444 1236.5 441 c 128,-1,21
 1210 438 1210 438 1200 454 c 0,22,23
 1191 471 1191 471 1140 669 c 0,24,25
 1090 868 1090 868 1082 876 c 0,26,27
 1078 882 1078 882 752 778 c 2,28,-1
 429 674 l 1,29,-1
 424 621 l 2,30,31
 419 567 419 567 436 464 c 0,32,33
 440 435 440 435 442.5 414.5 c 128,-1,34
 445 394 445 394 445 378.5 c 128,-1,35
 445 363 445 363 442 354 c 128,-1,36
 439 345 439 345 433.5 340.5 c 128,-1,37
 428 336 428 336 419.5 336 c 128,-1,38
 411 336 411 336 398 340 c 0,39,40
 374 348 374 348 358.5 410 c 128,-1,41
 343 472 343 472 343 563 c 0,42,43
 343 621 343 621 338.5 631 c 128,-1,44
 334 641 334 641 313 635 c 0,45,46
 230 614 230 614 181 603.5 c 128,-1,47
 132 593 132 593 101.5 592 c 128,-1,48
 71 591 71 591 60.5 599 c 128,-1,49
 50 607 50 607 50 626 c 0,50,51
 50 647 50 647 75 657 c 128,-1,52
 100 667 100 667 249 704 c 2,53,-1
 349 728 l 1,54,-1
 364 857 l 2,55,56
 375 960 375 960 387 988 c 128,-1,57
 399 1016 399 1016 429 1005 c 0,58,59
 445 999 445 999 447.5 977.5 c 128,-1,60
 450 956 450 956 446 877 c 0,61,62
 439 770 439 770 451 765 c 0,63,64
 453 764 453 764 457 766 c 0,65,66
 472 772 472 772 768 867 c 0,67,68
 1061 961 1061 961 1061 970 c 256,69,70
 1061 979 1061 979 1002 1186 c 0,71,72
 943 1391 943 1391 956 1415 c 0,0,1
EndSplineSet
EndChar

StartChar: I
Encoding: 73 73 33
Width: 1235
GlyphClass: 1
Flags: W
LayerCount: 2
Fore
SplineSet
848 294 m 0,0,1
 1121 371 1121 371 1143 373 c 0,2,3
 1167 374 1167 374 1180 349.5 c 128,-1,4
 1193 325 1193 325 1176 311 c 0,5,6
 1154 292 1154 292 703 167 c 128,-1,7
 252 42 252 42 208 42 c 0,8,9
 180 42 180 42 165.5 62 c 128,-1,10
 151 82 151 82 168 99 c 0,11,12
 173 104 173 104 235.5 123.5 c 128,-1,13
 298 143 298 143 378 163 c 0,14,15
 585 217 585 217 848 294 c 0,0,1
67 911 m 0,16,17
 87 918 87 918 106 916 c 128,-1,18
 125 914 125 914 241 893 c 0,19,20
 300 882 300 882 352 877 c 128,-1,21
 404 872 404 872 417 875 c 0,22,23
 447 882 447 882 465 872 c 0,24,25
 481 860 481 860 620 860 c 0,26,27
 706 860 706 860 734.5 855.5 c 128,-1,28
 763 851 763 851 773 837 c 0,29,30
 781 824 781 824 779.5 814.5 c 128,-1,31
 778 805 778 805 764 791 c 128,-1,32
 750 777 750 777 717.5 771.5 c 128,-1,33
 685 766 685 766 602 763 c 2,34,-1
 462 758 l 1,35,-1
 462 621 l 2,36,37
 462 518 462 518 439.5 374.5 c 128,-1,38
 417 231 417 231 397 211 c 0,39,40
 386 200 386 200 356 215 c 0,41,42
 339 224 339 224 334 235 c 128,-1,43
 329 246 329 246 334 266 c 0,44,45
 382 481 382 481 382 649 c 2,46,-1
 382 783 l 1,47,-1
 247 807 l 2,48,49
 103 832 103 832 80 841 c 0,50,51
 55 850 55 850 50.5 876.5 c 128,-1,52
 46 903 46 903 67 911 c 0,16,17
EndSplineSet
EndChar

StartChar: J
Encoding: 74 74 34
Width: 878
GlyphClass: 1
Flags: W
LayerCount: 2
Fore
SplineSet
707 1232 m 0,0,1
 714 1251 714 1251 730.5 1252 c 128,-1,2
 747 1253 747 1253 766 1236.5 c 128,-1,3
 785 1220 785 1220 800 1192 c 0,4,5
 818 1157 818 1157 823 1117 c 128,-1,6
 828 1077 828 1077 828 960 c 0,7,8
 828 830 828 830 822.5 795.5 c 128,-1,9
 817 761 817 761 788 708 c 0,10,11
 740 622 740 622 631 514.5 c 128,-1,12
 522 407 522 407 335 262 c 0,13,14
 202 158 202 158 147 121 c 128,-1,15
 92 84 92 84 77 89 c 0,16,17
 39 100 39 100 56 129 c 0,18,19
 78 168 78 168 252 304 c 0,20,21
 265 315 265 315 280 327 c 0,22,23
 477 480 477 480 583 585.5 c 128,-1,24
 689 691 689 691 726 771 c 0,25,26
 748 820 748 820 752 853 c 128,-1,27
 756 886 756 886 751 978 c 0,28,29
 745 1111 745 1111 722 1162 c 0,30,31
 712 1182 712 1182 707.5 1202.5 c 128,-1,32
 703 1223 703 1223 707 1232 c 0,0,1
EndSplineSet
EndChar

StartChar: K
Encoding: 75 75 35
Width: 1142
GlyphClass: 1
Flags: W
LayerCount: 2
Fore
SplineSet
667 1048 m 0,0,1
 710 1060 710 1060 755 1068 c 128,-1,2
 800 1076 800 1076 820 1075 c 0,3,4
 850 1073 850 1073 858 1067 c 128,-1,5
 866 1061 866 1061 866 1041 c 0,6,7
 866 1019 866 1019 849 1010.5 c 128,-1,8
 832 1002 832 1002 753 985 c 0,9,10
 645 964 645 964 567 933 c 0,11,12
 491 903 491 903 376 843 c 128,-1,13
 261 783 261 783 261 774 c 256,14,15
 261 765 261 765 383.5 757 c 128,-1,16
 506 749 506 749 813 738 c 2,17,-1
 1092 727 l 1,18,-1
 1092 694 l 1,19,-1
 1092 661 l 1,20,-1
 733 665 l 2,21,22
 424 668 424 668 307.5 679.5 c 128,-1,23
 191 691 191 691 165 722 c 0,24,25
 148 742 148 742 145 737.5 c 128,-1,26
 142 733 142 733 143 686 c 0,27,28
 143 627 143 627 160 375 c 0,29,30
 177 126 177 126 171 111 c 0,31,32
 166 97 166 97 149 94.5 c 128,-1,33
 132 92 132 92 115.5 101 c 128,-1,34
 99 110 99 110 96 126 c 0,35,36
 90 154 90 154 76 383 c 128,-1,37
 62 612 62 612 54 807 c 0,38,39
 49 932 49 932 51 974 c 128,-1,40
 53 1016 53 1016 66 1033 c 0,41,42
 79 1049 79 1049 87.5 1051.5 c 128,-1,43
 96 1054 96 1054 111 1045 c 256,44,45
 126 1036 126 1036 131.5 1009 c 128,-1,46
 137 982 137 982 141 905 c 0,47,48
 148 798 148 798 157 798 c 0,49,50
 159 798 159 798 161 803 c 0,51,52
 186 844 186 844 354 925.5 c 128,-1,53
 522 1007 522 1007 667 1048 c 0,0,1
EndSplineSet
EndChar

StartChar: L
Encoding: 76 76 36
Width: 1399
GlyphClass: 1
Flags: W
LayerCount: 2
Fore
SplineSet
315 1310 m 0,0,1
 333 1314 333 1314 350.5 1301.5 c 128,-1,2
 368 1289 368 1289 368 1272 c 0,3,4
 368 1258 368 1258 290 1091 c 0,5,6
 222 950 222 950 181 828 c 128,-1,7
 140 706 140 706 138 641 c 0,8,9
 136 598 136 598 141 589 c 128,-1,10
 146 580 146 580 175 577 c 0,11,12
 230 570 230 570 359 606 c 128,-1,13
 488 642 488 642 835 762 c 0,14,15
 1297 920 1297 920 1316 920 c 0,16,17
 1339 920 1339 920 1346.5 898.5 c 128,-1,18
 1354 877 1354 877 1338 860 c 0,19,20
 1322 845 1322 845 893 696 c 128,-1,21
 464 547 464 547 356 520 c 0,22,23
 252 494 252 494 181 494 c 0,24,25
 129 494 129 494 111.5 500.5 c 128,-1,26
 94 507 94 507 75 532 c 0,27,28
 56 555 56 555 52 576 c 128,-1,29
 48 597 48 597 53 654 c 0,30,31
 60 734 60 734 95 847 c 0,32,33
 133 960 133 960 214.5 1133 c 128,-1,34
 296 1306 296 1306 315 1310 c 0,0,1
EndSplineSet
EndChar

StartChar: M
Encoding: 77 77 37
Width: 1454
GlyphClass: 1
Flags: W
LayerCount: 2
Fore
SplineSet
632 1216 m 0,0,1
 640 1225 640 1225 653 1232 c 128,-1,2
 666 1239 666 1239 675 1239 c 0,3,4
 715 1239 715 1239 757 1182 c 128,-1,5
 799 1125 799 1125 875 968 c 0,6,7
 940 831 940 831 997 738.5 c 128,-1,8
 1054 646 1054 646 1187 461 c 0,9,10
 1398 168 1398 168 1402 147 c 0,11,12
 1408 126 1408 126 1387.5 110 c 128,-1,13
 1367 94 1367 94 1348 105 c 0,14,15
 1330 114 1330 114 1114 415 c 0,16,17
 989 588 989 588 927.5 685.5 c 128,-1,18
 866 783 866 783 820 880 c 0,19,20
 748 1032 748 1032 718.5 1085.5 c 128,-1,21
 689 1139 689 1139 679 1139 c 0,22,23
 675 1139 675 1139 650 1072 c 128,-1,24
 625 1005 625 1005 594 912 c 0,25,26
 553 788 553 788 529 727.5 c 128,-1,27
 505 667 505 667 487 640.5 c 128,-1,28
 469 614 469 614 448 607 c 0,29,30
 413 596 413 596 381 633 c 128,-1,31
 349 670 349 670 284 796 c 0,32,33
 194 970 194 970 163 1006 c 2,34,-1
 131 1046 l 1,35,-1
 130 913 l 2,36,37
 130 775 130 775 151 532 c 0,38,39
 173 282 173 282 166 263 c 0,40,41
 159 246 159 246 142.5 243 c 128,-1,42
 126 240 126 240 107 252 c 0,43,44
 91 262 91 262 70.5 493 c 128,-1,45
 50 724 50 724 50 892 c 0,46,47
 50 1010 50 1010 54.5 1042.5 c 128,-1,48
 59 1075 59 1075 77 1093 c 0,49,50
 101 1117 101 1117 122.5 1118 c 128,-1,51
 144 1119 144 1119 183 1099 c 0,52,53
 220 1080 220 1080 254 1031.5 c 128,-1,54
 288 983 288 983 357 848 c 2,55,-1
 434 700 l 1,56,-1
 453 747 l 2,57,58
 477 804 477 804 522 953 c 0,59,60
 563 1082 563 1082 585 1135 c 128,-1,61
 607 1188 607 1188 632 1216 c 0,0,1
EndSplineSet
EndChar

StartChar: N
Encoding: 78 78 38
Width: 1254
GlyphClass: 1
Flags: W
LayerCount: 2
Fore
SplineSet
1105 1589 m 0,0,1
 1119 1620 1119 1620 1130 1629 c 128,-1,2
 1141 1638 1141 1638 1166 1638 c 0,3,4
 1182 1638 1182 1638 1189 1636.5 c 128,-1,5
 1196 1635 1196 1635 1201 1631.5 c 128,-1,6
 1206 1628 1206 1628 1203.5 1618 c 128,-1,7
 1201 1608 1201 1608 1196.5 1595 c 128,-1,8
 1192 1582 1192 1582 1181 1557 c 0,9,10
 1151 1489 1151 1489 1108 1309 c 128,-1,11
 1065 1129 1065 1129 1021 887 c 0,12,13
 951 497 951 497 936 350.5 c 128,-1,14
 921 204 921 204 945 147 c 0,15,16
 954 127 954 127 933 104 c 128,-1,17
 912 81 912 81 895 91 c 0,18,19
 876 102 876 102 769.5 310.5 c 128,-1,20
 663 519 663 519 596 678 c 0,21,22
 464 988 464 988 387 1296 c 0,23,24
 377 1335 377 1335 368.5 1367.5 c 128,-1,25
 360 1400 360 1400 354.5 1418.5 c 128,-1,26
 349 1437 349 1437 348 1436 c 0,27,28
 342 1430 342 1430 290 1306 c 0,29,30
 200 1101 200 1101 169 935 c 128,-1,31
 138 769 138 769 129 452 c 0,32,33
 129 444 129 444 116.5 442 c 128,-1,34
 104 440 104 440 88.5 444.5 c 128,-1,35
 73 449 73 449 65 457 c 0,36,37
 40 481 40 481 55.5 685 c 128,-1,38
 71 889 71 889 110 1046 c 0,39,40
 127 1115 127 1115 204 1306.5 c 128,-1,41
 281 1498 281 1498 310 1542 c 0,42,43
 355 1613 355 1613 402 1528 c 0,44,45
 427 1482 427 1482 448 1397 c 0,46,47
 530 1055 530 1055 658 751 c 0,48,49
 803 412 803 412 843 375 c 0,50,51
 849 369 849 369 851 375 c 0,52,53
 858 394 858 394 880 541 c 0,54,55
 930 868 930 868 997 1180 c 128,-1,56
 1064 1492 1064 1492 1105 1589 c 0,0,1
EndSplineSet
EndChar

StartChar: O
Encoding: 79 79 39
Width: 1295
GlyphClass: 1
Flags: W
LayerCount: 2
Fore
SplineSet
908 1167 m 0,0,1
 776 1202 776 1202 617.5 1157 c 128,-1,2
 459 1112 459 1112 303 994 c 0,3,4
 230 939 230 939 192 895 c 128,-1,5
 154 851 154 851 143.5 800.5 c 128,-1,6
 133 750 133 750 150 696.5 c 128,-1,7
 167 643 167 643 212 569 c 0,8,9
 225 546 225 546 232.5 535 c 128,-1,10
 240 524 240 524 246.5 519 c 128,-1,11
 253 514 253 514 257.5 516 c 128,-1,12
 262 518 262 518 267 526 c 0,13,14
 276 539 276 539 325.5 549.5 c 128,-1,15
 375 560 375 560 493 574 c 0,16,17
 704 601 704 601 743 601 c 0,18,19
 817 601 817 601 940 685 c 128,-1,20
 1063 769 1063 769 1130 865 c 0,21,22
 1153 899 1153 899 1159 919 c 128,-1,23
 1165 939 1165 939 1160 968 c 0,24,25
 1150 1030 1150 1030 1081 1084.5 c 128,-1,26
 1012 1139 1012 1139 908 1167 c 0,0,1
555 1227 m 0,27,28
 717 1284 717 1284 878 1257 c 128,-1,29
 1039 1230 1039 1230 1162 1125 c 0,30,31
 1225 1072 1225 1072 1240.5 1001.5 c 128,-1,32
 1256 931 1256 931 1222 859 c 0,33,34
 1195 801 1195 801 1092 701.5 c 128,-1,35
 989 602 989 602 923 569 c 0,36,37
 866 541 866 541 799.5 529 c 128,-1,38
 733 517 733 517 481 488 c 0,39,40
 371 474 371 474 329 473 c 128,-1,41
 287 472 287 472 275 482 c 0,42,43
 270 486 270 486 271 484 c 0,44,45
 275 476 275 476 310 440 c 0,46,47
 378 367 378 367 364 335 c 0,48,49
 357 321 357 321 334 321 c 0,50,51
 301 321 301 321 237.5 391 c 128,-1,52
 174 461 174 461 119.5 555.5 c 128,-1,53
 65 650 65 650 53 712 c 0,54,55
 37 799 37 799 98.5 898.5 c 128,-1,56
 160 998 160 998 281 1086 c 128,-1,57
 402 1174 402 1174 555 1227 c 0,27,28
EndSplineSet
EndChar

StartChar: P
Encoding: 80 80 40
Width: 1025
GlyphClass: 1
Flags: W
LayerCount: 2
Fore
SplineSet
802 1279 m 0,0,1
 624 1369 624 1369 397 1158 c 0,2,3
 339 1103 339 1103 285 1020 c 128,-1,4
 231 937 231 937 231 903 c 0,5,6
 231 891 231 891 259.5 883.5 c 128,-1,7
 288 876 288 876 362 867 c 0,8,9
 461 854 461 854 487 856 c 128,-1,10
 513 858 513 858 566 884 c 0,11,12
 626 914 626 914 743 1012 c 128,-1,13
 860 1110 860 1110 878 1146 c 0,14,15
 895 1179 895 1179 874 1216 c 128,-1,16
 853 1253 853 1253 802 1279 c 0,0,1
559 1365 m 0,17,18
 581 1373 581 1373 623.5 1378.5 c 128,-1,19
 666 1384 666 1384 704 1384 c 0,20,21
 764 1385 764 1385 791 1378.5 c 128,-1,22
 818 1372 818 1372 858 1347 c 0,23,24
 903 1318 903 1318 939 1262 c 128,-1,25
 975 1206 975 1206 975 1165 c 0,26,27
 975 1099 975 1099 832 977 c 0,28,29
 680 846 680 846 598 808 c 128,-1,30
 516 770 516 770 404 779 c 0,31,32
 295 787 295 787 261 795 c 0,33,34
 228 801 228 801 222.5 795.5 c 128,-1,35
 217 790 217 790 217 751 c 0,36,37
 217 686 217 686 288 489 c 128,-1,38
 359 292 359 292 406 226 c 0,39,40
 431 190 431 190 426.5 166 c 128,-1,41
 422 142 422 142 390 142 c 0,42,43
 369 142 369 142 352.5 163.5 c 128,-1,44
 336 185 336 185 294 268 c 0,45,46
 244 371 244 371 192 523 c 128,-1,47
 140 675 140 675 130 750 c 0,48,49
 125 787 125 787 117.5 800.5 c 128,-1,50
 110 814 110 814 91 819 c 0,51,52
 60 827 60 827 52 850 c 128,-1,53
 44 873 44 873 66 889 c 0,54,55
 76 896 76 896 89.5 899.5 c 128,-1,56
 103 903 103 903 112 900 c 0,57,58
 125 896 125 896 133.5 905 c 128,-1,59
 142 914 142 914 151 942 c 0,60,61
 191 1066 191 1066 313 1193 c 128,-1,62
 435 1320 435 1320 559 1365 c 0,17,18
EndSplineSet
EndChar

StartChar: Q
Encoding: 81 81 41
Width: 1368
GlyphClass: 1
Flags: W
LayerCount: 2
Fore
SplineSet
688 1126 m 0,0,1
 680 1181 680 1181 668.5 1193.5 c 128,-1,2
 657 1206 657 1206 622 1199 c 0,3,4
 575 1189 575 1189 537.5 1164.5 c 128,-1,5
 500 1140 500 1140 430 1074 c 0,6,7
 258 908 258 908 175 748 c 0,8,9
 148 694 148 694 140 661 c 128,-1,10
 132 628 132 628 131 569 c 0,11,12
 131 478 131 478 149.5 425.5 c 128,-1,13
 168 373 168 373 214 333 c 0,14,15
 273 281 273 281 335 260 c 128,-1,16
 397 239 397 239 494 238 c 0,17,18
 610 238 610 238 650 247 c 0,19,20
 663 250 663 250 670 253.5 c 128,-1,21
 677 257 677 257 683.5 263 c 128,-1,22
 690 269 690 269 695.5 286 c 128,-1,23
 701 303 701 303 706.5 322 c 128,-1,24
 712 341 712 341 722 383 c 2,25,-1
 752 509 l 1,26,-1
 720 545 l 2,27,28
 691 579 691 579 679 585 c 0,29,30
 665 592 665 592 669 624.5 c 128,-1,31
 673 657 673 657 688 663 c 0,32,33
 697 666 697 666 711 661 c 128,-1,34
 725 656 725 656 735 647 c 0,35,36
 753 631 753 631 757 637 c 0,37,38
 761 644 761 644 761 722 c 0,39,40
 761 823 761 823 730 946 c 0,41,42
 698 1072 698 1072 688 1126 c 0,0,1
541 1267 m 0,43,44
 564 1278 564 1278 589 1283.5 c 128,-1,45
 614 1289 614 1289 628 1286 c 0,46,47
 661 1279 661 1279 694 1274 c 0,48,49
 754 1264 754 1264 768 1174 c 0,50,51
 777 1114 777 1114 808 990 c 0,52,53
 827 912 827 912 834 851.5 c 128,-1,54
 841 791 841 791 841 702 c 2,55,-1
 841 549 l 1,56,-1
 886 514 l 2,57,58
 949 467 949 467 1060 404 c 128,-1,59
 1171 341 1171 341 1231 319 c 0,60,61
 1294 296 1294 296 1310.5 276.5 c 128,-1,62
 1327 257 1327 257 1304 234 c 0,63,64
 1293 221 1293 221 1275 222.5 c 128,-1,65
 1257 224 1257 224 1207 242 c 0,66,67
 1083 283 1083 283 904 404 c 0,68,69
 883 418 883 418 864.5 429.5 c 128,-1,70
 846 441 846 441 834.5 447 c 128,-1,71
 823 453 823 453 823 452 c 0,72,73
 818 446 818 446 803 381.5 c 128,-1,74
 788 317 788 317 788 301 c 0,75,76
 788 279 788 279 812 287 c 0,77,78
 822 291 822 291 835.5 288 c 128,-1,79
 849 285 849 285 860 278 c 0,80,81
 887 258 887 258 871 235 c 128,-1,82
 855 212 855 212 804 198 c 0,83,84
 765 188 765 188 750.5 176 c 128,-1,85
 736 164 736 164 724 133 c 0,86,87
 703 82 703 82 680 82 c 0,88,89
 660 82 660 82 647.5 98 c 128,-1,90
 635 114 635 114 639 135 c 0,91,92
 640 142 640 142 635.5 145.5 c 128,-1,93
 631 149 631 149 615.5 151.5 c 128,-1,94
 600 154 600 154 575 155 c 128,-1,95
 550 156 550 156 506 157 c 0,96,97
 386 158 386 158 309.5 182 c 128,-1,98
 233 206 233 206 164 263 c 0,99,100
 97 321 97 321 74 378 c 128,-1,101
 51 435 51 435 50 548 c 0,102,103
 50 634 50 634 57 668.5 c 128,-1,104
 64 703 64 703 94 767 c 0,105,106
 134 852 134 852 216.5 959 c 128,-1,107
 299 1066 299 1066 389.5 1152.5 c 128,-1,108
 480 1239 480 1239 541 1267 c 0,43,44
EndSplineSet
EndChar

StartChar: R
Encoding: 82 82 42
Width: 1008
GlyphClass: 1
Flags: W
LayerCount: 2
Fore
SplineSet
421 981 m 0,0,1
 421 1002 421 1002 354 963 c 0,2,3
 281 921 281 921 249 880 c 0,4,5
 227 850 227 850 231 850 c 0,6,7
 237 850 237 850 318 905 c 0,8,9
 421 978 421 978 421 981 c 0,0,1
363 1061 m 0,10,11
 413 1078 413 1078 442 1077.5 c 128,-1,12
 471 1077 471 1077 498 1058 c 0,13,14
 544 1026 544 1026 514 971 c 128,-1,15
 484 916 484 916 382 847 c 0,16,17
 339 817 339 817 319.5 800 c 128,-1,18
 300 783 300 783 293 763.5 c 128,-1,19
 286 744 286 744 293 726.5 c 128,-1,20
 300 709 300 709 321 678 c 0,21,22
 356 627 356 627 435.5 574 c 128,-1,23
 515 521 515 521 706 421 c 0,24,25
 935 305 935 305 947 292 c 0,26,27
 963 280 963 280 956 254 c 128,-1,28
 949 228 949 228 930 228 c 0,29,30
 905 228 905 228 672 348 c 128,-1,31
 439 468 439 468 374 514 c 0,32,33
 297 569 297 569 270 600.5 c 128,-1,34
 243 632 243 632 216 699 c 2,35,-1
 185 775 l 1,36,-1
 167 711 l 2,37,38
 154 667 154 667 150.5 517.5 c 128,-1,39
 147 368 147 368 157 268 c 0,40,41
 159 243 159 243 155.5 232 c 128,-1,42
 152 221 152 221 141 219 c 0,43,44
 114 214 114 214 98 236.5 c 128,-1,45
 82 259 82 259 65 327 c 0,46,47
 51 385 51 385 50 424.5 c 128,-1,48
 49 464 49 464 59 551 c 0,49,50
 83 765 83 765 157 889 c 128,-1,51
 231 1013 231 1013 363 1061 c 0,10,11
EndSplineSet
EndChar

StartChar: S
Encoding: 83 83 43
Width: 851
GlyphClass: 1
Flags: W
LayerCount: 2
Fore
SplineSet
655 1367 m 0,0,1
 710 1393 710 1393 742 1396.5 c 128,-1,2
 774 1400 774 1400 792 1383 c 0,3,4
 810 1365 810 1365 792 1341.5 c 128,-1,5
 774 1318 774 1318 732 1304 c 0,6,7
 685 1289 685 1289 642 1260 c 128,-1,8
 599 1231 599 1231 539 1174 c 0,9,10
 492 1129 492 1129 472.5 1096.5 c 128,-1,11
 453 1064 453 1064 458 1024.5 c 128,-1,12
 463 985 463 985 492 943 c 128,-1,13
 521 901 521 901 582 836 c 0,14,15
 672 739 672 739 695 695 c 0,16,17
 721 644 721 644 712 562.5 c 128,-1,18
 703 481 703 481 663 400 c 0,19,20
 634 341 634 341 397 4.5 c 128,-1,21
 160 -332 160 -332 116 -375 c 0,22,23
 96 -397 96 -397 73 -391.5 c 128,-1,24
 50 -386 50 -386 50 -359 c 0,25,26
 50 -349 50 -349 104 -266.5 c 128,-1,27
 158 -184 158 -184 232 -83 c 0,28,29
 449 217 449 217 499 289 c 128,-1,30
 549 361 549 361 581 417 c 0,31,32
 613 474 613 474 626.5 533.5 c 128,-1,33
 640 593 640 593 630 634 c 0,34,35
 626 648 626 648 593.5 690 c 128,-1,36
 561 732 561 732 519 778 c 0,37,38
 461 841 461 841 428.5 885.5 c 128,-1,39
 396 930 396 930 382.5 972.5 c 128,-1,40
 369 1015 369 1015 374.5 1052.5 c 128,-1,41
 380 1090 380 1090 402 1138 c 0,42,43
 425 1187 425 1187 509 1263 c 128,-1,44
 593 1339 593 1339 655 1367 c 0,0,1
EndSplineSet
EndChar

StartChar: T
Encoding: 84 84 44
Width: 1318
GlyphClass: 1
Flags: W
LayerCount: 2
Fore
SplineSet
1014 1274 m 0,0,1
 1144 1316 1144 1316 1195 1319 c 0,2,3
 1239 1319 1239 1319 1257.5 1301 c 128,-1,4
 1276 1283 1276 1283 1261 1255 c 0,5,6
 1253 1240 1253 1240 1212 1225 c 128,-1,7
 1171 1210 1171 1210 1072 1186 c 0,8,9
 904 1144 904 1144 809 1113 c 2,10,-1
 721 1083 l 1,11,-1
 717 985 l 2,12,13
 711 855 711 855 743.5 705.5 c 128,-1,14
 776 556 776 556 838 430 c 0,15,16
 865 374 865 374 868.5 357 c 128,-1,17
 872 340 872 340 858 327 c 0,18,19
 804 273 804 273 733 452 c 0,20,21
 716 493 716 493 699 548 c 0,22,23
 635 739 635 739 631 952 c 0,24,25
 629 1033 629 1033 624.5 1049 c 128,-1,26
 620 1065 620 1065 601 1061 c 0,27,28
 384 1010 384 1010 232 978.5 c 128,-1,29
 80 947 80 947 70 952 c 0,30,31
 47 961 47 961 50.5 988 c 128,-1,32
 54 1015 54 1015 80 1025 c 0,33,34
 110 1036 110 1036 389 1099 c 0,35,36
 595 1146 595 1146 702.5 1176 c 128,-1,37
 810 1206 810 1206 1014 1274 c 0,0,1
EndSplineSet
EndChar

StartChar: U
Encoding: 85 85 45
Width: 1714
GlyphClass: 1
Flags: W
LayerCount: 2
Fore
SplineSet
1277 1163 m 0,0,1
 1467 1354 1467 1354 1541 1423 c 128,-1,2
 1615 1492 1615 1492 1634 1492 c 0,3,4
 1665 1492 1665 1492 1664 1475 c 0,5,6
 1662 1442 1662 1442 1515 1286 c 0,7,8
 1446 1212 1446 1212 1309 1074 c 0,9,10
 1116 878 1116 878 1013.5 784 c 128,-1,11
 911 690 911 690 839.5 643.5 c 128,-1,12
 768 597 768 597 682 566 c 0,13,14
 562 523 562 523 430.5 539.5 c 128,-1,15
 299 556 299 556 199 625 c 0,16,17
 124 676 124 676 77 766 c 0,18,19
 34 847 34 847 57 879 c 0,20,21
 64 889 64 889 78 891 c 0,22,23
 95 894 95 894 108.5 878.5 c 128,-1,24
 122 863 122 863 150 813 c 0,25,26
 215 691 215 691 332.5 643.5 c 128,-1,27
 450 596 450 596 594.5 630.5 c 128,-1,28
 739 665 739 665 881 776 c 0,29,30
 913 801 913 801 1030.5 915.5 c 128,-1,31
 1148 1030 1148 1030 1277 1163 c 0,0,1
EndSplineSet
EndChar

StartChar: V
Encoding: 86 86 46
Width: 1032
GlyphClass: 1
Flags: W
LayerCount: 2
Fore
SplineSet
925 1436 m 0,0,1
 946 1452 946 1452 957.5 1450 c 128,-1,2
 969 1448 969 1448 980 1427 c 0,3,4
 988 1413 988 1413 958.5 1324.5 c 128,-1,5
 929 1236 929 1236 840 1005 c 0,6,7
 779 846 779 846 739.5 747 c 128,-1,8
 700 648 700 648 663 565 c 128,-1,9
 626 482 626 482 602 439.5 c 128,-1,10
 578 397 578 397 551.5 366.5 c 128,-1,11
 525 336 525 336 503 326 c 128,-1,12
 481 316 481 316 450 312 c 0,13,14
 412 307 412 307 396.5 313.5 c 128,-1,15
 381 320 381 320 349 355 c 0,16,17
 330 374 330 374 297 428.5 c 128,-1,18
 264 483 264 483 236 540 c 0,19,20
 188 639 188 639 119 833 c 128,-1,21
 50 1027 50 1027 50 1065 c 0,22,23
 50 1087 50 1087 75.5 1095.5 c 128,-1,24
 101 1104 101 1104 114 1087 c 0,25,26
 126 1073 126 1073 182 896 c 0,27,28
 246 698 246 698 325.5 543 c 128,-1,29
 405 388 405 388 442 388 c 0,30,31
 461 388 461 388 495 434 c 128,-1,32
 529 480 529 480 565 554 c 0,33,34
 602 626 602 626 755 1026 c 0,35,36
 816 1186 816 1186 866.5 1307.5 c 128,-1,37
 917 1429 917 1429 925 1436 c 0,0,1
EndSplineSet
EndChar

StartChar: W
Encoding: 87 87 47
Width: 1269
GlyphClass: 1
Flags: W
LayerCount: 2
Fore
SplineSet
1157 1516 m 0,0,1
 1173 1532 1173 1532 1189 1532 c 0,2,3
 1201 1532 1201 1532 1207.5 1527.5 c 128,-1,4
 1214 1523 1214 1523 1217 1508.5 c 128,-1,5
 1220 1494 1220 1494 1218.5 1473.5 c 128,-1,6
 1217 1453 1217 1453 1210.5 1413.5 c 128,-1,7
 1204 1374 1204 1374 1193.5 1327 c 128,-1,8
 1183 1280 1183 1280 1166 1206 c 0,9,10
 1098 906 1098 906 1068 707 c 0,11,12
 1044 552 1044 552 1030.5 486 c 128,-1,13
 1017 420 1017 420 1005 393.5 c 128,-1,14
 993 367 993 367 972 357 c 0,15,16
 952 349 952 349 941.5 351 c 128,-1,17
 931 353 931 353 915 369 c 0,18,19
 898 386 898 386 853 492.5 c 128,-1,20
 808 599 808 599 762 730 c 0,21,22
 756 748 756 748 748.5 763.5 c 128,-1,23
 741 779 741 779 736 787 c 128,-1,24
 731 795 731 795 729 794 c 0,25,26
 710 782 710 782 662 468 c 0,27,28
 638 311 638 311 628.5 273 c 128,-1,29
 619 235 619 235 598 212 c 0,30,31
 574 183 574 183 543 190 c 128,-1,32
 512 197 512 197 479 239 c 0,33,34
 430 301 430 301 340 442.5 c 128,-1,35
 250 584 250 584 186 699 c 0,36,37
 104 844 104 844 78 872 c 0,38,39
 49 904 49 904 50 932 c 128,-1,40
 51 960 51 960 82 960 c 0,41,42
 143 960 143 960 226 796 c 0,43,44
 250 748 250 748 290 679.5 c 128,-1,45
 330 611 330 611 372 544.5 c 128,-1,46
 414 478 414 478 452.5 421 c 128,-1,47
 491 364 491 364 517 331 c 128,-1,48
 543 298 543 298 547 304 c 256,49,50
 551 310 551 310 581 502 c 0,51,52
 606 670 606 670 626.5 754.5 c 128,-1,53
 647 839 647 839 670.5 873 c 128,-1,54
 694 907 694 907 730 907 c 0,55,56
 757 907 757 907 769.5 893.5 c 128,-1,57
 782 880 782 880 807 824 c 0,58,59
 832 771 832 771 890 618 c 0,60,61
 901 585 901 585 912.5 556 c 128,-1,62
 924 527 924 527 932 510.5 c 128,-1,63
 940 494 940 494 942 494 c 0,64,65
 951 494 951 494 977 686 c 0,66,67
 1001 846 1001 846 1071.5 1171 c 128,-1,68
 1142 1496 1142 1496 1157 1516 c 0,0,1
EndSplineSet
EndChar

StartChar: X
Encoding: 88 88 48
Width: 1798
GlyphClass: 1
Flags: W
LayerCount: 2
Fore
SplineSet
335 1179 m 0,0,1
 339 1187 339 1187 347.5 1193 c 128,-1,2
 356 1199 356 1199 365 1199 c 256,3,4
 374 1199 374 1199 437 1145 c 128,-1,5
 500 1091 500 1091 579 1014 c 2,6,-1
 772 831 l 1,7,-1
 972 1002 l 2,8,9
 1145 1152 1145 1152 1190 1167 c 0,10,11
 1222 1175 1222 1175 1228 1139 c 0,12,13
 1230 1124 1230 1124 1187 1080.5 c 128,-1,14
 1144 1037 1144 1037 1032 941 c 2,15,-1
 831 770 l 1,16,-1
 868 730 l 2,17,18
 887 710 887 710 1111 501 c 0,19,20
 1374 261 1374 261 1559 81 c 128,-1,21
 1744 -99 1744 -99 1747 -117 c 0,22,23
 1749 -126 1749 -126 1744 -137.5 c 128,-1,24
 1739 -149 1739 -149 1731 -156 c 0,25,26
 1722 -164 1722 -164 1707 -157.5 c 128,-1,27
 1692 -151 1692 -151 1644.5 -111 c 128,-1,28
 1597 -71 1597 -71 1525 -4.5 c 128,-1,29
 1453 62 1453 62 1313 195 c 0,30,31
 1134 366 1134 366 933 553 c 2,32,-1
 763 712 l 1,33,-1
 429 375 l 2,34,35
 231 174 231 174 160 108.5 c 128,-1,36
 89 43 89 43 77 51 c 0,37,38
 68 56 68 56 60 64.5 c 128,-1,39
 52 73 52 73 50 79 c 0,40,41
 46 94 46 94 183 242 c 128,-1,42
 320 390 320 390 510 578 c 2,43,-1
 710 774 l 1,44,-1
 525 950 l 2,45,46
 341 1125 341 1125 333 1142 c 0,47,48
 328 1161 328 1161 335 1179 c 0,0,1
EndSplineSet
EndChar

StartChar: Y
Encoding: 89 89 49
Width: 1800
GlyphClass: 1
Flags: W
LayerCount: 2
Fore
SplineSet
543 1349 m 0,0,1
 549 1360 549 1360 559.5 1365.5 c 128,-1,2
 570 1371 570 1371 579 1369 c 256,3,4
 588 1367 588 1367 628.5 1316 c 128,-1,5
 669 1265 669 1265 715 1196 c 0,6,7
 832 1022 832 1022 905 940 c 0,8,9
 956 883 956 883 1036.5 819 c 128,-1,10
 1117 755 1117 755 1159 739 c 0,11,12
 1167 736 1167 736 1214.5 768 c 128,-1,13
 1262 800 1262 800 1328 853 c 0,14,15
 1557 1040 1557 1040 1670 1098 c 0,16,17
 1696 1112 1696 1112 1709.5 1113.5 c 128,-1,18
 1723 1115 1723 1115 1734 1105 c 0,19,20
 1760 1084 1760 1084 1744 1062 c 128,-1,21
 1728 1040 1728 1040 1650 990 c 0,22,23
 1607 964 1607 964 1532.5 908.5 c 128,-1,24
 1458 853 1458 853 1396 802 c 2,25,-1
 1244 678 l 1,26,-1
 1331 619 l 2,27,28
 1404 570 1404 570 1419 553.5 c 128,-1,29
 1434 537 1434 537 1425 516 c 0,30,31
 1415 489 1415 489 1380.5 498.5 c 128,-1,32
 1346 508 1346 508 1279 555 c 0,33,34
 1217 600 1217 600 1199.5 606 c 128,-1,35
 1182 612 1182 612 1156 599 c 0,36,37
 1142 593 1142 593 990.5 445 c 128,-1,38
 839 297 839 297 628 86 c 0,39,40
 448 -96 448 -96 360 -184 c 128,-1,41
 272 -272 272 -272 210 -329 c 128,-1,42
 148 -386 148 -386 129 -398 c 128,-1,43
 110 -410 110 -410 94 -410 c 0,44,45
 76 -410 76 -410 63 -405.5 c 128,-1,46
 50 -401 50 -401 50 -395 c 0,47,48
 50 -381 50 -381 477.5 54.5 c 128,-1,49
 905 490 905 490 1001 574 c 0,50,51
 1098 659 1098 659 1101 667 c 0,52,53
 1101 675 1101 675 1015 731 c 0,54,55
 919 795 919 795 812.5 918 c 128,-1,56
 706 1041 706 1041 602 1208 c 0,57,58
 559 1279 559 1279 547 1307 c 128,-1,59
 535 1335 535 1335 543 1349 c 0,0,1
EndSplineSet
EndChar

StartChar: Z
Encoding: 90 90 50
Width: 1694
GlyphClass: 1
Flags: W
LayerCount: 2
Fore
SplineSet
314 1113 m 0,0,1
 546 1154 546 1154 595 1105 c 0,2,3
 613 1087 613 1087 617 1068 c 128,-1,4
 621 1049 621 1049 617 1001 c 0,5,6
 612 935 612 935 568.5 836 c 128,-1,7
 525 737 525 737 425 563 c 0,8,9
 389 501 389 501 365.5 455.5 c 128,-1,10
 342 410 342 410 345 407 c 0,11,12
 346 405 346 405 367.5 411 c 128,-1,13
 389 417 389 417 425.5 428.5 c 128,-1,14
 462 440 462 440 502 454 c 0,15,16
 601 489 601 489 972.5 609.5 c 128,-1,17
 1344 730 1344 730 1568 800 c 2,18,-1
 1644 824 l 1,19,-1
 1644 782 l 1,20,-1
 1644 740 l 1,21,-1
 1395 662 l 2,22,23
 1109 571 1109 571 729 445 c 0,24,25
 308 308 308 308 288 308 c 256,26,27
 268 308 268 308 251 331 c 128,-1,28
 234 354 234 354 234 383 c 0,29,30
 234 392 234 392 268 457.5 c 128,-1,31
 302 523 302 523 347 602 c 0,32,33
 540 935 540 935 540 1020 c 2,34,-1
 540 1056 l 1,35,-1
 438 1046 l 2,36,37
 330 1036 330 1036 209 1004 c 0,38,39
 155 990 155 990 125 984.5 c 128,-1,40
 95 979 95 979 76.5 980 c 128,-1,41
 58 981 58 981 53 989.5 c 128,-1,42
 48 998 48 998 51 1016 c 0,43,44
 57 1065 57 1065 314 1113 c 0,0,1
EndSplineSet
EndChar

StartChar: _
Encoding: 95 95 51
Width: 1045
GlyphClass: 1
Flags: W
LayerCount: 2
Fore
SplineSet
56 196 m 0,0,1
 61 211 61 211 96.5 213.5 c 128,-1,2
 132 216 132 216 261 212 c 0,3,4
 380 208 380 208 466.5 197 c 128,-1,5
 553 186 553 186 696 157 c 0,6,7
 929 109 929 109 966 95 c 0,8,9
 992 84 992 84 995 58.5 c 128,-1,10
 998 33 998 33 974 24 c 0,11,12
 965 20 965 20 882 33.5 c 128,-1,13
 799 47 799 47 691 70 c 0,14,15
 538 102 538 102 446 114.5 c 128,-1,16
 354 127 354 127 246 131 c 0,17,18
 88 138 88 138 62 152 c 0,19,20
 44 165 44 165 56 196 c 0,0,1
EndSplineSet
EndChar

StartChar: a
Encoding: 97 97 52
Width: 941
GlyphClass: 1
Flags: W
LayerCount: 2
Fore
SplineSet
556 771 m 256,0,1
 570 785 570 785 585 778 c 0,2,3
 631 750 631 750 756.5 664 c 128,-1,4
 882 578 882 578 888 569 c 0,5,6
 896 556 896 556 883.5 532 c 128,-1,7
 871 508 871 508 856 508 c 128,-1,8
 841 508 841 508 690 610 c 0,9,10
 632 649 632 649 601.5 672.5 c 128,-1,11
 571 696 571 696 555.5 714.5 c 128,-1,12
 540 733 540 733 541 745 c 128,-1,13
 542 757 542 757 556 771 c 256,0,1
500 855 m 0,14,15
 510 872 510 872 504 876 c 128,-1,16
 498 880 498 880 464 880 c 0,17,18
 417 880 417 880 356 852 c 0,19,20
 283 816 283 816 218.5 727 c 128,-1,21
 154 638 154 638 154 574 c 0,22,23
 154 544 154 544 158 541 c 128,-1,24
 162 538 162 538 183 553 c 0,25,26
 222 580 222 580 356 707.5 c 128,-1,27
 490 835 490 835 500 855 c 0,14,15
343 933 m 0,28,29
 398 958 398 958 470.5 959.5 c 128,-1,30
 543 961 543 961 569 937 c 0,31,32
 597 912 597 912 592 868.5 c 128,-1,33
 587 825 587 825 550 782 c 0,34,35
 497 716 497 716 295 538.5 c 128,-1,36
 93 361 93 361 76 364 c 0,37,38
 52 369 52 369 50.5 401 c 128,-1,39
 49 433 49 433 72 449 c 0,40,41
 91 462 91 462 92 471 c 128,-1,42
 93 480 93 480 78 509 c 0,43,44
 55 556 55 556 73.5 626.5 c 128,-1,45
 92 697 92 697 147 771 c 0,46,47
 193 835 193 835 234.5 869 c 128,-1,48
 276 903 276 903 343 933 c 0,28,29
EndSplineSet
EndChar

StartChar: b
Encoding: 98 98 53
Width: 758
GlyphClass: 1
Flags: W
LayerCount: 2
Fore
SplineSet
506 528 m 0,0,1
 403 575 403 575 285 646 c 0,2,3
 234 677 234 677 199.5 697 c 128,-1,4
 165 717 165 717 165 715 c 0,5,6
 165 698 165 698 199.5 600 c 128,-1,7
 234 502 234 502 253 465 c 0,8,9
 286 400 286 400 328 354 c 128,-1,10
 370 308 370 308 397 308 c 0,11,12
 419 308 419 308 477 340 c 128,-1,13
 535 372 535 372 583 411 c 0,14,15
 620 441 620 441 612 461 c 0,16,17
 609 470 609 470 578 489 c 128,-1,18
 547 508 547 508 506 528 c 0,0,1
119 1227 m 0,19,20
 128 1240 128 1240 146.5 1238 c 128,-1,21
 165 1236 165 1236 177 1220 c 0,22,23
 192 1202 192 1202 175 1151 c 0,24,25
 155 1095 155 1095 146.5 1021 c 128,-1,26
 138 947 138 947 145 888 c 2,27,-1
 155 820 l 1,28,-1
 276 747 l 2,29,30
 396 673 396 673 536 601 c 0,31,32
 602 567 602 567 637.5 544.5 c 128,-1,33
 673 522 673 522 691 500 c 128,-1,34
 709 478 709 478 708.5 458.5 c 128,-1,35
 708 439 708 439 693 412 c 0,36,37
 673 375 673 375 605.5 321.5 c 128,-1,38
 538 268 538 268 475 239 c 0,39,40
 416 213 416 213 365 227.5 c 128,-1,41
 314 242 314 242 260 303 c 0,42,43
 150 420 150 420 99 646 c 0,44,45
 70 767 70 767 58 782 c 0,46,47
 47 792 47 792 50.5 855 c 128,-1,48
 54 918 54 918 63.5 991.5 c 128,-1,49
 73 1065 73 1065 89 1134 c 128,-1,50
 105 1203 105 1203 119 1227 c 0,19,20
EndSplineSet
EndChar

StartChar: c
Encoding: 99 99 54
Width: 1007
GlyphClass: 1
Flags: W
LayerCount: 2
Fore
SplineSet
318 1079 m 0,0,1
 426 1174 426 1174 453 1170 c 0,2,3
 533 1158 533 1158 385 1028 c 0,4,5
 382 1025 382 1025 379 1022 c 0,6,7
 218 882 218 882 161 753 c 128,-1,8
 104 624 104 624 154 513 c 0,9,10
 164 490 164 490 185 463 c 128,-1,11
 206 436 206 436 226 421 c 256,12,13
 246 406 246 406 358 341.5 c 128,-1,14
 470 277 470 277 602 207 c 0,15,16
 735 136 735 136 838.5 76.5 c 128,-1,17
 942 17 942 17 949 8 c 0,18,19
 963 -12 963 -12 952.5 -31.5 c 128,-1,20
 942 -51 942 -51 917 -51 c 0,21,22
 895 -51 895 -51 545.5 139.5 c 128,-1,23
 196 330 196 330 165 359 c 0,24,25
 92 428 92 428 64 528 c 128,-1,26
 36 628 36 628 62 732 c 0,27,28
 79 803 79 803 149.5 899 c 128,-1,29
 220 995 220 995 318 1079 c 0,0,1
EndSplineSet
EndChar

StartChar: d
Encoding: 100 100 55
Width: 816
GlyphClass: 1
Flags: W
LayerCount: 2
Fore
SplineSet
227 440 m 0,0,1
 251 482 251 482 243 480 c 0,2,3
 229 476 229 476 170 388 c 2,4,-1
 138 341 l 1,5,-1
 171 371 l 2,6,7
 201 398 201 398 227 440 c 0,0,1
469 1351 m 0,8,9
 493 1375 493 1375 516 1358.5 c 128,-1,10
 539 1342 539 1342 547 1296 c 0,11,12
 562 1206 562 1206 544.5 1063.5 c 128,-1,13
 527 921 527 921 490 823 c 0,14,15
 479 795 479 795 485 795 c 0,16,17
 494 795 494 795 611 884 c 0,18,19
 727 972 727 972 754 951 c 0,20,21
 763 944 763 944 765 925 c 0,22,23
 767 909 767 909 731.5 875.5 c 128,-1,24
 696 842 696 842 593 762 c 2,25,-1
 414 625 l 1,26,-1
 351 500 l 2,27,28
 302 405 302 405 234 319 c 128,-1,29
 166 233 166 233 130 222 c 0,30,31
 96 211 96 211 73 230.5 c 128,-1,32
 50 250 50 250 50 290 c 0,33,34
 50 359 50 359 118.5 458 c 128,-1,35
 187 557 187 557 288 635 c 0,36,37
 333 668 333 668 350.5 695 c 128,-1,38
 368 722 368 722 394 795 c 0,39,40
 448 942 448 942 465.5 1089.5 c 128,-1,41
 483 1237 483 1237 456 1308 c 0,42,43
 453 1316 453 1316 456.5 1329 c 128,-1,44
 460 1342 460 1342 469 1351 c 0,8,9
EndSplineSet
EndChar

StartChar: e
Encoding: 101 101 56
Width: 1510
GlyphClass: 1
Flags: W
LayerCount: 2
Fore
SplineSet
388 1045 m 0,0,1
 375 1069 375 1069 349 1066.5 c 128,-1,2
 323 1064 323 1064 289 1034.5 c 128,-1,3
 255 1005 255 1005 232 962 c 0,4,5
 205 912 205 912 197.5 845.5 c 128,-1,6
 190 779 190 779 208 750 c 0,7,8
 223 727 223 727 292 818 c 0,9,10
 320 854 320 854 351 901 c 0,11,12
 384 953 384 953 392 983.5 c 128,-1,13
 400 1014 400 1014 388 1045 c 0,0,1
257.5 1121 m 128,-1,15
 293 1145 293 1145 347.5 1145 c 128,-1,16
 402 1145 402 1145 433 1122 c 0,17,18
 461 1100 461 1100 472.5 1059 c 128,-1,19
 484 1018 484 1018 474 976 c 0,20,21
 464 931 464 931 417 855 c 128,-1,22
 370 779 370 779 312 712 c 2,23,-1
 248 641 l 1,24,-1
 276 602 l 2,25,26
 308 557 308 557 367 509 c 128,-1,27
 426 461 426 461 485 433 c 0,28,29
 545 405 545 405 654.5 379.5 c 128,-1,30
 764 354 764 354 1074 295 c 0,31,32
 1394 234 1394 234 1433 218 c 0,33,34
 1458 209 1458 209 1459 193 c 0,35,36
 1460 191 1460 191 1460 187 c 0,37,38
 1460 176 1460 176 1454 166.5 c 128,-1,39
 1448 157 1448 157 1440 153 c 0,40,41
 1426 148 1426 148 1145 199 c 128,-1,42
 864 250 864 250 651 296 c 0,43,44
 403 351 403 351 252 504 c 0,45,46
 191 565 191 565 176 573.5 c 128,-1,47
 161 582 161 582 138 566 c 0,48,49
 119 554 119 554 106.5 553 c 128,-1,50
 94 552 94 552 78 561 c 0,51,52
 66 567 66 567 58 574.5 c 128,-1,53
 50 582 50 582 50 587 c 0,54,55
 50 598 50 598 71.5 619.5 c 128,-1,56
 93 641 93 641 116 654 c 0,57,58
 132 662 132 662 134.5 672.5 c 128,-1,59
 137 683 137 683 128 710 c 0,60,61
 117 753 117 753 117.5 821 c 128,-1,62
 118 889 118 889 130 934 c 0,63,64
 144 983 144 983 183 1040 c 128,-1,14
 222 1097 222 1097 257.5 1121 c 128,-1,15
EndSplineSet
EndChar

StartChar: f
Encoding: 102 102 57
Width: 1297
GlyphClass: 1
Flags: W
LayerCount: 2
Fore
SplineSet
652 1356 m 0,0,1
 747 1452 747 1452 793.5 1491.5 c 128,-1,2
 840 1531 840 1531 855 1529 c 0,3,4
 893 1523 893 1523 882 1493 c 0,5,6
 866 1452 866 1452 719 1302 c 0,7,8
 541 1118 541 1118 501 1060 c 0,9,10
 445 981 445 981 399.5 902 c 128,-1,11
 354 823 354 823 361 817 c 0,12,13
 363 815 363 815 421 825 c 128,-1,14
 479 835 479 835 579.5 854 c 128,-1,15
 680 873 680 873 791 896 c 0,16,17
 961 931 961 931 1092.5 955 c 128,-1,18
 1224 979 1224 979 1231 977 c 0,19,20
 1250 969 1250 969 1247 938 c 128,-1,21
 1244 907 1244 907 1224 901 c 0,22,23
 1220 900 1220 900 1156 887 c 128,-1,24
 1092 874 1092 874 975.5 850 c 128,-1,25
 859 826 859 826 751 804 c 2,26,-1
 301 714 l 1,27,-1
 268 607 l 2,28,29
 234 501 234 501 228 368 c 0,30,31
 223 232 223 232 202 218 c 0,32,33
 191 211 191 211 172 223 c 0,34,35
 146 240 146 240 149.5 376 c 128,-1,36
 153 512 153 512 182 601 c 0,37,38
 208 686 208 686 203 691 c 0,39,40
 197 697 197 697 140 678 c 0,41,42
 89 660 89 660 69.5 665 c 128,-1,43
 50 670 50 670 50 702 c 0,44,45
 50 723 50 723 66.5 733 c 128,-1,46
 83 743 83 743 148 763 c 2,47,-1
 248 792 l 1,48,-1
 291 872 l 2,49,50
 359 1005 359 1005 441.5 1114.5 c 128,-1,51
 524 1224 524 1224 652 1356 c 0,0,1
EndSplineSet
EndChar

StartChar: g
Encoding: 103 103 58
Width: 640
GlyphClass: 1
Flags: W
LayerCount: 2
Fore
SplineSet
341 1127 m 0,0,1
 403 1157 403 1157 435.5 1157 c 128,-1,2
 468 1157 468 1157 503 1127 c 0,3,4
 527 1106 527 1106 533.5 1087.5 c 128,-1,5
 540 1069 540 1069 540 1021 c 0,6,7
 540 975 540 975 544.5 960.5 c 128,-1,8
 549 946 549 946 563 946 c 0,9,10
 586 946 586 946 589 923 c 128,-1,11
 592 900 592 900 584 796 c 0,12,13
 577 703 577 703 547.5 580.5 c 128,-1,14
 518 458 518 458 383 -44 c 2,15,-1
 287 -403 l 1,16,-1
 242 -407 l 2,17,18
 218 -410 218 -410 209.5 -407 c 128,-1,19
 201 -404 201 -404 204 -394 c 0,20,21
 207 -385 207 -385 248 -235 c 128,-1,22
 289 -85 289 -85 347.5 131.5 c 128,-1,23
 406 348 406 348 450 514 c 0,24,25
 469 586 469 586 484.5 666 c 128,-1,26
 500 746 500 746 503 787 c 2,27,-1
 510 887 l 1,28,-1
 470 820 l 2,29,30
 383 678 383 678 284.5 542.5 c 128,-1,31
 186 407 186 407 166 404 c 0,32,33
 129 399 129 399 130 422 c 0,34,35
 132 462 132 462 253 646 c 0,36,37
 359 806 359 806 415.5 913.5 c 128,-1,38
 472 1021 472 1021 462 1046 c 0,39,40
 453 1070 453 1070 410.5 1064.5 c 128,-1,41
 368 1059 368 1059 325 1028 c 0,42,43
 264 984 264 984 199 888.5 c 128,-1,44
 134 793 134 793 134 748 c 0,45,46
 134 737 134 737 126.5 725 c 128,-1,47
 119 713 119 713 109 707 c 0,48,49
 83 693 83 693 75 695 c 128,-1,50
 67 697 67 697 56 719 c 0,51,52
 41 747 41 747 62 809 c 128,-1,53
 83 871 83 871 132 942 c 0,54,55
 181 1015 181 1015 227 1056 c 128,-1,56
 273 1097 273 1097 341 1127 c 0,0,1
EndSplineSet
EndChar

StartChar: h
Encoding: 104 104 59
Width: 1155
GlyphClass: 1
Flags: W
LayerCount: 2
Fore
SplineSet
127 1315 m 0,0,1
 142 1332 142 1332 158 1332 c 0,2,3
 183 1332 183 1332 190.5 1305.5 c 128,-1,4
 198 1279 198 1279 190 1219 c 0,5,6
 179 1131 179 1131 179 929 c 2,7,-1
 178 719 l 1,8,-1
 232 763 l 2,9,10
 270 794 270 794 292.5 800.5 c 128,-1,11
 315 807 315 807 383 806 c 0,12,13
 437 806 437 806 473.5 798.5 c 128,-1,14
 510 791 510 791 555 770 c 0,15,16
 616 742 616 742 854.5 598.5 c 128,-1,17
 1093 455 1093 455 1102 441 c 0,18,19
 1111 426 1111 426 1099 407 c 128,-1,20
 1087 388 1087 388 1069 388 c 0,21,22
 1058 388 1058 388 981 430 c 128,-1,23
 904 472 904 472 804 533 c 0,24,25
 624 641 624 641 527.5 687.5 c 128,-1,26
 431 734 431 734 383 734 c 0,27,28
 353 734 353 734 322.5 719 c 128,-1,29
 292 704 292 704 243 665 c 0,30,31
 199 630 199 630 159.5 630 c 128,-1,32
 120 630 120 630 105 665 c 0,33,34
 100 676 100 676 90.5 685 c 128,-1,35
 81 694 81 694 74 694 c 0,36,37
 62 694 62 694 56.5 702 c 128,-1,38
 51 710 51 710 50.5 736 c 128,-1,39
 50 762 50 762 54.5 804.5 c 128,-1,40
 59 847 59 847 70 923 c 0,41,42
 90 1066 90 1066 105 1206 c 0,43,44
 108 1243 108 1243 114.5 1275.5 c 128,-1,45
 121 1308 121 1308 127 1315 c 0,0,1
EndSplineSet
EndChar

StartChar: i
Encoding: 105 105 60
Width: 303
GlyphClass: 1
Flags: W
LayerCount: 2
Fore
SplineSet
187 651 m 0,0,1
 195 664 195 664 206 666 c 128,-1,2
 217 668 217 668 238 661 c 0,3,4
 249 656 249 656 251.5 591 c 128,-1,5
 254 526 254 526 252 324 c 0,6,7
 250 108 250 108 246 51.5 c 128,-1,8
 242 -5 242 -5 228 -8 c 0,9,10
 176 -20 176 -20 164 79 c 0,11,12
 158 137 158 137 167.5 386 c 128,-1,13
 177 635 177 635 187 651 c 0,0,1
54 1113 m 0,14,15
 59 1131 59 1131 68 1138.5 c 128,-1,16
 77 1146 77 1146 94 1146 c 0,17,18
 122 1146 122 1146 130 1130 c 128,-1,19
 138 1114 138 1114 129 1079 c 0,20,21
 122 1047 122 1047 91 1042 c 0,22,23
 65 1038 65 1038 55 1057.5 c 128,-1,24
 45 1077 45 1077 54 1113 c 0,14,15
EndSplineSet
EndChar

StartChar: j
Encoding: 106 106 61
Width: 662
GlyphClass: 1
Flags: W
LayerCount: 2
Fore
SplineSet
544 977 m 0,0,1
 551 989 551 989 569.5 985.5 c 128,-1,2
 588 982 588 982 601 966 c 0,3,4
 618 946 618 946 607.5 885 c 128,-1,5
 597 824 597 824 563 752 c 0,6,7
 548 721 548 721 491 636 c 128,-1,8
 434 551 434 551 367 461 c 0,9,10
 226 272 226 272 162 186 c 0,11,12
 141 155 141 155 118 137 c 128,-1,13
 95 119 95 119 77 119.5 c 128,-1,14
 59 120 59 120 52 139 c 0,15,16
 45 157 45 157 76.5 205 c 128,-1,17
 108 253 108 253 265 464 c 0,18,19
 427 683 427 683 473.5 759.5 c 128,-1,20
 520 836 520 836 530 904 c 0,21,22
 536 964 536 964 544 977 c 0,0,1
EndSplineSet
EndChar

StartChar: k
Encoding: 107 107 62
Width: 1330
GlyphClass: 1
Flags: W
LayerCount: 2
Fore
SplineSet
525 1060 m 0,0,1
 535 1063 535 1063 554 1069 c 0,2,3
 645 1100 645 1100 662.5 1102.5 c 128,-1,4
 680 1105 680 1105 692 1090 c 0,5,6
 694 1087 694 1087 695 1086 c 0,7,8
 717 1060 717 1060 696 1041.5 c 128,-1,9
 675 1023 675 1023 600 1000 c 0,10,11
 507 972 507 972 421.5 933 c 128,-1,12
 336 894 336 894 336 880 c 0,13,14
 336 862 336 862 389 836 c 128,-1,15
 442 810 442 810 509 795 c 0,16,17
 593 776 593 776 921 747 c 0,18,19
 1053 735 1053 735 1120 727.5 c 128,-1,20
 1187 720 1187 720 1228 710 c 128,-1,21
 1269 700 1269 700 1276 690 c 128,-1,22
 1283 680 1283 680 1277 662 c 0,23,24
 1270 641 1270 641 1194 641.5 c 128,-1,25
 1118 642 1118 642 855 667 c 0,26,27
 610 690 610 690 550.5 699 c 128,-1,28
 491 708 491 708 407 735 c 0,29,30
 257 784 257 784 257 885 c 0,31,32
 257 921 257 921 278.5 945.5 c 128,-1,33
 300 970 300 970 355 995.5 c 128,-1,34
 410 1021 410 1021 525 1060 c 0,0,1
52 1204 m 0,35,36
 59 1222 59 1222 83 1225 c 128,-1,37
 107 1228 107 1228 117 1212 c 0,38,39
 126 1194 126 1194 157 1016 c 0,40,41
 190 826 190 826 243 623 c 0,42,43
 266 536 266 536 280 468.5 c 128,-1,44
 294 401 294 401 291 393 c 0,45,46
 283 373 283 373 256 375.5 c 128,-1,47
 229 378 229 378 219 399 c 0,48,49
 196 442 196 442 151.5 631 c 128,-1,50
 107 820 107 820 75 1001 c 128,-1,51
 43 1182 43 1182 52 1204 c 0,35,36
EndSplineSet
EndChar

StartChar: l
Encoding: 108 108 63
Width: 407
GlyphClass: 1
Flags: W
LayerCount: 2
Fore
SplineSet
249 1283 m 0,0,1
 273 1338 273 1338 288 1361.5 c 128,-1,2
 303 1385 303 1385 316 1385 c 0,3,4
 383 1385 383 1385 341 1292 c 0,5,6
 212 1007 212 1007 162 711 c 0,7,8
 120 454 120 454 97 454 c 0,9,10
 78 454 78 454 64 469 c 128,-1,11
 50 484 50 484 50 504 c 0,12,13
 50 540 50 540 83 735 c 0,14,15
 108 881 108 881 143.5 997.5 c 128,-1,16
 179 1114 179 1114 249 1283 c 0,0,1
EndSplineSet
EndChar

StartChar: m
Encoding: 109 109 64
Width: 1522
GlyphClass: 1
Flags: W
LayerCount: 2
Fore
SplineSet
446 1315 m 0,0,1
 540 1350 540 1350 622 1311.5 c 128,-1,2
 704 1273 704 1273 745 1175 c 2,3,-1
 762 1134 l 1,4,-1
 837 1194 l 2,5,6
 911 1254 911 1254 964 1280 c 128,-1,7
 1017 1306 1017 1306 1066 1306 c 0,8,9
 1104 1306 1104 1306 1138.5 1282 c 128,-1,10
 1173 1258 1173 1258 1220.5 1199.5 c 128,-1,11
 1268 1141 1268 1141 1351 1020 c 0,12,13
 1468 848 1468 848 1472 807 c 0,14,15
 1475 781 1475 781 1445 776 c 0,16,17
 1429 774 1429 774 1399 809.5 c 128,-1,18
 1369 845 1369 845 1298 949 c 0,19,20
 1182 1121 1182 1121 1135 1173.5 c 128,-1,21
 1088 1226 1088 1226 1052 1226 c 0,22,23
 1024 1226 1024 1226 966.5 1188.5 c 128,-1,24
 909 1151 909 1151 846 1091 c 0,25,26
 812 1061 812 1061 775.5 1044.5 c 128,-1,27
 739 1028 739 1028 724 1037 c 0,28,29
 710 1046 710 1046 681 1113 c 0,30,31
 638 1211 638 1211 583 1238 c 128,-1,32
 528 1265 528 1265 448 1226 c 0,33,34
 378 1192 378 1192 285 1054 c 128,-1,35
 192 916 192 916 149 783 c 0,36,37
 137 749 137 749 115.5 728 c 128,-1,38
 94 707 94 707 69 707 c 0,39,40
 22 707 22 707 87 864 c 0,41,42
 243 1238 243 1238 446 1315 c 0,0,1
EndSplineSet
EndChar

StartChar: n
Encoding: 110 110 65
Width: 1142
GlyphClass: 1
Flags: W
LayerCount: 2
Fore
SplineSet
189 952 m 0,0,1
 248 974 248 974 352 972 c 128,-1,2
 456 970 456 970 532 945 c 0,3,4
 568 933 568 933 663 885 c 128,-1,5
 758 837 758 837 855 782 c 0,6,7
 962 721 962 721 1009.5 691 c 128,-1,8
 1057 661 1057 661 1074.5 645 c 128,-1,9
 1092 629 1092 629 1092 614 c 128,-1,10
 1092 599 1092 599 1085.5 589 c 128,-1,11
 1079 579 1079 579 1069 577 c 128,-1,12
 1059 575 1059 575 983.5 613 c 128,-1,13
 908 651 908 651 810 707 c 0,14,15
 607 822 607 822 505 859.5 c 128,-1,16
 403 897 403 897 307 891 c 0,17,18
 255 888 255 888 226.5 878.5 c 128,-1,19
 198 869 198 869 159 843 c 0,20,21
 108 807 108 807 81.5 805 c 128,-1,22
 55 803 55 803 50 836 c 0,23,24
 46 861 46 861 87.5 895.5 c 128,-1,25
 129 930 129 930 189 952 c 0,0,1
EndSplineSet
EndChar

StartChar: o
Encoding: 111 111 66
Width: 690
GlyphClass: 1
Flags: W
LayerCount: 2
Fore
SplineSet
377 1110 m 0,0,1
 429 1130 429 1130 472.5 1128 c 128,-1,2
 516 1126 516 1126 550.5 1111 c 128,-1,3
 585 1096 585 1096 606.5 1065 c 128,-1,4
 628 1034 628 1034 636 996 c 128,-1,5
 644 958 644 958 635.5 909 c 128,-1,6
 627 860 627 860 601 809 c 0,7,8
 582 771 582 771 568 747.5 c 128,-1,9
 554 724 554 724 533 701.5 c 128,-1,10
 512 679 512 679 492 665.5 c 128,-1,11
 472 652 472 652 435.5 635.5 c 128,-1,12
 399 619 399 619 360 606.5 c 128,-1,13
 321 594 321 594 256 574 c 0,14,15
 136 537 136 537 104 532 c 128,-1,16
 72 527 72 527 62 542 c 0,17,18
 43 569 43 569 57 584 c 0,19,20
 79 605 79 605 240 653 c 0,21,22
 272 662 272 662 323 677 c 0,23,24
 506 728 506 728 547 916 c 0,25,26
 556 953 556 953 550.5 978.5 c 128,-1,27
 545 1004 545 1004 532 1021 c 128,-1,28
 519 1038 519 1038 495.5 1043.5 c 128,-1,29
 472 1049 472 1049 445 1044.5 c 128,-1,30
 418 1040 418 1040 385.5 1022 c 128,-1,31
 353 1004 353 1004 321 976 c 0,32,33
 267 927 267 927 246 881 c 128,-1,34
 225 835 225 835 219 754 c 0,35,36
 214 696 214 696 208 678 c 128,-1,37
 202 660 202 660 186 657 c 0,38,39
 176 655 176 655 165.5 658.5 c 128,-1,40
 155 662 155 662 150 670 c 0,41,42
 137 689 137 689 138.5 763 c 128,-1,43
 140 837 140 837 154 885 c 0,44,45
 170 940 170 940 243.5 1014 c 128,-1,46
 317 1088 317 1088 377 1110 c 0,0,1
EndSplineSet
EndChar

StartChar: p
Encoding: 112 112 67
Width: 720
GlyphClass: 1
Flags: W
LayerCount: 2
Fore
SplineSet
525 962 m 0,0,1
 585 1000 585 1000 625 998 c 128,-1,2
 665 996 665 996 669 954 c 0,3,4
 672 931 672 931 660 911.5 c 128,-1,5
 648 892 648 892 608 855 c 0,6,7
 581 830 581 830 544.5 803 c 128,-1,8
 508 776 508 776 483 763 c 0,9,10
 445 745 445 745 427 725 c 128,-1,11
 409 705 409 705 388 657 c 0,12,13
 325 517 325 517 301 284 c 0,14,15
 289 164 289 164 279 149 c 0,16,17
 270 135 270 135 252 136.5 c 128,-1,18
 234 138 234 138 221 154 c 0,19,20
 199 181 199 181 230.5 373.5 c 128,-1,21
 262 566 262 566 306 670 c 0,22,23
 311 684 311 684 301 684 c 0,24,25
 290 683 290 683 225 659 c 0,26,27
 132 623 132 623 106 618 c 0,28,29
 77 613 77 613 61 627 c 128,-1,30
 45 641 45 641 52 665 c 0,31,32
 57 679 57 679 92.5 697.5 c 128,-1,33
 128 716 128 716 214 748 c 0,34,35
 317 786 317 786 350.5 805.5 c 128,-1,36
 384 825 384 825 416 865 c 0,37,38
 436 889 436 889 468 918 c 128,-1,39
 500 947 500 947 525 962 c 0,0,1
EndSplineSet
EndChar

StartChar: q
Encoding: 113 113 68
Width: 867
GlyphClass: 1
Flags: W
LayerCount: 2
Fore
SplineSet
415 1053 m 0,0,1
 375 1091 375 1091 284.5 1089.5 c 128,-1,2
 194 1088 194 1088 145 1049 c 0,3,4
 134 1040 134 1040 135 1035 c 128,-1,5
 136 1030 136 1030 150 1022 c 0,6,7
 159 1017 159 1017 192.5 1012.5 c 128,-1,8
 226 1008 226 1008 268.5 1005.5 c 128,-1,9
 311 1003 311 1003 352 1002 c 128,-1,10
 393 1001 393 1001 420.5 1002.5 c 128,-1,11
 448 1004 448 1004 448 1009 c 0,12,13
 448 1022 448 1022 415 1053 c 0,0,1
180 1159 m 0,14,15
 225 1173 225 1173 296 1170.5 c 128,-1,16
 367 1168 367 1168 406 1151 c 0,17,18
 454 1131 454 1131 491 1095.5 c 128,-1,19
 528 1060 528 1060 535 1026 c 0,20,21
 541 1000 541 1000 558 994 c 128,-1,22
 575 988 575 988 669 982 c 0,23,24
 670 982 670 982 670 982 c 2,25,26
 722 979 722 979 763.5 973 c 128,-1,27
 805 967 805 967 810 962 c 0,28,29
 824 949 824 949 814 920 c 0,30,31
 807 898 807 898 789 895.5 c 128,-1,32
 771 893 771 893 681 900 c 2,33,-1
 559 909 l 1,34,-1
 551 840 l 2,35,36
 548 812 548 812 535.5 770.5 c 128,-1,37
 523 729 523 729 509 700 c 0,38,39
 478 631 478 631 414.5 562 c 128,-1,40
 351 493 351 493 323 497 c 0,41,42
 270 504 270 504 304 561 c 0,43,44
 318 584 318 584 346 613 c 0,45,46
 454 725 454 725 470 845 c 0,47,48
 476 889 476 889 471.5 898 c 128,-1,49
 467 907 467 907 434 912 c 0,50,51
 389 919 389 919 274 924 c 0,52,53
 142 931 142 931 89.5 966 c 128,-1,54
 37 1001 37 1001 55 1070 c 0,55,56
 60 1093 60 1093 96.5 1119 c 128,-1,57
 133 1145 133 1145 180 1159 c 0,14,15
EndSplineSet
EndChar

StartChar: r
Encoding: 114 114 69
Width: 1001
GlyphClass: 1
Flags: W
LayerCount: 2
Fore
SplineSet
581 1077 m 0,0,1
 714 1208 714 1208 809.5 1296.5 c 128,-1,2
 905 1385 905 1385 914 1385 c 0,3,4
 934 1385 934 1385 950 1363 c 0,5,6
 958 1348 958 1348 899 1281.5 c 128,-1,7
 840 1215 840 1215 633 1006 c 0,8,9
 435 806 435 806 358.5 721.5 c 128,-1,10
 282 637 282 637 253 583 c 0,11,12
 190 469 190 469 168.5 399.5 c 128,-1,13
 147 330 147 330 141 222 c 0,14,15
 141 221 141 221 141 220 c 0,16,17
 135 123 135 123 129.5 106 c 128,-1,18
 124 89 124 89 100 89 c 0,19,20
 80 89 80 89 71.5 99 c 128,-1,21
 63 109 63 109 56 141 c 0,22,23
 42 195 42 195 59 302.5 c 128,-1,24
 76 410 76 410 112 494 c 0,25,26
 163 616 163 616 251 725 c 128,-1,27
 339 834 339 834 581 1077 c 0,0,1
EndSplineSet
EndChar

StartChar: s
Encoding: 115 115 70
Width: 446
GlyphClass: 1
Flags: W
LayerCount: 2
Fore
SplineSet
196 1235 m 0,0,1
 269 1306 269 1306 300 1306 c 0,2,3
 346 1306 346 1306 344 1275 c 0,4,5
 341 1239 341 1239 279 1195 c 0,6,7
 225 1157 225 1157 178.5 1088 c 128,-1,8
 132 1019 132 1019 132 976 c 0,9,10
 132 929 132 929 154.5 893.5 c 128,-1,11
 177 858 177 858 264 767 c 0,12,13
 350 678 350 678 377 617 c 128,-1,14
 404 556 404 556 392 478 c 0,15,16
 382 418 382 418 247 82 c 128,-1,17
 112 -254 112 -254 95 -260 c 0,18,19
 88 -263 88 -263 77 -259.5 c 128,-1,20
 66 -256 66 -256 58 -248 c 0,21,22
 53 -243 53 -243 51.5 -236.5 c 128,-1,23
 50 -230 50 -230 53 -213.5 c 128,-1,24
 56 -197 56 -197 62.5 -176 c 128,-1,25
 69 -155 69 -155 84.5 -113.5 c 128,-1,26
 100 -72 100 -72 119 -23.5 c 128,-1,27
 138 25 138 25 170 103 c 0,28,29
 304 443 304 443 309 476 c 0,30,31
 320 535 320 535 294 588 c 128,-1,32
 268 641 268 641 187 726 c 0,33,34
 95 822 95 822 72.5 860.5 c 128,-1,35
 50 899 50 899 50 960 c 0,36,37
 50 1023 50 1023 89 1096 c 128,-1,38
 128 1169 128 1169 196 1235 c 0,0,1
EndSplineSet
EndChar

StartChar: t
Encoding: 116 116 71
Width: 1183
GlyphClass: 1
Flags: W
LayerCount: 2
Fore
SplineSet
691 1383 m 0,0,1
 696 1397 696 1397 713 1397.5 c 128,-1,2
 730 1398 730 1398 751 1385 c 0,3,4
 758 1381 758 1381 758.5 1370 c 128,-1,5
 759 1359 759 1359 751 1325.5 c 128,-1,6
 743 1292 743 1292 727.5 1243.5 c 128,-1,7
 712 1195 712 1195 682 1103 c 0,8,9
 593 835 593 835 597 831 c 0,10,11
 600 827 600 827 789.5 844.5 c 128,-1,12
 979 862 979 862 1060 873 c 0,13,14
 1091 877 1091 877 1103 873 c 128,-1,15
 1115 869 1115 869 1125 851 c 0,16,17
 1134 834 1134 834 1133 825 c 128,-1,18
 1132 816 1132 816 1120 807 c 0,19,20
 1110 801 1110 801 1024.5 789 c 128,-1,21
 939 777 939 777 831 767 c 0,22,23
 800 764 800 764 749 760 c 0,24,25
 711 756 711 756 694.5 755 c 128,-1,26
 678 754 678 754 652 750 c 128,-1,27
 626 746 626 746 617 745 c 128,-1,28
 608 744 608 744 591 736.5 c 128,-1,29
 574 729 574 729 570 726.5 c 128,-1,30
 566 724 566 724 555.5 711.5 c 128,-1,31
 545 699 545 699 543.5 692.5 c 128,-1,32
 542 686 542 686 535 666.5 c 128,-1,33
 528 647 528 647 525.5 634.5 c 128,-1,34
 523 622 523 622 516 594 c 0,35,36
 508 556 508 556 503 534 c 0,37,38
 467 383 467 383 441 368 c 0,39,40
 428 360 428 360 409 377 c 0,41,42
 399 389 399 389 397.5 403 c 128,-1,43
 396 417 396 417 401 446 c 128,-1,44
 406 475 406 475 424 550 c 0,45,46
 459 696 459 696 468 719 c 0,47,48
 473 732 473 732 458 732 c 0,49,50
 449 732 449 732 425 728 c 0,51,52
 379 719 379 719 246.5 718.5 c 128,-1,53
 114 718 114 718 88 727 c 0,54,55
 77 730 77 730 67 738.5 c 128,-1,56
 57 747 57 747 54 756 c 0,57,58
 48 773 48 773 51.5 783 c 128,-1,59
 55 793 55 793 73 799 c 128,-1,60
 91 805 91 805 125.5 805.5 c 128,-1,61
 160 806 160 806 215 804 c 0,62,63
 356 797 356 797 431 809 c 2,64,-1
 503 820 l 1,65,-1
 594 1093 l 2,66,67
 682 1361 682 1361 691 1383 c 0,0,1
EndSplineSet
EndChar

StartChar: u
Encoding: 117 117 72
Width: 1329
GlyphClass: 1
Flags: W
LayerCount: 2
Fore
SplineSet
868 1185 m 0,0,1
 1226 1396 1226 1396 1243 1399 c 0,2,3
 1259 1399 1259 1399 1272 1374.5 c 128,-1,4
 1285 1350 1285 1350 1276 1337 c 0,5,6
 1268 1326 1268 1326 934 1127.5 c 128,-1,7
 600 929 600 929 522 889 c 0,8,9
 349 804 349 804 231 820 c 0,10,11
 151 830 151 830 100.5 868.5 c 128,-1,12
 50 907 50 907 50 957 c 0,13,14
 50 974 50 974 63 984 c 128,-1,15
 76 994 76 994 92 991 c 128,-1,16
 108 988 108 988 116 972 c 0,17,18
 146 916 146 916 245 905 c 128,-1,19
 344 894 344 894 436 937 c 0,20,21
 468 952 468 952 598 1026.5 c 128,-1,22
 728 1101 728 1101 868 1185 c 0,0,1
EndSplineSet
EndChar

StartChar: v
Encoding: 118 118 73
Width: 916
GlyphClass: 1
Flags: W
LayerCount: 2
Fore
SplineSet
573 1369 m 0,0,1
 576 1373 576 1373 580 1379 c 0,2,3
 719 1571 719 1571 749 1604 c 128,-1,4
 779 1637 779 1637 817 1638 c 0,5,6
 866 1638 866 1638 866 1631 c 0,7,8
 866 1622 866 1622 684 1371 c 128,-1,9
 502 1120 502 1120 443 1049 c 0,10,11
 330 910 330 910 238 880.5 c 128,-1,12
 146 851 146 851 95 936 c 0,13,14
 63 987 63 987 53.5 1031 c 128,-1,15
 44 1075 44 1075 60 1091 c 0,16,17
 81 1112 81 1112 100.5 1099.5 c 128,-1,18
 120 1087 120 1087 134 1044 c 0,19,20
 162 960 162 960 201 958 c 0,21,22
 251 956 251 956 365 1093 c 0,23,24
 439 1182 439 1182 573 1369 c 0,0,1
EndSplineSet
EndChar

StartChar: w
Encoding: 119 119 74
Width: 1342
GlyphClass: 1
Flags: W
LayerCount: 2
Fore
SplineSet
1054 949 m 0,0,1
 1131 1025 1131 1025 1192 1078.5 c 128,-1,2
 1253 1132 1253 1132 1260 1130 c 0,3,4
 1275 1125 1275 1125 1289 1101 c 0,5,6
 1298 1086 1298 1086 1265.5 1047 c 128,-1,7
 1233 1008 1233 1008 1109 887 c 0,8,9
 1016 796 1016 796 964.5 750 c 128,-1,10
 913 704 913 704 866 675.5 c 128,-1,11
 819 647 819 647 786 641 c 128,-1,12
 753 635 753 635 703 638 c 0,13,14
 676 640 676 640 622 687 c 128,-1,15
 568 734 568 734 538 782 c 0,16,17
 527 800 527 800 514.5 813.5 c 128,-1,18
 502 827 502 827 495 827 c 0,19,20
 483 827 483 827 394 792 c 0,21,22
 343 771 343 771 311.5 765.5 c 128,-1,23
 280 760 280 760 237 764 c 0,24,25
 185 769 185 769 138 792 c 128,-1,26
 91 815 91 815 67 845 c 128,-1,27
 43 875 43 875 53 901 c 0,28,29
 61 921 61 921 83.5 918.5 c 128,-1,30
 106 916 106 916 136 893 c 0,31,32
 254 802 254 802 438 896 c 0,33,34
 489 922 489 922 521.5 912 c 128,-1,35
 554 902 554 902 591 848 c 0,36,37
 631 791 631 791 674 755.5 c 128,-1,38
 717 720 717 720 747 720 c 0,39,40
 792 720 792 720 851.5 764.5 c 128,-1,41
 911 809 911 809 1054 949 c 0,0,1
EndSplineSet
EndChar

StartChar: x
Encoding: 120 120 75
Width: 1228
GlyphClass: 1
Flags: W
LayerCount: 2
Fore
SplineSet
1037 1093 m 0,0,1
 1093 1117 1093 1117 1117 1105 c 0,2,3
 1140 1093 1140 1093 1140 1085 c 0,4,5
 1140 1072 1140 1072 1124.5 1049 c 128,-1,6
 1109 1026 1109 1026 1101 1026 c 0,7,8
 1085 1026 1085 1026 988 963 c 128,-1,9
 891 900 891 900 802.5 834.5 c 128,-1,10
 714 769 714 769 720 763 c 0,11,12
 730 757 730 757 950 683 c 0,13,14
 1028 656 1028 656 1068 642 c 128,-1,15
 1108 628 1108 628 1134.5 615.5 c 128,-1,16
 1161 603 1161 603 1168.5 595 c 128,-1,17
 1176 587 1176 587 1178 577 c 0,18,19
 1182 549 1182 549 1162 540 c 0,20,21
 1154 536 1154 536 1071.5 558.5 c 128,-1,22
 989 581 989 581 886 614 c 2,23,-1
 631 696 l 1,24,-1
 497 565 l 2,25,26
 213 288 213 288 156.5 239 c 128,-1,27
 100 190 100 190 78 202 c 0,28,29
 66 208 66 208 58 217.5 c 128,-1,30
 50 227 50 227 50 234 c 256,31,32
 50 241 50 241 123.5 317 c 128,-1,33
 197 393 197 393 304 496 c 0,34,35
 505 689 505 689 530 724 c 0,36,37
 546 747 546 747 533 756 c 0,38,39
 344 891 344 891 270 952 c 128,-1,40
 196 1013 196 1013 199 1032 c 0,41,42
 208 1095 208 1095 316 1021 c 0,43,44
 332 1010 332 1010 349 997 c 0,45,46
 448 924 448 924 533 864 c 2,47,-1
 625 802 l 1,48,-1
 724 881 l 2,49,50
 934 1046 934 1046 1037 1093 c 0,0,1
EndSplineSet
EndChar

StartChar: y
Encoding: 121 121 76
Width: 1584
GlyphClass: 1
Flags: W
LayerCount: 2
Fore
SplineSet
1317 1054 m 0,0,1
 1405 1134 1405 1134 1440.5 1159.5 c 128,-1,2
 1476 1185 1476 1185 1496 1183 c 0,3,4
 1509 1181 1509 1181 1520.5 1175 c 128,-1,5
 1532 1169 1532 1169 1534 1163 c 0,6,7
 1537 1156 1537 1156 1506.5 1122 c 128,-1,8
 1476 1088 1476 1088 1429 1044 c 0,9,10
 1162 795 1162 795 1009.5 628.5 c 128,-1,11
 857 462 857 462 558 95 c 0,12,13
 237 -298 237 -298 182 -355 c 0,14,15
 138 -402 138 -402 111 -406 c 0,16,17
 107 -407 107 -407 99 -407 c 0,18,19
 84 -409 84 -409 73 -408 c 128,-1,20
 62 -407 62 -407 55.5 -405 c 128,-1,21
 49 -403 49 -403 50 -399 c 0,22,23
 61 -374 61 -374 478.5 132 c 128,-1,24
 896 638 896 638 972 718 c 0,25,26
 1003 749 1003 749 1030 779 c 128,-1,27
 1057 809 1057 809 1071.5 826.5 c 128,-1,28
 1086 844 1086 844 1085 845 c 0,29,30
 1082 848 1082 848 860 865 c 0,31,32
 557 887 557 887 411.5 912.5 c 128,-1,33
 266 938 266 938 248 972 c 0,34,35
 234 998 234 998 249 1013 c 128,-1,36
 264 1028 264 1028 296 1022 c 0,37,38
 339 1014 339 1014 441 996 c 0,39,40
 549 976 549 976 820 954 c 0,41,42
 1066 935 1066 935 1133 927 c 0,43,44
 1159 923 1159 923 1189.5 944 c 128,-1,45
 1220 965 1220 965 1317 1054 c 0,0,1
EndSplineSet
EndChar

StartChar: z
Encoding: 122 122 77
Width: 1454
GlyphClass: 1
Flags: W
LayerCount: 2
Fore
SplineSet
55 860 m 0,0,1
 64 886 64 886 118.5 881 c 128,-1,2
 173 876 173 876 202 847 c 0,3,4
 235 815 235 815 234 768 c 128,-1,5
 233 721 233 721 196 634 c 0,6,7
 156 545 156 545 156 537 c 0,8,9
 156 534 156 534 206 510 c 0,10,11
 238 497 238 497 304 494 c 128,-1,12
 370 491 370 491 581 494 c 0,13,14
 881 501 881 501 1153 501 c 0,15,16
 1362 501 1362 501 1386 494 c 0,17,18
 1401 490 1401 490 1403 475 c 0,19,20
 1403 473 1403 473 1403 472 c 0,21,22
 1405 455 1405 455 1399.5 447 c 128,-1,23
 1394 439 1394 439 1377 436 c 0,24,25
 1348 429 1348 429 841 415 c 0,26,27
 711 411 711 411 624 409 c 128,-1,28
 537 407 537 407 455.5 407.5 c 128,-1,29
 374 408 374 408 325.5 410 c 128,-1,30
 277 412 277 412 233 418 c 128,-1,31
 189 424 189 424 166.5 431.5 c 128,-1,32
 144 439 144 439 125.5 453 c 128,-1,33
 107 467 107 467 98.5 482 c 128,-1,34
 90 497 90 497 84 520 c 0,35,36
 76 547 76 547 82 574.5 c 128,-1,37
 88 602 88 602 115 667 c 0,38,39
 133 710 133 710 143 745.5 c 128,-1,40
 153 781 153 781 149 786 c 0,41,42
 146 791 146 791 131.5 795.5 c 128,-1,43
 117 800 117 800 101 800 c 0,44,45
 70 800 70 800 57 817 c 128,-1,46
 44 834 44 834 55 860 c 0,0,1
EndSplineSet
EndChar

StartChar: "+IBgA"
Encoding: 8216 8216 78
Width: 224
GlyphClass: 1
Flags: W
LayerCount: 2
Fore
SplineSet
58 1085 m 0,0,1
 68 1095 68 1095 95 1090 c 0,2,3
 122 1086 122 1086 126 1046 c 0,4,5
 132 1001 132 1001 156 901 c 0,6,7
 199 734 199 734 142 748 c 0,8,9
 131 750 131 750 118 759 c 0,10,11
 105 767 105 767 89 815.5 c 128,-1,12
 73 864 73 864 63.5 920 c 128,-1,13
 54 976 54 976 50.5 1025.5 c 128,-1,14
 47 1075 47 1075 58 1085 c 0,0,1
EndSplineSet
EndChar

StartChar: "+IBkA"
Encoding: 8217 8217 79
Width: 413
GlyphClass: 1
Flags: W
LayerCount: 2
Fore
SplineSet
52 1001 m 0,0,1
 56 1011 56 1011 66 1018.5 c 128,-1,2
 76 1026 76 1026 86 1026 c 0,3,4
 106 1026 106 1026 117 1008 c 128,-1,5
 128 990 128 990 157 907 c 0,6,7
 166 881 166 881 199.5 819 c 128,-1,8
 233 757 233 757 271 696 c 0,9,10
 339 587 339 587 355.5 544 c 128,-1,11
 372 501 372 501 351 488 c 0,12,13
 327 473 327 473 295.5 506.5 c 128,-1,14
 264 540 264 540 195 651 c 0,15,16
 122 772 122 772 82 869.5 c 128,-1,17
 42 967 42 967 52 1001 c 0,0,1
EndSplineSet
EndChar

StartChar: "+IBwA"
Encoding: 8220 8220 80
Width: 735
GlyphClass: 1
Flags: W
LayerCount: 2
Fore
SplineSet
565 1032 m 0,0,1
 576 1042 576 1042 595 1036 c 128,-1,2
 614 1030 614 1030 622 1013 c 0,3,4
 634 989 634 989 655 867 c 0,5,6
 680 739 680 739 684 727 c 0,7,8
 689 714 689 714 671 688 c 0,9,10
 660 673 660 673 651 671 c 128,-1,11
 642 669 642 669 627 678 c 0,12,13
 613 686 613 686 596 738 c 128,-1,14
 579 790 579 790 568.5 851 c 128,-1,15
 558 912 558 912 555 966 c 128,-1,16
 552 1020 552 1020 565 1032 c 0,0,1
121 1056 m 0,17,18
 156 1079 156 1079 183 1046 c 0,19,20
 193 1034 193 1034 191 1022 c 128,-1,21
 189 1010 189 1010 172 984 c 0,22,23
 158 959 158 959 150.5 918.5 c 128,-1,24
 143 878 143 878 136 794 c 0,25,26
 134 734 134 734 128 687.5 c 128,-1,27
 122 641 122 641 117 637 c 0,28,29
 113 632 113 632 101 631 c 128,-1,30
 89 630 89 630 77 634 c 0,31,32
 55 641 55 641 52 662.5 c 128,-1,33
 49 684 49 684 53 792 c 0,34,35
 63 1019 63 1019 121 1056 c 0,17,18
EndSplineSet
EndChar

StartChar: "+IB0A"
Encoding: 8221 8221 81
Width: 807
GlyphClass: 1
Flags: W
LayerCount: 2
Fore
SplineSet
59 1046 m 0,0,1
 80 1071 80 1071 100 1061 c 128,-1,2
 120 1051 120 1051 128 1013 c 0,3,4
 170 796 170 796 179.5 721 c 128,-1,5
 189 646 189 646 175 631 c 0,6,7
 133 589 133 589 104 680 c 0,8,9
 98 699 98 699 92 724 c 0,10,11
 29 1010 29 1010 59 1046 c 0,0,1
670 1050 m 128,-1,13
 684 1076 684 1076 705 1078 c 128,-1,14
 726 1080 726 1080 738.5 1059.5 c 128,-1,15
 751 1039 751 1039 744 1009 c 0,16,17
 735 978 735 978 749 880 c 0,18,19
 762 784 762 784 755 766 c 256,20,21
 748 748 748 748 724.5 747.5 c 128,-1,22
 701 747 701 747 687 764 c 0,23,24
 670 784 670 784 663 904 c 128,-1,12
 656 1024 656 1024 670 1050 c 128,-1,13
EndSplineSet
EndChar

StartChar: plus
Encoding: 43 43 82
Width: 2048
Flags: W
LayerCount: 2
Fore
SplineSet
1417.9256854 975.652930487 m 0,0,1
 1364.4929483 975.652930487 1364.4929483 975.652930487 1258.98947034 982.372229619 c 128,-1,2
 1153.48599238 989.091528751 1153.48599238 989.091528751 1101.14669711 989.091528751 c 0,3,4
 1100.84750928 989.091528751 1100.84750928 989.091528751 1095.86347722 988.319872123 c 128,-1,5
 1090.87944516 987.548215494 1090.87944516 987.548215494 1072.20878883 986.776558865 c 128,-1,6
 1053.5381325 986.004902236 1053.5381325 986.004902236 1020 986.004902236 c 2,7,-1
 642 986.004902236 l 2,8,9
 631.653622963 986.004902236 631.653622963 986.004902236 624.3292626 993.3292626 c 128,-1,10
 617.004902236 1000.65362296 617.004902236 1000.65362296 617.004902236 1011 c 128,-1,11
 617.004902236 1021.34637704 617.004902236 1021.34637704 624.3292626 1028.6707374 c 128,-1,12
 631.653622963 1035.99509776 631.653622963 1035.99509776 642 1035.99509776 c 2,13,-1
 1018.9810528 1035.99509776 l 2,14,15
 1057.64816922 1039.1063962 1057.64816922 1039.1063962 1101.52047921 1039.1063962 c 0,16,17
 1154.89997522 1039.1063962 1154.89997522 1039.1063962 1260.4410792 1032.38079773 c 128,-1,18
 1365.98218318 1025.65519927 1365.98218318 1025.65519927 1418.2717256 1025.65519927 c 0,19,20
 1424.62404119 1025.65519927 1424.62404119 1025.65519927 1431.04510463 1025.7291601 c 128,-1,21
 1437.46616806 1025.80312093 1437.46616806 1025.80312093 1442.67870538 1025.92139309 c 128,-1,22
 1447.89124269 1026.03966525 1447.89124269 1026.03966525 1452.68698538 1026.18269963 c 128,-1,23
 1457.48272806 1026.32573401 1457.48272806 1026.32573401 1461.08218982 1026.46876839 c 128,-1,24
 1464.68165157 1026.61180277 1464.68165157 1026.61180277 1467.34559038 1026.73007494 c 128,-1,25
 1470.00952918 1026.8483471 1470.00952918 1026.8483471 1471.48943224 1026.92230793 c 128,-1,26
 1472.96933529 1026.99626876 1472.96933529 1026.99626876 1473.02817293 1026.99626876 c 0,27,28
 1483.37465427 1026.99626876 1483.37465427 1026.99626876 1490.69908847 1019.67183456 c 128,-1,29
 1498.02352267 1012.34740036 1498.02352267 1012.34740036 1498.02352267 1002.00091902 c 0,30,31
 1498.02352267 992.003978938 1498.02352267 992.003978938 1491.13052528 984.776886328 c 128,-1,32
 1484.23752789 977.549793717 1484.23752789 977.549793717 1474.29609428 977.038274446 c 0,33,34
 1447.4138757 975.652930487 1447.4138757 975.652930487 1417.9256854 975.652930487 c 0,0,1
935.001083932 1253.99721006 m 0,35,36
 935.001083932 1264.34426886 935.001083932 1264.34426886 942.325926932 1271.66911186 c 128,-1,37
 949.650769933 1278.99395486 949.650769933 1278.99395486 959.997828741 1278.99395486 c 0,38,39
 969.427322751 1278.99395486 969.427322751 1278.99395486 976.472625788 1272.79070115 c 128,-1,40
 983.517928826 1266.58744744 983.517928826 1266.58744744 984.766698689 1257.38355104 c 0,41,42
 1066.00076727 658.658378895 1066.00076727 658.658378895 1066.00076727 656.95156003 c 0,43,44
 1066.00076727 646.604501221 1066.00076727 646.604501221 1058.67592427 639.279658221 c 128,-1,45
 1051.35108127 631.954815221 1051.35108127 631.954815221 1041.00402246 631.954815221 c 0,46,47
 1031.57026226 631.954815221 1031.57026226 631.954815221 1024.52656561 638.166569289 c 128,-1,48
 1017.48286897 644.378323357 1017.48286897 644.378323357 1016.23330131 653.616448958 c 0,49,50
 935.001083932 1252.32797705 935.001083932 1252.32797705 935.001083932 1253.99721006 c 0,35,36
EndSplineSet
EndChar

StartChar: asterisk
Encoding: 42 42 83
Width: 2048
LayerCount: 2
Fore
SplineSet
1247.0349296 1372.02509746 m 0,0,1
 1257.38394675 1372.02509746 1257.38394675 1372.02509746 1264.71017609 1364.69886812 c 128,-1,2
 1272.03640543 1357.37263878 1272.03640543 1357.37263878 1272.03640543 1347.02362164 c 0,3,4
 1272.03640543 1335.27032589 1272.03640543 1335.27032589 1262.92515818 1327.72660506 c 2,5,-1
 704.925158182 865.726605057 l 2,6,7
 697.99693062 859.990330624 697.99693062 859.990330624 688.996503468 859.990330624 c 0,8,9
 678.64748632 859.990330624 678.64748632 859.990330624 671.32125698 867.316559963 c 128,-1,10
 663.995027641 874.642789303 663.995027641 874.642789303 663.995027641 884.991806451 c 0,11,12
 663.995027641 896.738354915 663.995027641 896.738354915 673.074841818 904.273394943 c 2,13,-1
 1231.07484182 1366.27339494 l 2,14,15
 1238.04216531 1372.02509746 1238.04216531 1372.02509746 1247.0349296 1372.02509746 c 0,0,1
715.005165374 1355.99594255 m 0,16,17
 715.005165374 1366.34596308 715.005165374 1366.34596308 722.332105018 1373.67290272 c 128,-1,18
 729.659044662 1380.99984236 729.659044662 1380.99984236 740.009065186 1380.99984236 c 0,19,20
 747.614513445 1380.99984236 747.614513445 1380.99984236 753.911309771 1376.77668981 c 2,21,-1
 1500.94339288 875.755172223 l 2,22,23
 1512.0450481 868.309483777 1512.0450481 868.309483777 1512.0450481 854.974424967 c 0,24,25
 1512.0450481 844.624404443 1512.0450481 844.624404443 1504.71810846 837.297464799 c 128,-1,26
 1497.39116882 829.970525154 1497.39116882 829.970525154 1487.04114829 829.970525154 c 0,27,28
 1479.43918067 829.970525154 1479.43918067 829.970525154 1473.08869023 834.223310192 c 2,29,-1
 726.056607124 1335.24482778 l 2,30,31
 715.005165374 1342.66356836 715.005165374 1342.66356836 715.005165374 1355.99594255 c 0,16,17
794.005052072 1120.99991624 m 2,32,33
 783.659121533 1120.99991624 783.659121533 1120.99991624 776.334468794 1128.32653405 c 128,-1,34
 769.009816055 1135.65315185 769.009816055 1135.65315185 769.009816055 1146.00000752 c 128,-1,35
 769.009816055 1156.20845067 769.009816055 1156.20845067 776.162018357 1163.49692322 c 128,-1,36
 783.314220659 1170.78539577 783.314220659 1170.78539577 793.493845141 1170.99001134 c 0,37,38
 1390.75687501 1182.99529837 1390.75687501 1182.99529837 1391.01263552 1182.99529837 c 0,39,40
 1401.35902856 1182.99529837 1401.35902856 1182.99529837 1408.68340025 1175.67092668 c 128,-1,41
 1416.00777194 1168.34655499 1416.00777194 1168.34655499 1416.00777194 1158.00016195 c 128,-1,42
 1416.00777194 1147.79035012 1416.00777194 1147.79035012 1408.85268816 1140.50252694 c 128,-1,43
 1401.69760438 1133.21470376 1401.69760438 1133.21470376 1391.50615486 1133.00998866 c 2,44,-1
 794.005052072 1120.99991624 l 2,32,33
915.996838177 1317.00697687 m 0,45,46
 915.996838177 1327.35458189 915.996838177 1327.35458189 923.32206785 1334.67981156 c 128,-1,47
 930.647297524 1342.00504124 930.647297524 1342.00504124 940.994902546 1342.00504124 c 0,48,49
 950.08257202 1342.00504124 950.08257202 1342.00504124 956.999865871 1336.20438103 c 128,-1,50
 963.917159722 1330.40372082 963.917159722 1330.40372082 965.562965267 1321.64378808 c 0,51,52
 1059.0034662 824.299186345 1059.0034662 824.299186345 1059.0034662 821.951093575 c 0,53,54
 1059.0034662 811.603488553 1059.0034662 811.603488553 1051.67823653 804.27825888 c 128,-1,55
 1044.35300685 796.953029206 1044.35300685 796.953029206 1034.00540183 796.953029206 c 0,56,57
 1024.91399544 796.953029206 1024.91399544 796.953029206 1017.99816715 802.760754961 c 128,-1,58
 1011.08233886 808.568480716 1011.08233886 808.568480716 1009.43703473 817.356211916 c 0,59,60
 915.996838177 1315.06827929 915.996838177 1315.06827929 915.996838177 1317.00697687 c 0,45,46
EndSplineSet
EndChar

StartChar: slash
Encoding: 47 47 84
Width: 2048
LayerCount: 2
Fore
SplineSet
622.965323973 544.975103176 m 0,0,1
 612.616320084 544.975103176 612.616320084 544.975103176 605.290100132 552.301323129 c 128,-1,2
 597.963880179 559.627543081 597.963880179 559.627543081 597.963880179 569.97654697 c 0,3,4
 597.963880179 581.710155695 597.963880179 581.710155695 607.049997642 589.252798076 c 2,5,-1
 1543.04999764 1366.25279808 l 2,6,7
 1549.98498599 1372.00972751 1549.98498599 1372.00972751 1559.00355511 1372.00972751 c 0,8,9
 1569.352559 1372.00972751 1569.352559 1372.00972751 1576.67877895 1364.68350756 c 128,-1,10
 1584.0049989 1357.3572876 1584.0049989 1357.3572876 1584.0049989 1347.00828372 c 0,11,12
 1584.0049989 1335.28146253 1584.0049989 1335.28146253 1574.95000236 1327.74720192 c 2,13,-1
 638.950002358 550.747201924 l 2,14,15
 631.976197639 544.975103176 631.976197639 544.975103176 622.965323973 544.975103176 c 0,0,1
EndSplineSet
EndChar

StartChar: less
Encoding: 60 60 85
Width: 2048
LayerCount: 2
Fore
SplineSet
1088.03333107 1288.02290136 m 0,0,1
 1098.3835483 1288.02290136 1098.3835483 1288.02290136 1105.7106272 1280.69582246 c 128,-1,2
 1113.0377061 1273.36874356 1113.0377061 1273.36874356 1113.0377061 1263.01852632 c 0,3,4
 1113.0377061 1246.81159329 1113.0377061 1246.81159329 1098.22800685 1240.18318918 c 0,5,6
 1042.97908351 1215.45532779 1042.97908351 1215.45532779 921.023010202 1168.24081584 c 0,7,8
 847.497057527 1139.77571461 847.497057527 1139.77571461 804.782043465 1122.43406003 c 128,-1,9
 762.067029404 1105.09240545 762.067029404 1105.09240545 697.546503057 1075.36398714 c 128,-1,10
 633.025976711 1045.63556884 633.025976711 1045.63556884 590.917715934 1020.23626292 c 128,-1,11
 548.809455158 994.83695699 548.809455158 994.83695699 503.905805648 959.660150323 c 128,-1,12
 459.002156138 924.483343657 459.002156138 924.483343657 428.112099154 886.841315104 c 1,13,14
 459.281715016 856.639652773 459.281715016 856.639652773 500.366830639 832.289339317 c 128,-1,15
 541.451946263 807.939025861 541.451946263 807.939025861 578.150495446 792.740628503 c 128,-1,16
 614.84904463 777.542231145 614.84904463 777.542231145 669.435027804 763.359063998 c 128,-1,17
 724.021010978 749.175896851 724.021010978 749.175896851 759.211249227 742.206022793 c 128,-1,18
 794.401487476 735.236148735 794.401487476 735.236148735 855.451093944 724.445386225 c 0,19,20
 943.817216799 708.826320013 943.817216799 708.826320013 985.551462508 699.37499277 c 0,21,22
 993.984660705 697.465172321 993.984660705 697.465172321 999.499280022 690.648601892 c 128,-1,23
 1005.01389934 683.832031463 1005.01389934 683.832031463 1005.01389934 674.99217474 c 0,24,25
 1005.01389934 664.644115613 1005.01389934 664.644115613 997.688348199 657.318564472 c 128,-1,26
 990.362797057 649.993013331 990.362797057 649.993013331 980.01473793 649.993013331 c 0,27,28
 979.716512472 649.993013331 979.716512472 649.993013331 966.009521335 652.791557398 c 128,-1,29
 952.302530197 655.590101465 952.302530197 655.590101465 918.963670862 661.965831383 c 128,-1,30
 885.624811526 668.341561301 885.624811526 668.341561301 846.694900464 675.222579035 c 0,31,32
 789.541800609 685.324618391 789.541800609 685.324618391 759.412043787 691.244129944 c 128,-1,33
 729.282286964 697.163641496 729.282286964 697.163641496 677.293130645 709.144183452 c 128,-1,34
 625.303974326 721.124725408 625.303974326 721.124725408 591.373106403 734.156918847 c 128,-1,35
 557.442238481 747.189112286 557.442238481 747.189112286 515.773720708 766.148350784 c 128,-1,36
 474.105202935 785.107589281 474.105202935 785.107589281 439.990798638 810.710536191 c 128,-1,37
 405.876394341 836.3134831 405.876394341 836.3134831 376.606969554 868.067367365 c 1,38,-1
 374.864682576 899.822778224 l 1,39,40
 398.686651947 932.115986005 398.686651947 932.115986005 430.61620851 962.318593327 c 128,-1,41
 462.545765074 992.521200649 462.545765074 992.521200649 492.974152304 1015.8809065 c 128,-1,42
 523.402539534 1039.24061236 523.402539534 1039.24061236 568.135343727 1064.57043499 c 128,-1,43
 612.868147919 1089.90025761 612.868147919 1089.90025761 645.009082147 1106.34021958 c 128,-1,44
 677.150016375 1122.78018155 677.150016375 1122.78018155 730.944699361 1145.65815595 c 128,-1,45
 784.739382347 1168.53613034 784.739382347 1168.53613034 814.851494737 1180.47728489 c 128,-1,46
 844.963607127 1192.41843944 844.963607127 1192.41843944 902.926298044 1214.85832364 c 0,47,48
 1023.68970497 1261.61110245 1023.68970497 1261.61110245 1077.79839479 1285.82862745 c 0,49,50
 1082.67608091 1288.02290136 1082.67608091 1288.02290136 1088.03333107 1288.02290136 c 0,0,1
EndSplineSet
EndChar

StartChar: equal
Encoding: 61 61 86
Width: 2048
LayerCount: 2
Fore
SplineSet
483.963904609 927.00220621 m 0,0,1
 483.963904609 937.348878381 483.963904609 937.348878381 491.288473902 944.673447675 c 128,-1,2
 498.613043196 951.998016969 498.613043196 951.998016969 508.959715367 951.998016969 c 0,3,4
 511.742298739 949.732315417 511.742298739 949.732315417 520.815672123 947.325362817 c 128,-1,5
 529.889045506 944.918410216 529.889045506 944.918410216 589.685172925 939.680078357 c 128,-1,6
 649.481300343 934.441746498 649.481300343 934.441746498 750.53248627 930.957222845 c 2,7,-1
 1358.86794599 909.980138027 l 2,8,9
 1368.92753884 909.633255515 1368.92753884 909.633255515 1375.95775034 902.371691164 c 128,-1,10
 1382.98796183 895.110126813 1382.98796183 895.110126813 1382.98796183 884.999994224 c 0,11,12
 1382.98796183 874.653570231 1382.98796183 874.653570231 1375.66356823 867.329176626 c 128,-1,13
 1368.33917462 860.004783021 1368.33917462 860.004783021 1357.99275063 860.004783021 c 0,14,15
 1266.38926357 860.004783021 1266.38926357 860.004783021 748.132054006 881.019861973 c 0,16,17
 712.26159975 882.474391528 712.26159975 882.474391528 672.014263606 885.992872286 c 128,-1,18
 631.766927461 889.511353045 631.766927461 889.511353045 582.738573099 894.632955578 c 128,-1,19
 533.710218737 899.754558111 533.710218737 899.754558111 506.805299338 902.100720914 c 0,20,21
 497.159506587 902.942742492 497.159506587 902.942742492 490.561705598 910.095067365 c 128,-1,22
 483.963904609 917.247392237 483.963904609 917.247392237 483.963904609 927.00220621 c 0,0,1
743.18185735 1249.48244898 m 0,23,24
 726.861329991 1249.48244898 726.861329991 1249.48244898 695.661502307 1249.94627425 c 128,-1,25
 664.461674622 1250.41009951 664.461674622 1250.41009951 648.422604493 1250.41009951 c 0,26,27
 630.593692105 1250.41009951 630.593692105 1250.41009951 614.617157188 1250.01246286 c 0,28,29
 614.525434436 1250.01246286 614.525434436 1250.01246286 614.319892226 1250.00865621 c 0,30,31
 603.659424539 1250.00484957 603.659424539 1250.00484957 596.335046821 1257.32922729 c 128,-1,32
 589.010669103 1264.653605 589.010669103 1264.653605 589.010669103 1275.00000655 c 128,-1,33
 589.010669103 1285.17568212 589.010669103 1285.17568212 596.122144118 1292.45530867 c 128,-1,34
 603.233619133 1299.73493522 603.233619133 1299.73493522 613.373343845 1299.98730072 c 0,35,36
 630.007880462 1300.40131424 630.007880462 1300.40131424 648.467026583 1300.40131424 c 0,37,38
 664.788076707 1300.40131424 664.788076707 1300.40131424 695.987277688 1299.93751528 c 128,-1,39
 727.186478669 1299.47371631 727.186478669 1299.47371631 743.225677761 1299.47371631 c 0,40,41
 763.350132903 1299.47371631 763.350132903 1299.47371631 781.282373393 1299.98487211 c 0,42,43
 783.682976684 1299.8917999 783.682976684 1299.8917999 789.91126883 1299.33335918 c 128,-1,44
 796.139560976 1298.77491847 796.139560976 1298.77491847 805.007401286 1298.34088256 c 128,-1,45
 813.875241595 1297.90684664 813.875241595 1297.90684664 825.431755408 1297.90684664 c 0,46,47
 846.740876891 1297.90684664 846.740876891 1297.90684664 890.008070707 1300.38497251 c 128,-1,48
 933.275264523 1302.86309839 933.275264523 1302.86309839 954.548609726 1302.86309839 c 0,49,50
 1017.35550691 1302.86309839 1017.35550691 1302.86309839 1063.37481716 1286.55838848 c 0,51,52
 1080.03530996 1280.65555117 1080.03530996 1280.65555117 1080.03530996 1262.98349004 c 0,53,54
 1080.03530996 1252.6339701 1080.03530996 1252.6339701 1072.70872468 1245.30738482 c 128,-1,55
 1065.38213941 1237.98079955 1065.38213941 1237.98079955 1055.03261947 1237.98079955 c 0,56,57
 1051.5998143 1237.98079955 1051.5998143 1237.98079955 1040.72205327 1241.66127502 c 128,-1,58
 1029.84429225 1245.3417505 1029.84429225 1245.3417505 1007.42281149 1249.02222597 c 128,-1,59
 985.001330725 1252.70270144 985.001330725 1252.70270144 953.533777612 1252.70270144 c 0,60,61
 932.318002932 1252.70270144 932.318002932 1252.70270144 889.788108663 1250.28949009 c 128,-1,62
 847.258214395 1247.87627873 847.258214395 1247.87627873 825.750329488 1247.87627873 c 0,63,64
 801.636898001 1247.87627873 801.636898001 1247.87627873 781.044021641 1249.96856831 c 0,65,66
 763.130477407 1249.48244898 763.130477407 1249.48244898 743.18185735 1249.48244898 c 0,23,24
EndSplineSet
EndChar

StartChar: greater
Encoding: 62 62 87
Width: 2048
LayerCount: 2
Fore
SplineSet
744.954848635 1326.00401185 m 0,0,1
 744.954848635 1336.35106777 744.954848635 1336.35106777 752.279689593 1343.67590873 c 128,-1,2
 759.604530551 1351.00074968 759.604530551 1351.00074968 769.951586474 1351.00074968 c 0,3,4
 775.742437268 1351.00074968 775.742437268 1351.00074968 800.855166665 1347.29962414 c 128,-1,5
 825.967896063 1343.59849859 825.967896063 1343.59849859 879.991462898 1330.29896508 c 128,-1,6
 934.015029733 1316.99943156 934.015029733 1316.99943156 993.616031704 1296.57122529 c 128,-1,7
 1053.21703367 1276.14301902 1053.21703367 1276.14301902 1131.34864997 1237.08364057 c 128,-1,8
 1209.48026626 1198.02426212 1209.48026626 1198.02426212 1279.44487422 1148.4086637 c 1,9,-1
 1281.90144771 1109.57827288 l 1,10,11
 1246.7829081 1077.31616694 1246.7829081 1077.31616694 1205.97329262 1048.42901362 c 128,-1,12
 1165.16367714 1019.54186031 1165.16367714 1019.54186031 1127.78855739 996.984256988 c 128,-1,13
 1090.41343765 974.426653668 1090.41343765 974.426653668 1040.31651274 952.724380234 c 128,-1,14
 990.219587833 931.022106799 990.219587833 931.022106799 953.391674043 916.124264554 c 128,-1,15
 916.563760253 901.22642231 916.563760253 901.22642231 858.858962371 884.464653619 c 128,-1,16
 801.154164489 867.702884928 801.154164489 867.702884928 766.552893107 858.220428621 c 128,-1,17
 731.951621725 848.737972315 731.951621725 848.737972315 668.31838732 834.672333231 c 128,-1,18
 604.685152916 820.606694147 604.685152916 820.606694147 573.989960394 814.295248641 c 128,-1,19
 543.294767872 807.983803135 543.294767872 807.983803135 476.536883042 794.569552117 c 0,20,21
 405.985028317 780.39294524 405.985028317 780.39294524 347.859297767 767.94606575 c 128,-1,22
 289.733567216 755.49918626 289.733567216 755.49918626 257.536049869 747.99810245 c 128,-1,23
 225.338532523 740.497018641 225.338532523 740.497018641 203.174759129 734.975870389 c 128,-1,24
 181.010985735 729.454722138 181.010985735 729.454722138 172.781406315 727.224578407 c 128,-1,25
 164.551826894 724.994434676 164.551826894 724.994434676 163.963611206 724.994434676 c 0,26,27
 153.614966589 724.994434676 153.614966589 724.994434676 146.28900097 732.320400295 c 128,-1,28
 138.963035352 739.646365913 138.963035352 739.646365913 138.963035352 749.99501053 c 0,29,30
 138.963035352 769.062837436 138.963035352 769.062837436 157.343344491 774.098105617 c 0,31,32
 256.445962799 801.340956192 256.445962799 801.340956192 466.629898695 843.575069562 c 0,33,34
 557.03635925 861.741237628 557.03635925 861.741237628 607.542022223 872.66600083 c 128,-1,35
 658.047685196 883.590764031 658.047685196 883.590764031 739.784794503 903.420691187 c 128,-1,36
 821.52190381 923.250618343 821.52190381 923.250618343 876.829616344 942.735641858 c 128,-1,37
 932.137328878 962.220665373 932.137328878 962.220665373 998.419787728 989.271898462 c 128,-1,38
 1064.70224658 1016.32313155 1064.70224658 1016.32313155 1120.27524952 1050.47499259 c 128,-1,39
 1175.84825246 1084.62685364 1175.84825246 1084.62685364 1224.38784175 1125.55500025 c 1,40,41
 1122.34140177 1193.37046306 1122.34140177 1193.37046306 1003.68324374 1239.28739489 c 128,-1,42
 885.025085705 1285.20432671 885.025085705 1285.20432671 766.623990044 1301.23227931 c 0,43,44
 757.383223503 1302.47936719 757.383223503 1302.47936719 751.169036069 1309.52378887 c 128,-1,45
 744.954848635 1316.56821054 744.954848635 1316.56821054 744.954848635 1326.00401185 c 0,0,1
EndSplineSet
EndChar

StartChar: at
Encoding: 64 64 88
Width: 2048
LayerCount: 2
Fore
SplineSet
1214.0088412 923.004551581 m 0,0,1
 1203.66235541 923.004551581 1203.66235541 923.004551581 1196.33791806 930.328988928 c 128,-1,2
 1189.01348072 937.653426276 1189.01348072 937.653426276 1189.01348072 947.99991206 c 0,3,4
 1189.01348072 957.986484501 1189.01348072 957.986484501 1195.89123859 965.212667601 c 128,-1,5
 1202.76899646 972.438850701 1202.76899646 972.438850701 1212.67637949 972.960291913 c 0,6,7
 1612.36079846 993.996313964 1612.36079846 993.996313964 1613.02862827 993.996313964 c 0,8,9
 1623.37511405 993.996313964 1623.37511405 993.996313964 1630.6995514 986.671876617 c 128,-1,10
 1638.02398874 979.347439269 1638.02398874 979.347439269 1638.02398874 969.000953485 c 0,11,12
 1638.02398874 959.011428596 1638.02398874 959.011428596 1631.14007943 951.786535364 c 128,-1,13
 1624.25617012 944.561642132 1624.25617012 944.561642132 1614.32362051 944.039708087 c 2,14,-1
 1215.30383345 923.038666662 l 2,15,16
 1214.23773057 923.004551581 1214.23773057 923.004551581 1214.0088412 923.004551581 c 0,0,1
1345.44333943 887.989137965 m 0,17,18
 1345.44333943 888.354385743 1345.44333943 888.354385743 1345.40474489 904.571641306 c 128,-1,19
 1345.36615036 920.78889687 1345.36615036 920.78889687 1345.36615036 920.913393389 c 0,20,21
 1345.36615036 1001.39673042 1345.36615036 1001.39673042 1357.00490224 1047.21767617 c 1,22,-1
 1357.00490224 1137 l 2,23,24
 1357.00490224 1147.34637704 1357.00490224 1147.34637704 1364.3292626 1154.6707374 c 128,-1,25
 1371.65362296 1161.99509776 1371.65362296 1161.99509776 1382 1161.99509776 c 128,-1,26
 1392.34637704 1161.99509776 1392.34637704 1161.99509776 1399.6707374 1154.6707374 c 128,-1,27
 1406.99509776 1147.34637704 1406.99509776 1147.34637704 1406.99509776 1137 c 2,28,-1
 1406.99509776 1044 l 1,29,-1
 1406.14868311 1037.53016077 l 1,30,31
 1395.37828588 997.128291457 1395.37828588 997.128291457 1395.37828588 915.429661495 c 0,32,33
 1395.37828588 914.512443598 1395.37828588 914.512443598 1395.40249239 905.195232819 c 128,-1,34
 1395.4266989 895.87802204 1395.4266989 895.87802204 1395.45090541 886.893497593 c 128,-1,35
 1395.47511191 877.908973147 1395.47511191 877.908973147 1395.47511191 877.799707773 c 0,36,37
 1395.47511191 814.695654825 1395.47511191 814.695654825 1387.2845844 768.159529922 c 128,-1,38
 1379.09405689 721.623405019 1379.09405689 721.623405019 1351.55922188 681.769757298 c 0,39,40
 1344.08704937 670.954608743 1344.08704937 670.954608743 1330.97366095 670.954608743 c 0,41,42
 1320.62375671 670.954608743 1320.62375671 670.954608743 1313.29689938 678.281466069 c 128,-1,43
 1305.97004206 685.608323395 1305.97004206 685.608323395 1305.97004206 695.958227635 c 0,44,45
 1305.97004206 703.74781132 1305.97004206 703.74781132 1310.41655108 710.195176727 c 0,46,47
 1332.3305283 741.913250514 1332.3305283 741.913250514 1338.88693386 783.463518764 c 128,-1,48
 1345.44333943 825.013787015 1345.44333943 825.013787015 1345.44333943 887.989137965 c 0,17,18
684.996380708 771.009204448 m 0,49,50
 684.996380708 781.357801903 684.996380708 781.357801903 692.32231294 788.683734135 c 128,-1,51
 699.648245172 796.009666367 699.648245172 796.009666367 709.996842627 796.009666367 c 0,52,53
 719.655225557 796.009666367 719.655225557 796.009666367 726.804166032 789.510629571 c 2,54,-1
 924.830095108 609.487057683 l 2,55,56
 933.023233623 602.038749943 933.023233623 602.038749943 933.023233623 590.98563256 c 0,57,58
 933.023233623 580.637035105 933.023233623 580.637035105 925.697301391 573.311102873 c 128,-1,59
 918.371369159 565.985170641 918.371369159 565.985170641 908.022771704 565.985170641 c 0,60,61
 898.372875752 565.985170641 898.372875752 565.985170641 891.195833968 572.489370429 c 2,62,-1
 693.169904891 752.512942317 l 2,63,64
 684.996380708 759.964076206 684.996380708 759.964076206 684.996380708 771.009204448 c 0,49,50
385.851545621 648.792399999 m 0,65,66
 474.532272971 648.792399999 474.532272971 648.792399999 557.952031795 692.145441667 c 128,-1,67
 641.37179062 735.498483334 641.37179062 735.498483334 695.076984478 813.022158167 c 128,-1,68
 748.782178337 890.545833 748.782178337 890.545833 748.782178337 980.238608737 c 0,69,70
 748.782178337 995.7767202 748.782178337 995.7767202 741.01114953 1028.80359263 c 1,71,72
 736.473007791 1028.8940595 736.473007791 1028.8940595 731.898509376 1028.8940595 c 0,73,74
 664.84402378 1028.8940595 664.84402378 1028.8940595 596.286705382 1009.83856971 c 128,-1,75
 527.729386983 990.783079915 527.729386983 990.783079915 467.447005175 955.814822908 c 128,-1,76
 407.164623367 920.846565901 407.164623367 920.846565901 363.183433663 865.03048538 c 128,-1,77
 319.202243959 809.214404858 319.202243959 809.214404858 305.488339181 741.975281766 c 0,78,79
 303.730677573 733.327034544 303.730677573 733.327034544 296.856192589 727.640436737 c 128,-1,80
 289.981707604 721.95383893 289.981707604 721.95383893 280.994387977 721.95383893 c 0,81,82
 270.646597047 721.95383893 270.646597047 721.95383893 263.321235766 729.279200211 c 128,-1,83
 255.995874486 736.604561491 255.995874486 736.604561491 255.995874486 746.952352422 c 0,84,85
 255.995874486 754.163696841 255.995874486 754.163696841 261.244955111 775.979141465 c 128,-1,86
 266.494035737 797.794586088 266.494035737 797.794586088 291.253958697 844.936403563 c 128,-1,87
 316.013881658 892.078221037 316.013881658 892.078221037 355.242853768 931.307193147 c 0,88,89
 425.986444599 1002.05078398 425.986444599 1002.05078398 527.201738088 1040.4782843 c 128,-1,90
 628.417031576 1078.90578462 628.417031576 1078.90578462 731.229338547 1078.90578462 c 0,91,92
 747.068290982 1078.90578462 747.068290982 1078.90578462 762.555992875 1077.9469844 c 1,93,-1
 785.327789618 1058.75591599 l 1,94,95
 798.774576325 998.745775376 798.774576325 998.745775376 798.774576325 980.192617865 c 0,96,97
 798.774576325 902.751521629 798.774576325 902.751521629 763.17765365 831.287363993 c 128,-1,98
 727.580730976 759.823206356 727.580730976 759.823206356 669.981231834 709.386834593 c 128,-1,99
 612.381732691 658.950462831 612.381732691 658.950462831 537.507364209 628.874331588 c 128,-1,100
 462.632995727 598.798200346 462.632995727 598.798200346 386.076209191 598.798200346 c 0,101,102
 382.108893253 598.798200346 382.108893253 598.798200346 378.141195722 598.881330197 c 0,103,104
 360.193265542 592.691991477 360.193265542 592.691991477 341.930011605 592.691991477 c 0,105,106
 310.921442163 592.691991477 310.921442163 592.691991477 266.652640327 615.469276226 c 128,-1,107
 222.38383849 638.246560976 222.38383849 638.246560976 203.345645916 638.246560976 c 0,108,109
 202.132702366 638.246560976 202.132702366 638.246560976 197.382154192 638.021867846 c 0,110,111
 186.616130528 638.002551789 186.616130528 638.002551789 179.291608191 645.327074126 c 128,-1,112
 171.967085854 652.651596463 171.967085854 652.651596463 171.967085854 662.998202304 c 0,113,114
 171.967085854 688.253759918 171.967085854 688.253759918 203.731552155 688.253759918 c 128,-1,115
 235.368983382 688.253759918 235.368983382 688.253759918 279.267225863 665.36161305 c 128,-1,116
 323.165468344 642.469466182 323.165468344 642.469466182 341.273132568 642.469466182 c 0,117,118
 346.368275612 642.469466182 346.368275612 642.469466182 349.551676843 642.953886216 c 128,-1,119
 352.735078074 643.43830625 352.735078074 643.43830625 354.64709046 644.178692889 c 128,-1,120
 356.559102845 644.919079527 356.559102845 644.919079527 361.904383174 646.296026612 c 128,-1,121
 367.249663502 647.672973697 367.249663502 647.672973697 374.86410974 648.980270019 c 0,122,123
 380.336559291 648.792399999 380.336559291 648.792399999 385.851545621 648.792399999 c 0,65,66
EndSplineSet
EndChar

StartChar: bracketleft
Encoding: 91 91 89
Width: 2048
LayerCount: 2
Fore
SplineSet
954.430509504 1299.9993085 m 0,0,1
 954.606094579 1299.999496 954.606094579 1299.999496 967.053793336 1300.02718328 c 128,-1,2
 979.501492092 1300.05487056 979.501492092 1300.05487056 997.590825046 1300.09366637 c 128,-1,3
 1015.680158 1300.13246219 1015.680158 1300.13246219 1034.80034839 1300.171425 c 128,-1,4
 1053.92053877 1300.21038781 1053.92053877 1300.21038781 1070.26708275 1300.2375536 c 128,-1,5
 1086.61362674 1300.26471938 1086.61362674 1300.26471938 1092.7497719 1300.26471938 c 0,6,7
 1135.54739842 1300.26471938 1135.54739842 1300.26471938 1169.20238111 1299.99428466 c 0,8,9
 1179.48732652 1299.91166308 1179.48732652 1299.91166308 1186.74387375 1292.60169282 c 128,-1,10
 1194.00042098 1285.29172255 1194.00042098 1285.29172255 1194.00042098 1274.99997269 c 128,-1,11
 1194.00042098 1264.6535931 1194.00042098 1264.6535931 1186.67605881 1257.32923092 c 128,-1,12
 1179.35169663 1250.00486874 1179.35169663 1250.00486874 1169.00531703 1250.00486874 c 0,13,14
 1168.70281491 1250.00486874 1168.70281491 1250.00486874 1165.26081479 1250.032622 c 128,-1,15
 1161.81881468 1250.06037525 1161.81881468 1250.06037525 1155.49825544 1250.09998426 c 128,-1,16
 1149.1776962 1250.13959327 1149.1776962 1250.13959327 1140.70411157 1250.17920228 c 128,-1,17
 1132.23052694 1250.21881129 1132.23052694 1250.21881129 1119.45875014 1250.24656454 c 128,-1,18
 1106.68697333 1250.2743178 1106.68697333 1250.2743178 1092.74864373 1250.2743178 c 0,19,20
 1087.70652942 1250.2743178 1087.70652942 1250.2743178 1071.30321282 1250.24669835 c 128,-1,21
 1054.89989623 1250.2190789 1054.89989623 1250.2190789 1034.95348013 1250.17953977 c 128,-1,22
 1015.00706403 1250.14000064 1015.00706403 1250.14000064 995.868791766 1250.10053655 c 128,-1,23
 976.730519503 1250.06107245 976.730519503 1250.06107245 963.501442015 1250.0330954 c 128,-1,24
 950.272364528 1250.00511835 950.272364528 1250.00511835 950.020776991 1250.00491081 c 0,25,26
 948.475310663 1250.28145941 948.475310663 1250.28145941 918.948009341 1258.88530301 c 128,-1,27
 889.420708019 1267.4891466 889.420708019 1267.4891466 868.65124966 1267.4891466 c 0,28,29
 815.643948618 1267.4891466 815.643948618 1267.4891466 796.286992348 1214.33568344 c 128,-1,30
 776.930036079 1161.18222028 776.930036079 1161.18222028 772.398460355 1031.14652501 c 0,31,32
 768.889105296 930.443932168 768.889105296 930.443932168 760.456772943 890.551671906 c 1,33,34
 796.295448304 878.846468007 796.295448304 878.846468007 868.329574732 878.846468007 c 0,35,36
 872.625659124 878.846468007 872.625659124 878.846468007 913.646328299 880.129830804 c 128,-1,37
 954.666997474 881.413193601 954.666997474 881.413193601 994.110312664 882.696556399 c 128,-1,38
 1033.55362785 883.979919196 1033.55362785 883.979919196 1034.01899542 883.979919196 c 0,39,40
 1081.93901182 883.979919196 1081.93901182 883.979919196 1111.55258132 876.971444095 c 128,-1,41
 1141.16615081 869.962968993 1141.16615081 869.962968993 1168.34068278 869.962968993 c 0,42,43
 1201.08159242 869.962968993 1201.08159242 869.962968993 1268.2619215 879.587188123 c 128,-1,44
 1335.44225057 889.211407253 1335.44225057 889.211407253 1367.72750122 889.211407253 c 0,45,46
 1403.98743651 889.211407253 1403.98743651 889.211407253 1403.98743651 863.999980974 c 0,47,48
 1403.98743651 853.653542982 1403.98743651 853.653542982 1396.663033 846.329139468 c 128,-1,49
 1389.33862948 839.004735954 1389.33862948 839.004735954 1378.99219149 839.004735954 c 0,50,51
 1377.52589146 839.05289939 1377.52589146 839.05289939 1376.40857222 839.085534082 c 128,-1,52
 1375.29125299 839.118168774 1375.29125299 839.118168774 1372.80742111 839.163810902 c 128,-1,53
 1370.32358922 839.20945303 1370.32358922 839.20945303 1368.2861568 839.20945303 c 0,54,55
 1338.83158011 839.20945303 1338.83158011 839.20945303 1271.09882924 829.421415847 c 128,-1,56
 1203.36607838 819.633378664 1203.36607838 819.633378664 1169.05172385 819.633378664 c 0,57,58
 1136.3014528 819.633378664 1136.3014528 819.633378664 1107.36165901 826.73718264 c 128,-1,59
 1078.42186521 833.840986617 1078.42186521 833.840986617 1034.06467234 833.840986617 c 0,60,61
 1005.5791769 833.840986617 1005.5791769 833.840986617 945.465801431 830.924423315 c 128,-1,62
 885.352425959 828.007860014 885.352425959 828.007860014 858.983762622 828.007860014 c 0,63,64
 766.521280762 828.007860014 766.521280762 828.007860014 718.980474604 854.073403371 c 1,65,-1
 707.071655994 883.245808528 l 1,66,67
 717.131922935 916.613804866 717.131922935 916.613804866 720.370044331 978.153024233 c 128,-1,68
 723.608165728 1039.6922436 723.608165728 1039.6922436 724.129768374 1091.94046469 c 128,-1,69
 724.651371019 1144.18868578 724.651371019 1144.18868578 738.403855315 1199.11636373 c 128,-1,70
 752.15633961 1254.04404169 752.15633961 1254.04404169 781.557850303 1283.44555238 c 0,71,72
 815.137759885 1317.02546197 815.137759885 1317.02546197 868.820989356 1317.02546197 c 0,73,74
 906.953570095 1317.02546197 906.953570095 1317.02546197 954.430509504 1299.9993085 c 0,0,1
EndSplineSet
EndChar

StartChar: backslash
Encoding: 92 92 90
Width: 2048
LayerCount: 2
Fore
SplineSet
1362.02668818 455.963024072 m 0,0,1
 1362.02668818 445.613887212 1362.02668818 445.613887212 1354.70037409 438.287573127 c 128,-1,2
 1347.37406001 430.961259041 1347.37406001 430.961259041 1337.02492315 430.961259041 c 0,3,4
 1325.09623734 430.961259041 1325.09623734 430.961259041 1317.54522985 440.296470829 c 2,5,-1
 606.545229853 1319.29647083 l 2,6,7
 600.990961982 1326.16313955 600.990961982 1326.16313955 600.990961982 1335.00282773 c 0,8,9
 600.990961982 1345.35196459 600.990961982 1345.35196459 608.317276068 1352.67827868 c 128,-1,10
 615.643590153 1360.00459276 615.643590153 1360.00459276 625.992727013 1360.00459276 c 0,11,12
 637.915038916 1360.00459276 637.915038916 1360.00459276 645.454770147 1350.70352917 c 2,13,-1
 1356.45477015 471.703529171 l 2,14,15
 1362.02668818 464.79536283 1362.02668818 464.79536283 1362.02668818 455.963024072 c 0,0,1
EndSplineSet
EndChar

StartChar: bracketright
Encoding: 93 93 91
Width: 2048
LayerCount: 2
Fore
SplineSet
745.592985062 1246.09355479 m 0,0,1
 702.959416759 1246.09355479 702.959416759 1246.09355479 702.959416759 1272.00293134 c 0,2,3
 702.959416759 1282.34973697 702.959416759 1282.34973697 710.284080527 1289.67440074 c 128,-1,4
 717.608744296 1296.99906451 717.608744296 1296.99906451 727.955549921 1296.99906451 c 0,5,6
 728.605439191 1296.99906451 728.605439191 1296.99906451 733.915785525 1296.55980752 c 128,-1,7
 739.22613186 1296.12055053 739.22613186 1296.12055053 745.002228379 1296.12055053 c 0,8,9
 765.856802751 1296.12055053 765.856802751 1296.12055053 810.042832913 1305.02748703 c 128,-1,10
 854.228863074 1313.93442354 854.228863074 1313.93442354 878.700879525 1313.93442354 c 0,11,12
 902.961605526 1313.93442354 902.961605526 1313.93442354 924.5595726 1307.29372803 c 128,-1,13
 946.157539673 1300.65303252 946.157539673 1300.65303252 969.961626679 1300.65303252 c 0,14,15
 1004.10714007 1300.65303252 1004.10714007 1300.65303252 1079.27857002 1311.76111359 c 128,-1,16
 1154.44999997 1322.86919465 1154.44999997 1322.86919465 1187.24285662 1322.86919465 c 0,17,18
 1206.7943849 1322.86919465 1206.7943849 1322.86919465 1223.93131707 1319.63525588 c 128,-1,19
 1241.06824923 1316.4013171 1241.06824923 1316.4013171 1258.70846648 1308.36699011 c 128,-1,20
 1276.34868372 1300.33266313 1276.34868372 1300.33266313 1287.1735651 1283.43620718 c 128,-1,21
 1297.99844648 1266.53975123 1297.99844648 1266.53975123 1298.99222827 1242.38018066 c 0,22,23
 1299.58119874 1228.06187271 1299.58119874 1228.06187271 1299.58119874 1155.92120249 c 0,24,25
 1299.58119874 1143.11254345 1299.58119874 1143.11254345 1299.51776943 1125.09589234 c 128,-1,26
 1299.45434011 1107.07924123 1299.45434011 1107.07924123 1299.36381478 1090.34611593 c 128,-1,27
 1299.27328945 1073.61299062 1299.27328945 1073.61299062 1299.18276411 1058.88067748 c 128,-1,28
 1299.09223878 1044.14836433 1299.09223878 1044.14836433 1299.02880947 1034.80189922 c 128,-1,29
 1298.96538015 1025.45543412 1298.96538015 1025.45543412 1298.96538015 1025.31858539 c 0,30,31
 1298.96538015 973.840900549 1298.96538015 973.840900549 1309.89278406 868.89924018 c 128,-1,32
 1320.82018796 763.957579812 1320.82018796 763.957579812 1320.82018796 709.661825328 c 0,33,34
 1320.82018796 676.893426491 1320.82018796 676.893426491 1317.23630652 665.634331773 c 128,-1,35
 1313.65242508 654.375237054 1313.65242508 654.375237054 1295.25030563 635.973117608 c 0,36,37
 1254.92105002 595.643861994 1254.92105002 595.643861994 1191.86582518 581.024655844 c 128,-1,38
 1128.81060034 566.405449694 1128.81060034 566.405449694 1042.58234095 566.405449694 c 0,39,40
 1042.32945478 566.405449694 1042.32945478 566.405449694 942.169084983 568.749126521 c 128,-1,41
 842.008715183 571.092803348 842.008715183 571.092803348 837.10729079 571.092803348 c 0,42,43
 816.025525677 571.092803348 816.025525677 571.092803348 796.550782374 570.315271404 c 128,-1,44
 777.076039071 569.537739461 777.076039071 569.537739461 762.715231014 568.294373401 c 128,-1,45
 748.354422957 567.051007342 748.354422957 567.051007342 735.996186305 565.547322218 c 128,-1,46
 723.637949653 564.043637094 723.637949653 564.043637094 715.26265981 562.539951969 c 128,-1,47
 706.887369966 561.036266845 706.887369966 561.036266845 701.011970326 559.792900786 c 128,-1,48
 695.136570686 558.549534727 695.136570686 558.549534727 692.113129417 557.772002783 c 128,-1,49
 689.089688148 556.99447084 689.089688148 556.99447084 688.961686678 556.99447084 c 0,50,51
 678.613155165 556.99447084 678.613155165 556.99447084 671.287269614 564.32035639 c 128,-1,52
 663.961384064 571.646241941 663.961384064 571.646241941 663.961384064 581.994773454 c 0,53,54
 663.961384064 601.236378326 663.961384064 601.236378326 682.555186191 606.155340548 c 0,55,56
 739.677026696 621.319598451 739.677026696 621.319598451 833.683234886 621.319598451 c 0,57,58
 833.874168308 621.319598451 833.874168308 621.319598451 927.166933113 619.274799183 c 128,-1,59
 1020.45969792 617.229999916 1020.45969792 617.229999916 1025.25344657 617.229999916 c 0,60,61
 1123.73289303 617.229999916 1123.73289303 617.229999916 1183.26741485 631.89255747 c 128,-1,62
 1242.80193667 646.555115024 1242.80193667 646.555115024 1270.34464871 683.383898385 c 1,63,64
 1270.81887687 695.991198196 1270.81887687 695.991198196 1270.81887687 709.267657368 c 0,65,66
 1270.81887687 761.206341056 1270.81887687 761.206341056 1259.89679759 866.169111135 c 128,-1,67
 1248.97471831 971.131881214 1248.97471831 971.131881214 1248.97471831 1025.2168117 c 0,68,69
 1248.97471831 1028.58184995 1248.97471831 1028.58184995 1249.12859887 1050.09629634 c 128,-1,70
 1249.28247943 1071.61074274 1249.28247943 1071.61074274 1249.43635999 1101.6931213 c 128,-1,71
 1249.59024055 1131.77549987 1249.59024055 1131.77549987 1249.59024055 1155.94837339 c 0,72,73
 1249.59024055 1227.49486107 1249.59024055 1227.49486107 1248.53662364 1240.47289258 c 128,-1,74
 1247.48300674 1253.4509241 1247.48300674 1253.4509241 1241.16130532 1259.77262552 c 0,75,76
 1228.06573716 1272.86819368 1228.06573716 1272.86819368 1187.89102889 1272.86819368 c 0,77,78
 1156.33909433 1272.86819368 1156.33909433 1272.86819368 1080.02437043 1261.15105857 c 128,-1,79
 1003.70964652 1249.43392346 1003.70964652 1249.43392346 972.508987291 1249.43392346 c 0,80,81
 942.697795978 1249.43392346 942.697795978 1249.43392346 919.64028393 1256.64021189 c 128,-1,82
 896.582771882 1263.84650031 896.582771882 1263.84650031 879.205399721 1263.84650031 c 0,83,84
 859.108833941 1263.84650031 859.108833941 1263.84650031 814.99985432 1254.97002755 c 128,-1,85
 770.890874699 1246.09355479 770.890874699 1246.09355479 745.592985062 1246.09355479 c 0,0,1
EndSplineSet
EndChar

StartChar: asciicircum
Encoding: 94 94 92
Width: 2048
LayerCount: 2
Fore
SplineSet
1135.00521151 1241.87518309 m 0,0,1
 1135.00550411 1242.31817261 1135.00550411 1242.31817261 1135.16364425 1285.32245912 c 128,-1,2
 1135.3217844 1328.32674562 1135.3217844 1328.32674562 1135.47942281 1372.96479422 c 128,-1,3
 1135.63706122 1417.60284282 1135.63706122 1417.60284282 1135.63706122 1422.26747989 c 0,4,5
 1135.63706122 1434.23670306 1135.63706122 1434.23670306 1135.60533967 1445.33776819 c 1,6,7
 1085.28816881 1380.72169155 1085.28816881 1380.72169155 1030.91637235 1296.56909044 c 128,-1,8
 976.54457588 1212.41648933 976.54457588 1212.41648933 943.371945342 1155.31420143 c 128,-1,9
 910.199314803 1098.21191353 910.199314803 1098.21191353 852.216316246 995.197346786 c 0,10,11
 813.97513155 927.256757801 813.97513155 927.256757801 794.699239068 893.574862612 c 0,12,13
 787.514253831 881.016783453 787.514253831 881.016783453 773.012931092 881.016783453 c 0,14,15
 762.662530026 881.016783453 762.662530026 881.016783453 755.33532099 888.343992489 c 128,-1,16
 748.008111954 895.671201525 748.008111954 895.671201525 748.008111954 906.021602591 c 0,17,18
 748.008111954 910.515833641 748.008111954 910.515833641 755.586033713 924.728065608 c 128,-1,19
 763.163955472 938.940297574 763.163955472 938.940297574 808.631486028 1019.71945832 c 0,20,21
 875.257031366 1138.08866753 875.257031366 1138.08866753 912.658952039 1201.98756045 c 128,-1,22
 950.060872713 1265.88645337 950.060872713 1265.88645337 1014.65317882 1362.20119371 c 128,-1,23
 1079.24548493 1458.51593404 1079.24548493 1458.51593404 1140.92626297 1531.16328597 c 1,24,-1
 1184.99211272 1515.38775933 l 1,25,26
 1185.62794734 1474.09271372 1185.62794734 1474.09271372 1185.62794734 1422.26832189 c 0,27,28
 1185.62794734 1417.34660564 1185.62794734 1417.34660564 1185.46998444 1372.77499477 c 128,-1,29
 1185.31202153 1328.2033839 1185.31202153 1328.2033839 1185.15354463 1285.37549277 c 128,-1,30
 1184.99506774 1242.54760163 1184.99506774 1242.54760163 1184.99478849 1242.12481691 c 0,31,32
 1185.2517727 1190.26877163 1185.2517727 1190.26877163 1200.65448614 1082.86058622 c 128,-1,33
 1216.05719958 975.452400814 1216.05719958 975.452400814 1216.05719958 919.135809011 c 0,34,35
 1216.05719958 902.374632891 1216.05719958 902.374632891 1215.59292257 894.582823764 c 128,-1,36
 1215.12864557 886.791014636 1215.12864557 886.791014636 1212.85715585 877.124562987 c 128,-1,37
 1210.58566613 867.458111337 1210.58566613 867.458111337 1205.0071071 863.735902724 c 128,-1,38
 1199.42854808 860.013694112 1199.42854808 860.013694112 1189.99980765 860.013694112 c 0,39,40
 1179.6532708 860.013694112 1179.6532708 860.013694112 1172.3287973 867.338167613 c 128,-1,41
 1165.0043238 874.662641115 1165.0043238 874.662641115 1165.0043238 885.00917797 c 0,42,43
 1165.0043238 885.443476441 1165.0043238 885.443476441 1165.26533738 889.85794584 c 128,-1,44
 1165.52635097 894.272415239 1165.52635097 894.272415239 1165.78736455 902.094424492 c 128,-1,45
 1166.04837814 909.916433746 1166.04837814 909.916433746 1166.04837814 918.626186147 c 0,46,47
 1166.04837814 971.739299677 1166.04837814 971.739299677 1150.66438573 1079.04320161 c 128,-1,48
 1135.28039332 1186.34710355 1135.28039332 1186.34710355 1135.00521151 1241.87518309 c 0,0,1
EndSplineSet
EndChar

StartChar: grave
Encoding: 96 96 93
Width: 2048
LayerCount: 2
Fore
SplineSet
534.999605388 1464.00151551 m 0,0,1
 534.999605388 1474.3511728 534.999605388 1474.3511728 542.326287891 1481.6778553 c 128,-1,2
 549.652970393 1489.0045378 549.652970393 1489.0045378 560.002627679 1489.0045378 c 0,3,4
 568.154567964 1489.0045378 568.154567964 1489.0045378 574.724601259 1484.20737063 c 2,5,-1
 763.763719649 1346.178808 l 2,6,7
 774.044768361 1338.67201053 774.044768361 1338.67201053 774.044768361 1325.97295288 c 0,8,9
 774.044768361 1315.62329559 774.044768361 1315.62329559 766.718085858 1308.29661309 c 128,-1,10
 759.391403356 1300.96993059 759.391403356 1300.96993059 749.04174607 1300.96993059 c 0,11,12
 740.895313045 1300.96993059 740.895313045 1300.96993059 734.275398741 1305.79262937 c 2,13,-1
 545.236280351 1443.821192 l 2,14,15
 534.999605388 1451.30695552 534.999605388 1451.30695552 534.999605388 1464.00151551 c 0,0,1
EndSplineSet
EndChar

StartChar: braceleft
Encoding: 123 123 94
Width: 2048
LayerCount: 2
Fore
SplineSet
545.867463591 947.201518379 m 0,0,1
 545.867463591 986.042585345 545.867463591 986.042585345 564.687853548 1013.27989402 c 128,-1,2
 583.508243506 1040.5172027 583.508243506 1040.5172027 611.738828442 1053.14891947 c 128,-1,3
 639.969413379 1065.78063624 639.969413379 1065.78063624 672.905095805 1076.58755205 c 128,-1,4
 705.840778231 1087.39446787 705.840778231 1087.39446787 734.071363167 1094.53488321 c 128,-1,5
 762.301948103 1101.67529855 762.301948103 1101.67529855 781.122338061 1116.692528 c 128,-1,6
 799.942728019 1131.70975744 799.942728019 1131.70975744 799.942728019 1153.92223558 c 0,7,8
 799.942728019 1166.58232825 799.942728019 1166.58232825 795.763621202 1179.41167845 c 128,-1,9
 791.584514384 1192.24102865 791.584514384 1192.24102865 790.532898569 1208.12774196 c 1,10,-1
 820.532898569 1352.12774196 l 1,11,-1
 845 1371.99509776 l 1,12,-1
 1214 1371.99509776 l 2,13,14
 1224.34637704 1371.99509776 1224.34637704 1371.99509776 1231.6707374 1364.6707374 c 128,-1,15
 1238.99509776 1357.34637704 1238.99509776 1357.34637704 1238.99509776 1347 c 128,-1,16
 1238.99509776 1336.65362296 1238.99509776 1336.65362296 1231.6707374 1329.3292626 c 128,-1,17
 1224.34637704 1322.00490224 1224.34637704 1322.00490224 1214 1322.00490224 c 2,18,-1
 865.328068972 1322.00490224 l 1,19,-1
 840.852240043 1204.52092338 l 1,20,21
 849.262735057 1177.99036281 849.262735057 1177.99036281 849.262735057 1154.93774766 c 0,22,23
 849.262735057 1112.93199391 849.262735057 1112.93199391 823.147476829 1086.96344772 c 128,-1,24
 797.032218601 1060.99490153 797.032218601 1060.99490153 759.760927732 1049.71582929 c 128,-1,25
 722.489636863 1038.43675705 722.489636863 1038.43675705 685.218345994 1028.73994194 c 128,-1,26
 647.947055125 1019.04312682 647.947055125 1019.04312682 621.831796897 999.93102815 c 128,-1,27
 595.716538669 980.818929479 595.716538669 980.818929479 595.716538669 948.83413749 c 0,28,29
 595.716538669 908.692183117 595.716538669 908.692183117 619.132392288 885.544355659 c 128,-1,30
 642.548245907 862.396528201 642.548245907 862.396528201 706.907847523 831.396766957 c 0,31,32
 753.738272997 808.840194678 753.738272997 808.840194678 769.948294527 796.168226362 c 0,33,34
 775.089761847 796.233032096 775.089761847 796.233032096 780.486528172 796.233032096 c 0,35,36
 813.123150885 796.233032096 813.123150885 796.233032096 820.84534218 788.510840802 c 0,37,38
 850.893254939 758.462928042 850.893254939 758.462928042 850.893254939 696.796129042 c 0,39,40
 850.893254939 672.312432885 850.893254939 672.312432885 846.559751745 653.1369433 c 128,-1,41
 842.226248551 633.961453716 842.226248551 633.961453716 842.226248551 622.196300291 c 0,42,43
 842.226248551 526.162757535 842.226248551 526.162757535 1037.12188814 501.800802586 c 2,44,-1
 1205.12188814 480.800802586 l 2,45,46
 1214.4166206 479.638961028 1214.4166206 479.638961028 1220.70434652 472.568756425 c 128,-1,47
 1226.99207245 465.498551821 1226.99207245 465.498551821 1226.99207245 455.998280202 c 0,48,49
 1226.99207245 445.651318466 1226.99207245 445.651318466 1219.66729817 438.326544185 c 128,-1,50
 1212.34252389 431.001769904 1212.34252389 431.001769904 1201.99556215 431.001769904 c 0,51,52
 1201.80021592 431.001769904 1201.80021592 431.001769904 1201.14327462 431.131602413 c 0,53,54
 1179.17769732 435.4726996 1179.17769732 435.4726996 1031.5108076 452.120110447 c 0,55,56
 1014.1578007 454.076423306 1014.1578007 454.076423306 1000.88778741 455.975870925 c 128,-1,57
 987.617774115 457.875318544 987.617774115 457.875318544 961.067577525 463.754355607 c 128,-1,58
 934.517380935 469.63339267 934.517380935 469.63339267 914.456193054 477.034436713 c 128,-1,59
 894.395005173 484.435480756 894.395005173 484.435480756 870.159921118 497.95173565 c 128,-1,60
 845.924837063 511.467990543 845.924837063 511.467990543 830.138092011 528.048008025 c 128,-1,61
 814.351346959 544.628025506 814.351346959 544.628025506 803.496992859 569.458875246 c 128,-1,62
 792.642638758 594.289724986 792.642638758 594.289724986 792.642638758 623.763209534 c 0,63,64
 792.642638758 640.880489491 792.642638758 640.880489491 796.560565077 658.200363885 c 128,-1,65
 800.478491396 675.52023828 800.478491396 675.52023828 800.478491396 691.397144345 c 0,66,67
 800.478491396 726.718671989 800.478491396 726.718671989 790.34091485 746.190168603 c 1,68,69
 785.190614381 746.242819291 785.190614381 746.242819291 780.478017579 746.242819291 c 0,70,71
 770.701168742 746.242819291 770.701168742 746.242819291 761.638493142 746.012996669 c 0,72,73
 749.609663701 750.540200522 749.609663701 750.540200522 745.046343276 752.645517159 c 128,-1,74
 740.483022851 754.750833797 740.483022851 754.750833797 738.484350005 756.462357965 c 128,-1,75
 736.485677159 758.173882132 736.485677159 758.173882132 733.729839801 760.438893574 c 128,-1,76
 730.974002443 762.703905016 730.974002443 762.703905016 718.705951781 769.409405494 c 128,-1,77
 706.43790112 776.114905972 706.43790112 776.114905972 685.190012418 786.349268213 c 0,78,79
 650.520274988 803.048463915 650.520274988 803.048463915 630.529582891 814.933069838 c 128,-1,80
 610.538890794 826.81767576 610.538890794 826.81767576 588.299907244 846.002126168 c 128,-1,81
 566.060923694 865.186576575 566.060923694 865.186576575 555.964193643 890.054767942 c 128,-1,82
 545.867463591 914.922959308 545.867463591 914.922959308 545.867463591 947.201518379 c 0,0,1
EndSplineSet
EndChar

StartChar: bar
Encoding: 124 124 95
Width: 2048
LayerCount: 2
Fore
SplineSet
1051.05248159 1390.45248091 m 2,0,1
 1051.05248159 1390.68668801 1051.05248159 1390.68668801 1051.02841936 1391.20298429 c 128,-1,2
 1051.00435712 1391.71928058 1051.00435712 1391.71928058 1051.00435712 1391.99083934 c 0,3,4
 1051.00435712 1402.33736907 1051.00435712 1402.33736907 1058.32882559 1409.66183754 c 128,-1,5
 1065.65329405 1416.986306 1065.65329405 1416.986306 1075.99982379 1416.986306 c 0,6,7
 1085.91945827 1416.986306 1085.91945827 1416.986306 1093.12575009 1410.19072457 c 128,-1,8
 1100.33204191 1403.39514314 1100.33204191 1403.39514314 1100.9460615 1393.57082965 c 0,9,10
 1142.99674736 720.75985582 1142.99674736 720.75985582 1142.99674736 719.967528771 c 0,11,12
 1142.99674736 709.620999033 1142.99674736 709.620999033 1135.6722789 702.29653057 c 128,-1,13
 1128.34781044 694.972062106 1128.34781044 694.972062106 1118.0012807 694.972062106 c 0,14,15
 1108.07835068 694.972062106 1108.07835068 694.972062106 1100.87346484 701.774483783 c 128,-1,16
 1093.66857899 708.57690546 1093.66857899 708.57690546 1093.0539385 718.429170345 c 2,17,-1
 1051.05248159 1390.45248091 l 2,0,1
EndSplineSet
EndChar

StartChar: braceright
Encoding: 125 125 96
Width: 2048
LayerCount: 2
Fore
SplineSet
757.530084895 1143.44042774 m 128,-1,1
 757.181615592 1143.44042774 757.181615592 1143.44042774 738.232056018 1143.6301544 c 128,-1,2
 719.282496443 1143.81988105 719.282496443 1143.81988105 690.385209941 1144.09065599 c 128,-1,3
 661.487923438 1144.36143093 661.487923438 1144.36143093 629.797303264 1144.63220587 c 128,-1,4
 598.106683091 1144.90298081 598.106683091 1144.90298081 567.052677609 1145.09270746 c 128,-1,5
 535.998672127 1145.28243412 535.998672127 1145.28243412 517.959089576 1145.28243412 c 0,6,7
 483.48901811 1145.28243412 483.48901811 1145.28243412 455.242667238 1145.006071 c 0,8,9
 444.656297914 1145.00489657 444.656297914 1145.00489657 437.331934864 1152.32925962 c 128,-1,10
 430.007571813 1159.65362267 430.007571813 1159.65362267 430.007571813 1170.00000351 c 128,-1,11
 430.007571813 1180.27916566 430.007571813 1180.27916566 437.247896337 1187.58631069 c 128,-1,12
 444.488220862 1194.89345571 444.488220862 1194.89345571 454.753584938 1194.99389233 c 0,13,14
 483.265854944 1195.27285721 483.265854944 1195.27285721 517.960413675 1195.27285721 c 0,15,16
 522.910401623 1195.27285721 522.910401623 1195.27285721 551.821958243 1195.20369121 c 128,-1,17
 580.733514862 1195.13452521 580.733514862 1195.13452521 607.835351852 1195.06483839 c 128,-1,18
 634.937188841 1194.99515157 634.937188841 1194.99515157 635.018771496 1194.99509077 c 2,19,-1
 635.83070453 1194.98139463 l 2,20,21
 682.771496854 1193.43228325 682.771496854 1193.43228325 757.992035795 1193.43228325 c 0,22,23
 758.547908971 1193.43228325 758.547908971 1193.43228325 807.636168539 1193.51283461 c 128,-1,24
 856.724428108 1193.59338598 856.724428108 1193.59338598 856.912685658 1193.59338598 c 0,25,26
 1073.08725739 1193.59338598 1073.08725739 1193.59338598 1173.91193946 1173.51107174 c 1,27,-1
 1192.12835085 1139.49889264 l 1,28,29
 1141.28939451 1015.46122788 1141.28939451 1015.46122788 1141.28939451 862.5265122 c 0,30,31
 1141.28939451 821.444870796 1141.28939451 821.444870796 1143.37931857 805.733510031 c 128,-1,32
 1145.46924263 790.022149265 1145.46924263 790.022149265 1149.64716175 786.39782346 c 128,-1,33
 1153.82508086 782.773497654 1153.82508086 782.773497654 1166.35690921 782.773497654 c 0,34,35
 1191.08215864 782.773497654 1191.08215864 782.773497654 1268.33585663 807.803513631 c 128,-1,36
 1345.58955461 832.833529608 1345.58955461 832.833529608 1378.81312724 832.833529608 c 0,37,38
 1401.15166045 832.833529608 1401.15166045 832.833529608 1418.59872185 825.466974605 c 1,39,40
 1456.68470619 821.274861 1456.68470619 821.274861 1491.68760228 802.42137078 c 128,-1,41
 1526.69049837 783.56788056 1526.69049837 783.56788056 1549.79085284 758.76735367 c 128,-1,42
 1572.89120732 733.96682678 1572.89120732 733.96682678 1587.47827023 709.014972324 c 128,-1,43
 1602.06533314 684.063117867 1602.06533314 684.063117867 1604.96812884 664.834784996 c 0,44,45
 1603.88153716 641.374949991 1603.88153716 641.374949991 1597.85111636 621.388925506 c 128,-1,46
 1591.82069556 601.402901021 1591.82069556 601.402901021 1583.72755053 586.474626891 c 128,-1,47
 1575.63440551 571.546352761 1575.63440551 571.546352761 1561.1347786 558.936803605 c 128,-1,48
 1546.6351517 546.32725445 1546.6351517 546.32725445 1534.43690343 537.883157029 c 128,-1,49
 1522.23865515 529.439059609 1522.23865515 529.439059609 1501.78282188 522.14108249 c 128,-1,50
 1481.3269886 514.843105372 1481.3269886 514.843105372 1467.53663681 510.818281368 c 128,-1,51
 1453.74628502 506.793457365 1453.74628502 506.793457365 1429.8472451 502.74214899 c 128,-1,52
 1405.94820518 498.690840616 1405.94820518 498.690840616 1393.07874961 497.020386736 c 128,-1,53
 1380.20929404 495.349932856 1380.20929404 495.349932856 1355.76849759 492.497909062 c 0,54,55
 1279.94035809 483.649438901 1279.94035809 483.649438901 1251.95135211 474.295849676 c 1,56,-1
 1243.79966161 473.005699008 l 1,57,58
 1213.64789494 473.24553797 1213.64789494 473.24553797 1188.35614081 473.24553797 c 0,59,60
 1170.50126896 473.24553797 1170.50126896 473.24553797 1153.75475867 473.129823207 c 1,61,62
 1153.79070736 461.600405338 1153.79070736 461.600405338 1155.60813264 445.304345006 c 128,-1,63
 1157.42555793 429.008284674 1157.42555793 429.008284674 1157.42555793 421.784262348 c 0,64,65
 1157.42555793 411.37943882 1157.42555793 411.37943882 1155.26390404 402.487430046 c 0,66,67
 1155.86625199 393.714140382 1155.86625199 393.714140382 1155.86625199 385.257085659 c 0,68,69
 1155.86625199 347.358835114 1155.86625199 347.358835114 1143.6449034 317.053244239 c 128,-1,70
 1131.42355481 286.747653364 1131.42355481 286.747653364 1113.31671654 267.449702055 c 128,-1,71
 1095.20987827 248.151750745 1095.20987827 248.151750745 1067.07747201 234.106498522 c 128,-1,72
 1038.94506574 220.061246298 1038.94506574 220.061246298 1014.68295841 213.136349251 c 128,-1,73
 990.420851074 206.211452204 990.420851074 206.211452204 957.82495581 202.302448579 c 128,-1,74
 925.229060545 198.393444954 925.229060545 198.393444954 906.259252828 197.717512117 c 128,-1,75
 887.289445112 197.04157928 887.289445112 197.04157928 862.181630059 197.04157928 c 0,76,77
 836.338245958 197.04157928 836.338245958 197.04157928 783.621427224 198.65961202 c 128,-1,78
 730.904608489 200.277644759 730.904608489 200.277644759 709.329647809 200.277644759 c 0,79,80
 706.850760694 200.277644759 706.850760694 200.277644759 695.311804247 199.968910303 c 128,-1,81
 683.7728478 199.660175846 683.7728478 199.660175846 673.233266739 199.35144139 c 128,-1,82
 662.693685677 199.042706933 662.693685677 199.042706933 662.64185307 199.042706933 c 0,83,84
 649.634109996 199.042706933 649.634109996 199.042706933 623.809536137 200.143196082 c 128,-1,85
 597.984962278 201.243685231 597.984962278 201.243685231 584.766957129 201.243685231 c 0,86,87
 552.247820454 201.243685231 552.247820454 201.243685231 530.698714073 196.119538461 c 128,-1,88
 509.149607692 190.995391691 509.149607692 190.995391691 508.97763985 190.995391691 c 0,89,90
 498.628321221 190.995391691 498.628321221 190.995391691 491.301878458 198.321834453 c 128,-1,91
 483.975435695 205.648277216 483.975435695 205.648277216 483.975435695 215.997595846 c 0,92,93
 483.975435695 234.012410156 483.975435695 234.012410156 501.044226277 239.702672216 c 0,94,95
 535.909075877 251.361338476 535.909075877 251.361338476 583.456818354 251.361338476 c 0,96,97
 596.637495497 251.361338476 596.637495497 251.361338476 623.281404 250.208926646 c 128,-1,98
 649.925312503 249.056514816 649.925312503 249.056514816 662.891008461 249.056514816 c 0,99,100
 662.966628081 249.056514816 662.966628081 249.056514816 666.807352443 249.182012235 c 128,-1,101
 670.648076805 249.307509653 670.648076805 249.307509653 676.437221646 249.48661762 c 128,-1,102
 682.226366488 249.665725586 682.226366488 249.665725586 688.493571146 249.844833552 c 128,-1,103
 694.760775804 250.023941519 694.760775804 250.023941519 700.673092701 250.149438937 c 128,-1,104
 706.585409599 250.274936356 706.585409599 250.274936356 709.688741386 250.274936356 c 0,105,106
 728.366679526 250.274936356 728.366679526 250.274936356 772.008807199 249.033800122 c 128,-1,107
 815.650934873 247.792663888 815.650934873 247.792663888 842.913121422 247.792663888 c 0,108,109
 981.129803276 247.792663888 981.129803276 247.792663888 1043.53193019 278.306078846 c 128,-1,110
 1105.93405711 308.819493804 1105.93405711 308.819493804 1105.93405711 384.158706598 c 0,111,112
 1105.93405711 393.119244003 1105.93405711 393.119244003 1105.09756341 402.841689307 c 0,113,114
 1106.75952903 417.058677488 1106.75952903 417.058677488 1106.75952903 420.600809791 c 0,115,116
 1106.75952903 430.934433388 1106.75952903 430.934433388 1105.06940869 447.416240521 c 128,-1,117
 1103.37928836 463.898047654 1103.37928836 463.898047654 1103.37928836 471.874698164 c 0,118,119
 1103.37928836 515.679498777 1103.37928836 515.679498777 1138.7437138 522.993793815 c 1,120,121
 1162.52303895 523.235772496 1162.52303895 523.235772496 1188.35812884 523.235772496 c 0,122,123
 1212.20513769 523.235772496 1212.20513769 523.235772496 1240.12666349 523.025826324 c 1,124,125
 1270.37833448 532.532951118 1270.37833448 532.532951118 1334.77233322 539.679108152 c 128,-1,126
 1399.16633196 546.825265186 1399.16633196 546.825265186 1450.4712654 558.72160894 c 128,-1,127
 1501.77619883 570.617952693 1501.77619883 570.617952693 1526.91070688 595.75246074 c 0,128,129
 1551.57750749 620.419264064 1551.57750749 620.419264064 1554.72668474 662.136197657 c 1,130,131
 1536.88912442 707.007913842 1536.88912442 707.007913842 1496.42579462 739.567693684 c 128,-1,132
 1455.96246481 772.127473526 1455.96246481 772.127473526 1409.84062138 776.097655311 c 0,133,134
 1390.58256915 781.470682917 1390.58256915 781.470682917 1383.93195165 781.470682917 c 0,135,136
 1354.38614038 781.470682917 1354.38614038 781.470682917 1275.57824763 757.08205577 c 128,-1,137
 1196.77035489 732.693428623 1196.77035489 732.693428623 1165.23237609 732.693428623 c 0,138,139
 1143.73476242 732.693428623 1143.73476242 732.693428623 1129.20330947 740.079882505 c 128,-1,140
 1114.67185653 747.466336387 1114.67185653 747.466336387 1107.22407649 756.814165401 c 128,-1,141
 1099.77629646 766.161994415 1099.77629646 766.161994415 1096.08323081 786.457364464 c 128,-1,142
 1092.39016516 806.752734513 1092.39016516 806.752734513 1091.84689711 820.46845794 c 128,-1,143
 1091.30362907 834.184181368 1091.30362907 834.184181368 1091.30362907 862.408532982 c 0,144,145
 1091.30362907 1008.05698577 1091.30362907 1008.05698577 1134.78690035 1129.59958196 c 1,146,147
 1042.81283212 1143.58051232 1042.81283212 1143.58051232 848.420023262 1143.58051232 c 0,148,149
 847.37522891 1143.58051232 847.37522891 1143.58051232 802.620847606 1143.51047003 c 128,-1,0
 757.866466302 1143.44042774 757.866466302 1143.44042774 757.530084895 1143.44042774 c 128,-1,1
EndSplineSet
EndChar

StartChar: asciitilde
Encoding: 126 126 97
Width: 2048
LayerCount: 2
Fore
SplineSet
612.246959357 850.979450567 m 0,0,1
 591.075960329 850.979450567 591.075960329 850.979450567 573.556157305 860.984096214 c 128,-1,2
 556.036354281 870.988741861 556.036354281 870.988741861 546.776194485 882.994316638 c 128,-1,3
 537.516034689 894.999891415 537.516034689 894.999891415 527.343548928 905.004537063 c 128,-1,4
 517.171063167 915.00918271 517.171063167 915.00918271 508.921208293 915.00918271 c 0,5,6
 495.394260645 915.00918271 495.394260645 915.00918271 480.789774021 899.67593295 c 128,-1,7
 466.185287398 884.342683189 466.185287398 884.342683189 460.688500529 868.001972015 c 0,8,9
 454.978603944 850.97589362 454.978603944 850.97589362 436.997713302 850.97589362 c 0,10,11
 426.648373877 850.97589362 426.648373877 850.97589362 419.321916394 858.302351104 c 128,-1,12
 411.99545891 865.628808588 411.99545891 865.628808588 411.99545891 875.978148012 c 0,13,14
 411.99545891 896.66882517 411.99545891 896.66882517 441.444313908 930.895551083 c 128,-1,15
 470.893168905 965.122276995 470.893168905 965.122276995 508.189681687 965.122276995 c 0,16,17
 542.608435895 965.122276995 542.608435895 965.122276995 576.846587787 924.662621083 c 0,18,19
 588.762834626 910.581041904 588.762834626 910.581041904 595.134845676 905.891884517 c 128,-1,20
 601.506856726 901.202727131 601.506856726 901.202727131 610.579720151 900.975996151 c 0,21,22
 643.567103952 910.305734396 643.567103952 910.305734396 678.139829673 936.810701241 c 128,-1,23
 712.712555393 963.315668085 712.712555393 963.315668085 736.284857935 984.662850197 c 128,-1,24
 759.857160476 1006.01003231 759.857160476 1006.01003231 770.003846033 1006.01003231 c 0,25,26
 780.352766247 1006.01003231 780.352766247 1006.01003231 787.678926965 998.683871591 c 128,-1,27
 795.005087683 991.357710873 795.005087683 991.357710873 795.005087683 981.008790659 c 0,28,29
 795.005087683 972.748430441 795.005087683 972.748430441 790.916221391 967.772151603 c 128,-1,30
 786.827355099 962.795872764 786.827355099 962.795872764 762.294157346 941.19855995 c 0,31,32
 659.810886827 850.979450567 659.810886827 850.979450567 612.246959357 850.979450567 c 0,0,1
EndSplineSet
EndChar

StartChar: guillemotright
Encoding: 187 187 98
Width: 2048
LayerCount: 2
Fore
SplineSet
1513.95037473 1492.00224588 m 0,0,1
 1516.5526666 1492.00224588 1516.5526666 1492.00224588 1528.44394996 1489.77921622 c 128,-1,2
 1540.33523332 1487.55618657 1540.33523332 1487.55618657 1560.96543212 1480.41435836 c 128,-1,3
 1581.59563092 1473.27253016 1581.59563092 1473.27253016 1600.02659415 1462.61815314 c 128,-1,4
 1618.45755737 1451.96377612 1618.45755737 1451.96377612 1632.14502001 1432.25197705 c 128,-1,5
 1645.83248264 1412.54017797 1645.83248264 1412.54017797 1645.83248264 1388.02631093 c 0,6,7
 1645.83248264 1380.86866488 1645.83248264 1380.86866488 1644.50863859 1373.65157475 c 0,8,9
 1646.84584777 1360.16399832 1646.84584777 1360.16399832 1646.84584777 1347.12149278 c 0,10,11
 1646.84584777 1322.93859408 1646.84584777 1322.93859408 1638.41912989 1300.52996099 c 128,-1,12
 1629.992412 1278.1213279 1629.992412 1278.1213279 1619.42450343 1262.68285279 c 128,-1,13
 1608.85659486 1247.24437768 1608.85659486 1247.24437768 1588.27395408 1229.07329333 c 128,-1,14
 1567.69131329 1210.90220897 1567.69131329 1210.90220897 1554.77564521 1201.60349184 c 128,-1,15
 1541.85997713 1192.3047747 1541.85997713 1192.3047747 1517.3415625 1175.76657347 c 0,16,17
 1468.29543696 1142.68390045 1468.29543696 1142.68390045 1450.54576603 1125.19138568 c 0,18,19
 1443.24364947 1117.99506175 1443.24364947 1117.99506175 1433.00197878 1117.99506175 c 128,-1,20
 1422.65356725 1117.99506175 1422.65356725 1117.99506175 1415.32776664 1125.32086236 c 128,-1,21
 1408.00196603 1132.64666297 1408.00196603 1132.64666297 1408.00196603 1142.9950745 c 0,22,23
 1408.00196603 1156.28998852 1408.00196603 1156.28998852 1427.47405355 1172.92809894 c 128,-1,24
 1446.94614107 1189.56620935 1446.94614107 1189.56620935 1474.73640189 1207.2084721 c 128,-1,25
 1502.52666272 1224.85073485 1502.52666272 1224.85073485 1530.31692355 1244.78546511 c 128,-1,26
 1558.10718438 1264.72019536 1558.10718438 1264.72019536 1577.5792719 1291.29233164 c 128,-1,27
 1597.05135941 1317.86446792 1597.05135941 1317.86446792 1597.05135941 1345.67834281 c 0,28,29
 1597.05135941 1356.69145894 1597.05135941 1356.69145894 1594.52521312 1368.90928813 c 0,30,31
 1594.82078508 1381.03670598 1594.82078508 1381.03670598 1596.02631527 1388.93610271 c 0,32,33
 1596.07306197 1408.71964986 1596.07306197 1408.71964986 1567.40053307 1423.18617181 c 128,-1,34
 1538.72800417 1437.65269376 1538.72800417 1437.65269376 1509.96159436 1442.33095666 c 0,35,36
 1500.95531246 1443.79078104 1500.95531246 1443.79078104 1494.95414631 1450.76971453 c 128,-1,37
 1488.95298015 1457.74864803 1488.95298015 1457.74864803 1488.95298015 1467.0048513 c 0,38,39
 1488.95298015 1477.35217907 1488.95298015 1477.35217907 1496.27801356 1484.67721247 c 128,-1,40
 1503.60304696 1492.00224588 1503.60304696 1492.00224588 1513.95037473 1492.00224588 c 0,0,1
1227.99922658 1512.00194733 m 0,41,42
 1227.99922658 1522.35157223 1227.99922658 1522.35157223 1235.32588616 1529.67823181 c 128,-1,43
 1242.65254573 1537.00489138 1242.65254573 1537.00489138 1253.00217063 1537.00489138 c 0,44,45
 1261.49962628 1537.00489138 1261.49962628 1537.00489138 1282.04261325 1522.25520517 c 128,-1,46
 1302.58560022 1507.50551896 1302.58560022 1507.50551896 1315.68055357 1495.96707579 c 128,-1,47
 1328.77550693 1484.42863263 1328.77550693 1484.42863263 1332.44561121 1480.75852834 c 0,48,49
 1373.34707546 1439.8570641 1373.34707546 1439.8570641 1373.34707546 1393.45525461 c 0,50,51
 1373.34707546 1355.65951015 1373.34707546 1355.65951015 1338.29754463 1320.40556784 c 128,-1,52
 1303.2480138 1285.15162553 1303.2480138 1285.15162553 1259.07556083 1262.36988996 c 128,-1,53
 1214.90310785 1239.5881544 1214.90310785 1239.5881544 1160.38655499 1209.72233464 c 128,-1,54
 1105.87000214 1179.85651489 1105.87000214 1179.85651489 1080.63132008 1157.33368643 c 0,55,56
 1073.52263242 1150.98994184 1073.52263242 1150.98994184 1063.99634214 1150.98994184 c 0,57,58
 1053.6476736 1150.98994184 1053.6476736 1150.98994184 1046.32169104 1158.31592439 c 128,-1,59
 1038.99570849 1165.64190695 1038.99570849 1165.64190695 1038.99570849 1175.99057549 c 0,60,61
 1038.99570849 1194.68142432 1038.99570849 1194.68142432 1075.89877881 1218.84704527 c 128,-1,62
 1112.80184914 1243.01266622 1112.80184914 1243.01266622 1159.62918425 1264.43301029 c 128,-1,63
 1206.45651935 1285.85335436 1206.45651935 1285.85335436 1255.2085442 1318.45109361 c 128,-1,64
 1303.96056904 1351.04883286 1303.96056904 1351.04883286 1322.35795476 1382.95426979 c 0,65,66
 1323.45676552 1388.73494801 1323.45676552 1388.73494801 1323.45676552 1394.20704596 c 0,67,68
 1323.45676552 1418.2117529 1323.45676552 1418.2117529 1305.53004117 1436.87173842 c 128,-1,69
 1287.60331683 1455.53172394 1287.60331683 1455.53172394 1238.17135882 1491.86894907 c 0,70,71
 1227.99922658 1499.35816185 1227.99922658 1499.35816185 1227.99922658 1512.00194733 c 0,41,42
EndSplineSet
EndChar

StartChar: quotedbl
Encoding: 34 34 99
Width: 2048
LayerCount: 2
Fore
SplineSet
1069.00490224 1410 m 2,0,1
 1069.00490224 1420.34637704 1069.00490224 1420.34637704 1076.3292626 1427.6707374 c 128,-1,2
 1083.65362296 1434.99509776 1083.65362296 1434.99509776 1094 1434.99509776 c 128,-1,3
 1104.34637704 1434.99509776 1104.34637704 1434.99509776 1111.6707374 1427.6707374 c 128,-1,4
 1118.99509776 1420.34637704 1118.99509776 1420.34637704 1118.99509776 1410 c 2,5,-1
 1118.99509776 1233 l 2,6,7
 1118.99509776 1222.65362296 1118.99509776 1222.65362296 1111.6707374 1215.3292626 c 128,-1,8
 1104.34637704 1208.00490224 1104.34637704 1208.00490224 1094 1208.00490224 c 128,-1,9
 1083.65362296 1208.00490224 1083.65362296 1208.00490224 1076.3292626 1215.3292626 c 128,-1,10
 1069.00490224 1222.65362296 1069.00490224 1222.65362296 1069.00490224 1233 c 2,11,-1
 1069.00490224 1410 l 2,0,1
523.00450882 1119.0089528 m 0,12,13
 523.00450882 1119.44091331 523.00450882 1119.44091331 523.155976561 1122.41662387 c 128,-1,14
 523.307444302 1125.39233444 523.307444302 1125.39233444 523.458912042 1130.57157842 c 128,-1,15
 523.610379783 1135.75082241 523.610379783 1135.75082241 523.610379783 1141.53422121 c 0,16,17
 523.610379783 1178.76133782 523.610379783 1178.76133782 512.80764101 1253.30195607 c 128,-1,18
 502.004902236 1327.84257432 502.004902236 1327.84257432 502.004902236 1350 c 2,19,-1
 502.004902236 1413 l 2,20,21
 502.004902236 1423.34637704 502.004902236 1423.34637704 509.3292626 1430.6707374 c 128,-1,22
 516.653622963 1437.99509776 516.653622963 1437.99509776 527 1437.99509776 c 128,-1,23
 537.346377037 1437.99509776 537.346377037 1437.99509776 544.6707374 1430.6707374 c 128,-1,24
 551.995097764 1423.34637704 551.995097764 1423.34637704 551.995097764 1413 c 2,25,-1
 551.995097764 1350.85034047 l 2,26,27
 553.719302215 1325.62284121 553.719302215 1325.62284121 563.666095995 1254.32890149 c 128,-1,28
 573.612889774 1183.03496176 573.612889774 1183.03496176 573.612889774 1141.93403723 c 0,29,30
 573.612889774 1129.99652791 573.612889774 1129.99652791 573.135994358 1123.88700236 c 128,-1,31
 572.659098942 1117.77747681 572.659098942 1117.77747681 570.487957613 1109.53049415 c 128,-1,32
 568.316816284 1101.2835115 568.316816284 1101.2835115 562.730714688 1097.64853973 c 128,-1,33
 557.144613093 1094.01356796 557.144613093 1094.01356796 547.999893664 1094.01356796 c 0,34,35
 537.653397795 1094.01356796 537.653397795 1094.01356796 530.328953307 1101.33801244 c 128,-1,36
 523.00450882 1108.66245693 523.00450882 1108.66245693 523.00450882 1119.0089528 c 0,12,13
EndSplineSet
EndChar

StartChar: numbersign
Encoding: 35 35 100
Width: 2048
LayerCount: 2
Fore
SplineSet
657.971532731 813.001329716 m 0,0,1
 657.971532731 823.347866315 657.971532731 823.347866315 665.296006051 830.672339634 c 128,-1,2
 672.62047937 837.996812954 672.62047937 837.996812954 682.967015969 837.996812954 c 0,3,4
 683.777107769 837.996812954 683.777107769 837.996812954 1482.60610656 786.943831828 c 0,5,6
 1492.41853713 786.316721604 1492.41853713 786.316721604 1499.20242144 779.113308312 c 128,-1,7
 1505.98630576 771.909895019 1505.98630576 771.909895019 1505.98630576 761.999808245 c 0,8,9
 1505.98630576 751.653271647 1505.98630576 751.653271647 1498.66183244 744.328798327 c 128,-1,10
 1491.33735912 737.004325007 1491.33735912 737.004325007 1480.99082252 737.004325007 c 0,11,12
 1480.20508649 737.004325007 1480.20508649 737.004325007 681.393893441 788.056168172 c 0,13,14
 671.553157576 788.683916832 671.553157576 788.683916832 664.762345153 795.885910005 c 128,-1,15
 657.971532731 803.087903179 657.971532731 803.087903179 657.971532731 813.001329716 c 0,0,1
746.515169747 976.834081136 m 0,16,17
 735.363925197 976.834081136 735.363925197 976.834081136 713.92900577 977.092634439 c 128,-1,18
 692.494086344 977.351187742 692.494086344 977.351187742 681.555183452 977.351187742 c 0,19,20
 666.66268935 977.351187742 666.66268935 977.351187742 653.643870501 977.013131659 c 0,21,22
 653.548121216 977.013131659 653.548121216 977.013131659 653.333670479 977.008987691 c 0,23,24
 642.659603742 977.004843722 642.659603742 977.004843722 635.335224492 984.329222972 c 128,-1,25
 628.010845243 991.653602221 628.010845243 991.653602221 628.010845243 1002.00000594 c 128,-1,26
 628.010845243 1012.16830994 628.010845243 1012.16830994 635.113167208 1019.44592953 c 128,-1,27
 642.215489173 1026.72354913 642.215489173 1026.72354913 652.346222928 1026.9866111 c 0,28,29
 666.049705445 1027.34244565 666.049705445 1027.34244565 681.586582134 1027.34244565 c 0,30,31
 692.735361583 1027.34244565 692.735361583 1027.34244565 714.180543194 1027.08370171 c 128,-1,32
 735.625724806 1026.82495776 735.625724806 1026.82495776 746.56202144 1026.82495776 c 0,33,34
 757.128656892 1026.82495776 757.128656892 1026.82495776 766.55597371 1026.99118348 c 2,35,-1
 767.634552249 1026.99118348 l 1,36,37
 1083.58404368 1019.02842987 1083.58404368 1019.02842987 1620.59509407 984.94453321 c 0,38,39
 1630.41123494 984.321506308 1630.41123494 984.321506308 1637.19877 977.117193345 c 128,-1,40
 1643.98630505 969.912880381 1643.98630505 969.912880381 1643.98630505 959.99981318 c 0,41,42
 1643.98630505 949.653278739 1643.98630505 949.653278739 1636.66183325 942.328806947 c 128,-1,43
 1629.33736146 935.004335154 1629.33736146 935.004335154 1618.99082702 935.004335154 c 0,44,45
 1617.78144861 935.004335154 1617.78144861 935.004335154 1565.8302117 938.377452028 c 128,-1,46
 1513.87897479 941.750568902 1513.87897479 941.750568902 1425.92715772 947.012076662 c 128,-1,47
 1337.97534066 952.273584421 1337.97534066 952.273584421 1233.74125836 957.924985402 c 128,-1,48
 1129.50717607 963.576386382 1129.50717607 963.576386382 1002.57937973 968.915162876 c 128,-1,49
 875.651583391 974.253939369 875.651583391 974.253939369 766.901115093 976.99938543 c 0,50,51
 757.240148198 976.834081136 757.240148198 976.834081136 746.515169747 976.834081136 c 0,16,17
1161.99815895 1263.00405995 m 0,52,53
 1161.99815895 1273.35150198 1161.99815895 1273.35150198 1169.32327323 1280.67661627 c 128,-1,54
 1176.64838752 1288.00173055 1176.64838752 1288.00173055 1186.99582955 1288.00173055 c 0,55,56
 1196.17845104 1288.00173055 1196.17845104 1288.00173055 1203.13258282 1282.09015094 c 128,-1,57
 1210.08671461 1276.17857132 1210.08671461 1276.17857132 1211.62603684 1267.29448303 c 0,58,59
 1317.00278421 659.120112467 1317.00278421 659.120112467 1317.00278421 656.950477653 c 0,60,61
 1317.00278421 646.603035625 1317.00278421 646.603035625 1309.67766993 639.277921337 c 128,-1,62
 1302.35255564 631.952807049 1302.35255564 631.952807049 1292.00511361 631.952807049 c 0,63,64
 1282.81853395 631.952807049 1282.81853395 631.952807049 1275.86590928 637.87200496 c 128,-1,65
 1268.91328462 643.79120287 1268.91328462 643.79120287 1267.37396316 652.705516968 c 0,66,67
 1161.99815895 1260.87444415 1161.99815895 1260.87444415 1161.99815895 1263.00405995 c 0,52,53
766.004902236 1200 m 2,68,69
 766.004902236 1210.34637704 766.004902236 1210.34637704 773.3292626 1217.6707374 c 128,-1,70
 780.653622963 1224.99509776 780.653622963 1224.99509776 791 1224.99509776 c 128,-1,71
 801.346377037 1224.99509776 801.346377037 1224.99509776 808.6707374 1217.6707374 c 128,-1,72
 815.995097764 1210.34637704 815.995097764 1210.34637704 815.995097764 1200 c 2,73,-1
 815.995097764 699 l 2,74,75
 815.995097764 688.653622963 815.995097764 688.653622963 808.6707374 681.3292626 c 128,-1,76
 801.346377037 674.004902236 801.346377037 674.004902236 791 674.004902236 c 128,-1,77
 780.653622963 674.004902236 780.653622963 674.004902236 773.3292626 681.3292626 c 128,-1,78
 766.004902236 688.653622963 766.004902236 688.653622963 766.004902236 699 c 2,79,-1
 766.004902236 1200 l 2,68,69
EndSplineSet
EndChar

StartChar: dollar
Encoding: 36 36 101
Width: 2048
LayerCount: 2
Fore
SplineSet
880.826690728 1093.53262253 m 0,0,1
 880.826690728 1117.45211096 880.826690728 1117.45211096 880.185577045 1166.04449641 c 128,-1,2
 879.544463361 1214.63688187 879.544463361 1214.63688187 879.544463361 1238.27596971 c 0,3,4
 879.544463361 1337.00507838 879.544463361 1337.00507838 890.374606752 1416.07395921 c 128,-1,5
 901.204750142 1495.14284003 901.204750142 1495.14284003 933.149864794 1567.15322034 c 0,6,7
 939.722896667 1581.99836937 939.722896667 1581.99836937 955.993670313 1581.99836937 c 0,8,9
 966.343867386 1581.99836937 966.343867386 1581.99836937 973.670932013 1574.67130474 c 128,-1,10
 980.997996639 1567.34424012 980.997996639 1567.34424012 980.997996639 1556.99404304 c 0,11,12
 980.997996639 1551.68846893 980.997996639 1551.68846893 978.850135206 1546.84677966 c 0,13,14
 949.572906845 1480.85032382 949.572906845 1480.85032382 939.594569096 1405.74765433 c 128,-1,15
 929.616231347 1330.64498484 929.616231347 1330.64498484 929.616231347 1233.5356025 c 0,16,17
 929.616231347 1232.72129033 929.616231347 1232.72129033 930.218212576 1163.21391325 c 128,-1,18
 930.820193805 1093.70653617 930.820193805 1093.70653617 930.820193805 1093.57925112 c 0,19,20
 930.820193805 1061.30098149 930.820193805 1061.30098149 930.003555948 1034.87962454 c 0,21,22
 931.168666188 980.94308585 931.168666188 980.94308585 934.199534322 873.015392593 c 0,23,24
 940.53837888 647.292318911 940.53837888 647.292318911 940.53837888 534.01900066 c 0,25,26
 940.53837888 465.864750328 940.53837888 465.864750328 938.987089214 404.364902547 c 0,27,28
 938.731392488 394.227975814 938.731392488 394.227975814 931.452389966 387.119350179 c 128,-1,29
 924.173387444 380.010724543 924.173387444 380.010724543 914.00000638 380.010724543 c 128,-1,30
 903.653604165 380.010724543 903.653604165 380.010724543 896.329225977 387.335102731 c 128,-1,31
 889.00484779 394.659480919 889.00484779 394.659480919 889.00484779 405.005883134 c 0,32,33
 889.00484779 405.139369593 889.00484779 405.139369593 889.089813407 408.473426575 c 128,-1,34
 889.174779024 411.807483558 889.174779024 411.807483558 889.310649152 417.874767992 c 128,-1,35
 889.44651928 423.942052426 889.44651928 423.942052426 889.610836046 432.206151486 c 128,-1,36
 889.775152813 440.470250546 889.775152813 440.470250546 889.939469579 451.662398402 c 128,-1,37
 890.103786345 462.854546257 890.103786345 462.854546257 890.239656473 475.159847691 c 128,-1,38
 890.375526601 487.465149125 890.375526601 487.465149125 890.460492219 502.8933207 c 128,-1,39
 890.545457836 518.321492274 890.545457836 518.321492274 890.545457836 533.859061529 c 0,40,41
 890.545457836 646.682220908 890.545457836 646.682220908 884.229188788 871.601391998 c 0,42,43
 881.181284333 980.135740108 881.181284333 980.135740108 880.010747462 1034.45740695 c 2,44,-1
 880.017283767 1035.78964159 l 2,45,46
 880.826690728 1061.59299443 880.826690728 1061.59299443 880.826690728 1093.53262253 c 0,0,1
782.056585509 1245.23359301 m 0,47,48
 782.056585509 1284.74109132 782.056585509 1284.74109132 797.646104203 1317.86530842 c 128,-1,49
 813.235622897 1350.98952552 813.235622897 1350.98952552 837.218064077 1372.39006015 c 128,-1,50
 861.200505258 1393.79059478 861.200505258 1393.79059478 892.11732386 1410.47049715 c 128,-1,51
 923.034142463 1427.15039952 923.034142463 1427.15039952 951.475204655 1435.94351256 c 128,-1,52
 979.916266847 1444.73662561 979.916266847 1444.73662561 1006.78413436 1450.32680574 c 128,-1,53
 1033.65200188 1455.91698587 1033.65200188 1455.91698587 1047.17543409 1457.45726983 c 128,-1,54
 1060.6988663 1458.99755378 1060.6988663 1458.99755378 1063.99396256 1458.99755378 c 0,55,56
 1074.34082416 1458.99755378 1074.34082416 1458.99755378 1081.66552756 1451.67285039 c 128,-1,57
 1088.99023095 1444.34814699 1088.99023095 1444.34814699 1088.99023095 1434.00128539 c 0,58,59
 1088.99023095 1424.42249112 1088.99023095 1424.42249112 1082.60835878 1417.32530971 c 128,-1,60
 1076.22648661 1410.22812829 1076.22648661 1410.22812829 1066.83144879 1409.16460733 c 0,61,62
 1048.84667633 1407.12872598 1048.84667633 1407.12872598 1029.90389321 1403.5383465 c 128,-1,63
 1010.96111009 1399.94796702 1010.96111009 1399.94796702 981.878299362 1392.5264452 c 128,-1,64
 952.795488634 1385.10492338 952.795488634 1385.10492338 928.264000401 1372.7439005 c 128,-1,65
 903.732512169 1360.38287763 903.732512169 1360.38287763 880.927150993 1343.75234323 c 128,-1,66
 858.121789818 1327.12180883 858.121789818 1327.12180883 844.953296195 1301.97032819 c 128,-1,67
 831.784802571 1276.81884755 831.784802571 1276.81884755 831.784802571 1246.76304396 c 0,68,69
 831.784802571 1217.40205026 831.784802571 1217.40205026 842.065545605 1190.65350796 c 128,-1,70
 852.346288639 1163.90496567 852.346288639 1163.90496567 875.040231966 1137.61354527 c 128,-1,71
 897.734175293 1111.32212486 897.734175293 1111.32212486 915.362535636 1094.77501571 c 128,-1,72
 932.99089598 1078.22790656 932.99089598 1078.22790656 965.591659335 1050.73606668 c 0,73,74
 991.562414674 1028.83523448 991.562414674 1028.83523448 1008.14358659 1013.48826337 c 128,-1,75
 1024.7247585 998.141292258 1024.7247585 998.141292258 1050.77804806 970.484056689 c 128,-1,76
 1076.83133762 942.826821119 1076.83133762 942.826821119 1091.1271281 915.257055247 c 128,-1,77
 1105.42291858 887.687289374 1105.42291858 887.687289374 1106.55590476 862.31878839 c 1,78,79
 1093.77422581 794.852027584 1093.77422581 794.852027584 1053.20539812 740.595420866 c 128,-1,80
 1012.63657044 686.338814149 1012.63657044 686.338814149 955.307492633 650.903058998 c 128,-1,81
 897.978414827 615.467303848 897.978414827 615.467303848 824.00097844 591.720421263 c 128,-1,82
 750.023542053 567.973538679 750.023542053 567.973538679 673.360091443 557.805947635 c 128,-1,83
 596.696640834 547.63835659 596.696640834 547.63835659 514.523621802 547.63835659 c 0,84,85
 499.365997355 547.63835659 499.365997355 547.63835659 484.371340752 548.012749211 c 1,86,-1
 460.355727335 577.18787093 l 2,87,88
 460.537211912 578.262817291 460.537211912 578.262817291 460.704198078 579.299983354 c 1,89,90
 448.72074592 566.189079669 448.72074592 566.189079669 433.610325734 566.189079669 c 0,91,92
 422.247320408 566.189079669 422.247320408 566.189079669 414.631951827 574.099603795 c 128,-1,93
 407.016583246 582.010127922 407.016583246 582.010127922 407.016583246 592.010289822 c 0,94,95
 407.016583246 606.550453452 407.016583246 606.550453452 413.710788913 617.28875497 c 128,-1,96
 420.40499458 628.027056488 420.40499458 628.027056488 434.012676404 628.027056488 c 0,97,98
 435.944048537 628.027056488 435.944048537 628.027056488 437.838661974 627.735590575 c 0,99,100
 460.051308943 649.996708343 460.051308943 649.996708343 479.355193681 649.996708343 c 0,101,102
 486.613808822 649.996708343 486.613808822 649.996708343 493.153554705 647.61309609 c 128,-1,103
 499.693300587 645.229483838 499.693300587 645.229483838 506.534344294 634.293475282 c 128,-1,104
 513.375388001 623.357466726 513.375388001 623.357466726 513.375388001 604.750410639 c 0,105,106
 513.375388001 601.356903271 513.375388001 601.356903271 513.175081264 597.658946944 c 1,107,108
 540.405807297 597.682879561 540.405807297 597.682879561 570.580116484 599.124463409 c 128,-1,109
 600.754425671 600.566047258 600.754425671 600.566047258 652.182561218 606.840580452 c 128,-1,110
 703.610696764 613.115113645 703.610696764 613.115113645 750.026578141 623.552036862 c 128,-1,111
 796.442459518 633.988960078 796.442459518 633.988960078 849.136619882 654.425412921 c 128,-1,112
 901.830780246 674.861865765 901.830780246 674.861865765 942.024829786 702.043991322 c 128,-1,113
 982.218879326 729.22611688 982.218879326 729.22611688 1013.71566048 771.574352347 c 128,-1,114
 1045.21244164 813.922587813 1045.21244164 813.922587813 1056.25327464 865.761234786 c 1,115,116
 1047.33880291 893.379899039 1047.33880291 893.379899039 1026.05646791 921.345158289 c 128,-1,117
 1004.7741329 949.310417539 1004.7741329 949.310417539 986.693719484 966.044951977 c 128,-1,118
 968.613306066 982.779486415 968.613306066 982.779486415 933.393689609 1012.47977429 c 0,119,120
 897.311055443 1042.90783484 897.311055443 1042.90783484 875.8189738 1063.58642294 c 128,-1,121
 854.326892158 1084.26501103 854.326892158 1084.26501103 829.756014873 1114.41479096 c 128,-1,122
 805.185137587 1144.56457088 805.185137587 1144.56457088 793.620861548 1176.8727711 c 128,-1,123
 782.056585509 1209.18097133 782.056585509 1209.18097133 782.056585509 1245.23359301 c 0,47,48
EndSplineSet
EndChar

StartChar: percent
Encoding: 37 37 102
Width: 2048
LayerCount: 2
Fore
SplineSet
1363.97187523 912.779029296 m 0,0,1
 1393.51151633 912.779029296 1393.51151633 912.779029296 1411.47516904 889.327270454 c 128,-1,2
 1429.43882175 865.875511611 1429.43882175 865.875511611 1429.43882175 831.320659791 c 0,3,4
 1429.43882175 819.249209236 1429.43882175 819.249209236 1427.08962271 807.700823156 c 0,5,6
 1427.09565157 807.215574957 1427.09565157 807.215574957 1427.09564225 806.732411281 c 0,7,8
 1427.09564225 770.196729031 1427.09564225 770.196729031 1397.28917715 744.444437043 c 128,-1,9
 1367.48271205 718.692145054 1367.48271205 718.692145054 1328.29209498 715.109433656 c 1,10,-1
 1314.55302709 717.769155043 l 1,11,12
 1263.71091037 743.939379674 1263.71091037 743.939379674 1247.53428371 777.020097319 c 1,13,14
 1237.3397686 777.211588784 1237.3397686 777.211588784 1230.1735847 784.50528576 c 128,-1,15
 1223.00740079 791.798982735 1223.00740079 791.798982735 1223.00740079 802.020383277 c 0,16,17
 1223.00740079 804.396091071 1223.00740079 804.396091071 1227.75789629 815.61159434 c 128,-1,18
 1232.50839179 826.827097609 1232.50839179 826.827097609 1242.61874001 843.312617506 c 128,-1,19
 1252.72908822 859.798137404 1252.72908822 859.798137404 1265.84449539 875.22364737 c 128,-1,20
 1278.95990255 890.649157336 1278.95990255 890.649157336 1298.44090421 901.608972674 c 128,-1,21
 1317.92190586 912.568788011 1317.92190586 912.568788011 1338.66252991 912.568788011 c 0,22,23
 1345.01435954 912.568788011 1345.01435954 912.568788011 1351.42673854 911.562807793 c 0,24,25
 1357.71858478 912.779029296 1357.71858478 912.779029296 1363.97187523 912.779029296 c 0,0,1
1330.5711195 765.945689 m 1,26,27
 1347.24233987 769.461098736 1347.24233987 769.461098736 1362.17639847 780.272129224 c 128,-1,28
 1377.11045708 791.083159713 1377.11045708 791.083159713 1377.11045708 806.574364568 c 0,29,30
 1377.11045708 807.50770057 1377.11045708 807.50770057 1377.05201977 808.460177256 c 0,31,32
 1377.05383783 808.481193043 1377.05383783 808.481193043 1377.11886999 809.036327034 c 0,33,34
 1378.96097532 824.76109042 1378.96097532 824.76109042 1378.96097532 827.812251351 c 0,35,36
 1378.96097532 840.064333834 1378.96097532 840.064333834 1375.08989034 851.630105358 c 128,-1,37
 1371.21880537 863.195876883 1371.21880537 863.195876883 1365.27568371 863.195876883 c 0,38,39
 1363.16563845 862.14328181 1363.16563845 862.14328181 1346.31017405 861.65675433 c 0,40,41
 1341.85796233 862.691599423 1341.85796233 862.691599423 1337.84685338 862.691599423 c 0,42,43
 1313.08418275 862.691599423 1313.08418275 862.691599423 1281.635728 810.123636875 c 1,44,45
 1285.45963309 808.112430718 1285.45963309 808.112430718 1296.76606412 793.410847542 c 128,-1,46
 1308.07249516 778.709264365 1308.07249516 778.709264365 1330.5711195 765.945689 c 1,26,27
1278.5498521 1127.28695255 m 1,47,48
 1270.72159077 1086.25629448 1270.72159077 1086.25629448 1235.58576587 1054.29934375 c 128,-1,49
 1200.44994098 1022.34239303 1200.44994098 1022.34239303 1159.47035903 1022.34239303 c 0,50,51
 1148.58880243 1022.34239303 1148.58880243 1022.34239303 1134.2888234 1028.55141815 c 1,52,-1
 1092.24905671 1062.58361022 l 2,53,54
 1082.96133334 1070.10224343 1082.96133334 1070.10224343 1082.96133334 1082.02488409 c 0,55,56
 1082.96133334 1083.74263225 1082.96133334 1083.74263225 1083.19208042 1085.43267105 c 0,57,58
 1074.49111696 1087.12905564 1074.49111696 1087.12905564 1068.7429644 1094.02915122 c 128,-1,59
 1062.99481184 1100.9292468 1062.99481184 1100.9292468 1062.99481184 1109.97230431 c 0,60,61
 1062.99481184 1120.15266732 1062.99481184 1120.15266732 1071.28027094 1133.99328648 c 128,-1,62
 1079.56573004 1147.83390563 1079.56573004 1147.83390563 1096.26794949 1163.03198858 c 128,-1,63
 1112.97016893 1178.23007153 1112.97016893 1178.23007153 1145.20044891 1188.61475446 c 128,-1,64
 1177.43072889 1198.99943738 1177.43072889 1198.99943738 1218.51767449 1198.99943738 c 0,65,66
 1220.13766971 1198.99943738 1220.13766971 1198.99943738 1239.44858185 1189.7111766 c 1,67,-1
 1273.44858185 1147.7111766 l 1,68,-1
 1278.5498521 1127.28695255 l 1,47,48
1159.59682929 1072.39829159 m 1,69,70
 1179.18671287 1072.77845911 1179.18671287 1072.77845911 1198.58897825 1088.57394959 c 128,-1,71
 1217.99124364 1104.36944007 1217.99124364 1104.36944007 1226.42559872 1126.32660033 c 1,72,-1
 1208.32002035 1148.69231479 l 1,73,74
 1180.1527167 1147.04756144 1180.1527167 1147.04756144 1151.18863816 1136.99192583 c 128,-1,75
 1122.22455963 1126.93629023 1122.22455963 1126.93629023 1113.31998577 1106.45008233 c 1,76,77
 1119.0930762 1105.18704409 1119.0930762 1105.18704409 1159.59682929 1072.39829159 c 1,69,70
814.959643444 703.971089972 m 0,78,79
 804.609539214 703.971089972 804.609539214 703.971089972 797.282540312 711.298088874 c 128,-1,80
 789.95554141 718.625087776 789.95554141 718.625087776 789.95554141 728.975192006 c 0,81,82
 789.95554141 742.487353926 789.95554141 742.487353926 801.315733167 749.927165783 c 2,83,-1
 1566.31573317 1250.92716578 l 2,84,85
 1572.53247306 1254.99852093 1572.53247306 1254.99852093 1579.98900186 1254.99852093 c 0,86,87
 1590.33910609 1254.99852093 1590.33910609 1254.99852093 1597.666105 1247.67152202 c 128,-1,88
 1604.9931039 1240.34452312 1604.9931039 1240.34452312 1604.9931039 1229.99441889 c 0,89,90
 1604.9931039 1216.48440805 1604.9931039 1216.48440805 1593.68426683 1209.07283422 c 2,91,-1
 828.684266833 708.072834217 l 2,92,93
 822.413325253 703.971089972 822.413325253 703.971089972 814.959643444 703.971089972 c 0,78,79
EndSplineSet
EndChar

StartChar: copyright
Encoding: 169 169 103
Width: 2048
LayerCount: 2
Fore
SplineSet
1337.03047889 1234.0223792 m 0,0,1
 1347.38085783 1234.0223792 1347.38085783 1234.0223792 1354.7080512 1226.69518583 c 128,-1,2
 1362.03524457 1219.36799247 1362.03524457 1219.36799247 1362.03524457 1209.01761353 c 0,3,4
 1362.03524457 1193.43110689 1362.03524457 1193.43110689 1348.02098036 1186.5550372 c 128,-1,5
 1334.07508068 1179.71251042 1334.07508068 1179.71251042 1304.39287099 1165.64876881 c 0,6,7
 1267.50405468 1148.17046156 1267.50405468 1148.17046156 1244.50571437 1136.71833556 c 128,-1,8
 1221.50737406 1125.26620956 1221.50737406 1125.26620956 1188.16037763 1106.60379198 c 128,-1,9
 1154.8133812 1087.9413744 1154.8133812 1087.9413744 1133.85978643 1072.67276967 c 128,-1,10
 1112.90619165 1057.40416495 1112.90619165 1057.40416495 1088.82993591 1035.69714879 c 128,-1,11
 1064.75368016 1013.99013264 1064.75368016 1013.99013264 1050.99221375 992.817611039 c 128,-1,12
 1037.23074734 971.645089438 1037.23074734 971.645089438 1027.57261512 944.806036568 c 128,-1,13
 1017.91448289 917.966983699 1017.91448289 917.966983699 1017.07406565 889.030056982 c 1,14,15
 1044.97267079 811.413514658 1044.97267079 811.413514658 1123.09025181 769.129739782 c 128,-1,16
 1201.20783283 726.845964905 1201.20783283 726.845964905 1330.89556405 711.828051455 c 0,17,18
 1340.26850577 710.742659442 1340.26850577 710.742659442 1346.62955939 703.651373452 c 128,-1,19
 1352.99061301 696.560087461 1352.99061301 696.560087461 1352.99061301 686.998624749 c 0,20,21
 1352.99061301 676.651741756 1352.99061301 676.651741756 1345.66589447 669.327023217 c 128,-1,22
 1338.34117593 662.002304679 1338.34117593 662.002304679 1327.99429294 662.002304679 c 0,23,24
 1323.13801234 662.002304679 1323.13801234 662.002304679 1305.62834529 663.780779127 c 128,-1,25
 1288.11867824 665.559253576 1288.11867824 665.559253576 1251.68884976 672.742680272 c 128,-1,26
 1215.25902128 679.926106968 1215.25902128 679.926106968 1178.80452196 691.227243683 c 128,-1,27
 1142.35002263 702.528380397 1142.35002263 702.528380397 1101.03631349 724.781099202 c 128,-1,28
 1059.72260434 747.033818006 1059.72260434 747.033818006 1031.01293995 775.743482398 c 0,29,30
 1025.040362 781.716060344 1025.040362 781.716060344 1015.09438651 793.184437076 c 128,-1,31
 1005.14841102 804.652813808 1005.14841102 804.652813808 987.955353511 833.197170746 c 128,-1,32
 970.762295999 861.741527683 970.762295999 861.741527683 967.005844977 885.217917836 c 0,33,34
 967.323320618 921.909977078 967.323320618 921.909977078 978.71902526 955.826600065 c 128,-1,35
 990.114729902 989.743223053 990.114729902 989.743223053 1005.71452596 1015.43747341 c 128,-1,36
 1021.31432201 1041.13172377 1021.31432201 1041.13172377 1050.11620868 1067.61055166 c 128,-1,37
 1078.91809535 1094.08937955 1078.91809535 1094.08937955 1101.24629206 1110.96202566 c 128,-1,38
 1123.57448877 1127.83467178 1123.57448877 1127.83467178 1162.08208058 1149.3814974 c 128,-1,39
 1200.58967238 1170.92832302 1200.58967238 1170.92832302 1221.94579285 1181.48515773 c 128,-1,40
 1243.30191332 1192.04199244 1243.30191332 1192.04199244 1282.96129051 1210.83302043 c 0,41,42
 1331.9035584 1234.0223792 1331.9035584 1234.0223792 1337.03047889 1234.0223792 c 0,0,1
1239.41451177 489.86758213 m 0,43,44
 1300.75106562 489.86758213 1300.75106562 489.86758213 1365.5505527 496.919118975 c 128,-1,45
 1430.35003979 503.97065582 1430.35003979 503.97065582 1500.99801215 520.48040856 c 128,-1,46
 1571.64598452 536.9901613 1571.64598452 536.9901613 1636.11115797 561.473379614 c 128,-1,47
 1700.57633142 585.956597929 1700.57633142 585.956597929 1759.17839059 623.600743464 c 128,-1,48
 1817.78044976 661.244889 1817.78044976 661.244889 1860.69170235 707.599043333 c 128,-1,49
 1903.60295493 753.953197667 1903.60295493 753.953197667 1928.93949367 817.170990548 c 128,-1,50
 1954.2760324 880.388783428 1954.2760324 880.388783428 1954.2760324 953.238513837 c 0,51,52
 1954.2760324 960.637525649 1954.2760324 960.637525649 1954.01960167 968.139636007 c 0,53,54
 1954.36110933 972.294316057 1954.36110933 972.294316057 1956.26586767 983.291598988 c 128,-1,55
 1958.17062601 994.28888192 1958.17062601 994.28888192 1959.65866639 1008.32513516 c 128,-1,56
 1961.14670676 1022.36138841 1961.14670676 1022.36138841 1961.14670676 1038.32915546 c 0,57,58
 1961.14670676 1106.55203464 1961.14670676 1106.55203464 1928.89993856 1166.67809064 c 128,-1,59
 1896.65317036 1226.80414663 1896.65317036 1226.80414663 1846.02902627 1269.05180894 c 128,-1,60
 1795.40488217 1311.29947125 1795.40488217 1311.29947125 1728.93923013 1344.85814073 c 128,-1,61
 1662.47357809 1378.41681021 1662.47357809 1378.41681021 1598.58632236 1397.79322879 c 128,-1,62
 1534.69906662 1417.16964738 1534.69906662 1417.16964738 1471.3755632 1427.26490349 c 0,63,64
 1415.36996721 1434.64123783 1415.36996721 1434.64123783 1356.66664619 1434.64123783 c 0,65,66
 1259.17143548 1434.64123783 1259.17143548 1434.64123783 1162.52839895 1414.98612367 c 128,-1,67
 1065.88536241 1395.33100952 1065.88536241 1395.33100952 974.592562673 1353.61735267 c 128,-1,68
 883.299762931 1311.90369583 883.299762931 1311.90369583 809.997489354 1252.76059432 c 128,-1,69
 736.695215778 1193.6174928 736.695215778 1193.6174928 685.333290857 1108.6096433 c 128,-1,70
 633.971365936 1023.60179381 633.971365936 1023.60179381 617.73831918 923.390169116 c 0,71,72
 615.692528847 907.352471181 615.692528847 907.352471181 615.692528847 891.664442314 c 0,73,74
 615.692528847 834.878282535 615.692528847 834.878282535 642.695290212 783.075962769 c 128,-1,75
 669.698051577 731.273643003 669.698051577 731.273643003 712.912117488 693.386438151 c 128,-1,76
 756.126183398 655.499233299 756.126183398 655.499233299 811.236750808 625.370747693 c 128,-1,77
 866.347318218 595.242262087 866.347318218 595.242262087 921.444731656 577.570435207 c 128,-1,78
 976.542145093 559.898608328 976.542145093 559.898608328 1028.42980016 552.760379927 c 0,79,80
 1037.65171431 551.495633124 1037.65171431 551.495633124 1043.84854884 544.456393301 c 128,-1,81
 1050.04538338 537.417153479 1050.04538338 537.417153479 1050.04538338 527.995912871 c 0,82,83
 1050.04538336 512.616467874 1050.04538336 512.616467874 1036.29577994 505.670053526 c 1,84,85
 1048.26757709 503.811670864 1048.26757709 503.811670864 1074.55122353 499.20384549 c 0,86,87
 1145.04040235 486.846282108 1145.04040235 486.846282108 1180.39026874 486.846282108 c 0,88,89
 1190.73060006 486.846282108 1190.73060006 486.846282108 1198.91618222 487.45400442 c 128,-1,90
 1207.10176437 488.061726733 1207.10176437 488.061726733 1213.77903058 488.925072166 c 128,-1,91
 1220.45629678 489.7884176 1220.45629678 489.7884176 1223.39365028 489.992021327 c 0,92,93
 1231.35452787 489.86758213 1231.35452787 489.86758213 1239.41451177 489.86758213 c 0,43,44
903.96047851 485.997260252 m 0,94,95
 903.96047851 495.447850369 903.96047851 495.447850369 908.205871533 501.230363593 c 128,-1,96
 912.451264556 507.012876817 912.451264556 507.012876817 922.014170843 509.254898241 c 128,-1,97
 931.57707713 511.496919665 931.57707713 511.496919665 938.625841778 511.991216007 c 128,-1,98
 945.674606426 512.48551235 945.674606426 512.48551235 959.360522803 512.48551235 c 0,99,100
 965.211301737 512.48551235 965.211301737 512.48551235 971.219148878 512.292895328 c 1,101,102
 886.091410734 531.080394703 886.091410734 531.080394703 804.583999507 571.688479431 c 128,-1,103
 723.076588279 612.296564158 723.076588279 612.296564158 664.460621257 670.91253118 c 0,104,105
 565.730158314 769.642994124 565.730158314 769.642994124 565.730158314 892.065826632 c 0,106,107
 565.730158314 902.275148112 565.730158314 902.275148112 566.985333981 917.976912327 c 128,-1,108
 568.240509648 933.678676542 568.240509648 933.678676542 577.456265458 974.820751308 c 128,-1,109
 586.672021268 1015.96282607 586.672021268 1015.96282607 602.570794386 1056.1690684 c 128,-1,110
 618.469567504 1096.37531073 618.469567504 1096.37531073 652.546691791 1149.92740158 c 128,-1,111
 686.623816078 1203.47949242 686.623816078 1203.47949242 732.811799314 1249.66747566 c 0,112,113
 847.295022478 1364.15069882 847.295022478 1364.15069882 1013.70783693 1424.43390335 c 128,-1,114
 1180.12065138 1484.71710788 1180.12065138 1484.71710788 1355.48535806 1484.71710788 c 0,115,116
 1423.75053944 1484.71710788 1423.75053944 1484.71710788 1478.95132649 1476.683048 c 0,117,118
 1597.66244164 1457.80497941 1597.66244164 1457.80497941 1712.19992411 1408.92867719 c 128,-1,119
 1826.73740657 1360.05237498 1826.73740657 1360.05237498 1903.91969247 1282.87008908 c 0,120,121
 2010.99979339 1175.78998767 2010.99979339 1175.78998767 2010.99979339 1037.26391529 c 0,122,123
 2010.99979339 1002.7329649 2010.99979339 1002.7329649 2004.07168006 966.930506399 c 0,124,125
 2004.26127173 960.189291546 2004.26127173 960.189291546 2004.26077504 953.542437653 c 0,126,127
 2004.26077504 876.690564501 2004.26077504 876.690564501 1979.43317945 809.098331583 c 128,-1,128
 1954.60558386 741.506098665 1954.60558386 741.506098665 1911.44653858 690.193884818 c 128,-1,129
 1868.28749329 638.88167097 1868.28749329 638.88167097 1808.90128716 596.65763897 c 128,-1,130
 1749.51508102 554.433606969 1749.51508102 554.433606969 1681.58108488 525.707570706 c 128,-1,131
 1613.64708874 496.981534443 1613.64708874 496.981534443 1538.00748483 477.346259303 c 128,-1,132
 1462.36788092 457.710984163 1462.36788092 457.710984163 1387.96414669 448.791681426 c 128,-1,133
 1313.56041245 439.87237869 1313.56041245 439.87237869 1240.05150519 439.87237869 c 0,134,135
 1232.344492 439.87237869 1232.344492 439.87237869 1224.71033915 439.977104694 c 0,136,137
 1203.06626982 436.784665536 1203.06626982 436.784665536 1179.69986736 436.784665536 c 0,138,139
 1140.90336331 436.784665536 1140.90336331 436.784665536 1067.71332747 449.620402063 c 128,-1,140
 994.52329163 462.45613859 994.52329163 462.45613859 958.740881895 462.45613859 c 0,141,142
 954.641320897 462.45613859 954.641320897 462.45613859 950.101705273 462.306281721 c 128,-1,143
 945.56208965 462.156424852 945.56208965 462.156424852 941.961261141 461.942551456 c 128,-1,144
 938.360432632 461.72867806 938.360432632 461.72867806 935.405282821 461.514804664 c 128,-1,145
 932.45013301 461.300931269 932.45013301 461.300931269 930.70845841 461.1510744 c 128,-1,146
 928.96678381 461.00121753 928.96678381 461.00121753 928.956521232 461.00121753 c 0,147,148
 918.609753043 461.00121753 918.609753043 461.00121753 911.285115777 468.325854797 c 128,-1,149
 903.96047851 475.650492063 903.96047851 475.650492063 903.96047851 485.997260252 c 0,94,95
EndSplineSet
EndChar

StartChar: exclamdown
Encoding: 161 161 104
Width: 2048
LayerCount: 2
Fore
SplineSet
1063.00490224 1149 m 2,0,1
 1063.00490224 1159.34637704 1063.00490224 1159.34637704 1070.3292626 1166.6707374 c 128,-1,2
 1077.65362296 1173.99509776 1077.65362296 1173.99509776 1088 1173.99509776 c 128,-1,3
 1098.34637704 1173.99509776 1098.34637704 1173.99509776 1105.6707374 1166.6707374 c 128,-1,4
 1112.99509776 1159.34637704 1112.99509776 1159.34637704 1112.99509776 1149 c 2,5,-1
 1112.99509776 708 l 2,6,7
 1112.99509776 697.653622963 1112.99509776 697.653622963 1105.6707374 690.3292626 c 128,-1,8
 1098.34637704 683.004902236 1098.34637704 683.004902236 1088 683.004902236 c 128,-1,9
 1077.65362296 683.004902236 1077.65362296 683.004902236 1070.3292626 690.3292626 c 128,-1,10
 1063.00490224 697.653622963 1063.00490224 697.653622963 1063.00490224 708 c 2,11,-1
 1063.00490224 1149 l 2,0,1
1072.00490224 1251 m 2,12,13
 1072.00490224 1261.34637704 1072.00490224 1261.34637704 1079.3292626 1268.6707374 c 128,-1,14
 1086.65362296 1275.99509776 1086.65362296 1275.99509776 1097 1275.99509776 c 128,-1,15
 1107.34637704 1275.99509776 1107.34637704 1275.99509776 1114.6707374 1268.6707374 c 128,-1,16
 1121.99509776 1261.34637704 1121.99509776 1261.34637704 1121.99509776 1251 c 2,17,-1
 1121.99509776 1242 l 2,18,19
 1121.99509776 1231.65362296 1121.99509776 1231.65362296 1114.6707374 1224.3292626 c 128,-1,20
 1107.34637704 1217.00490224 1107.34637704 1217.00490224 1097 1217.00490224 c 128,-1,21
 1086.65362296 1217.00490224 1086.65362296 1217.00490224 1079.3292626 1224.3292626 c 128,-1,22
 1072.00490224 1231.65362296 1072.00490224 1231.65362296 1072.00490224 1242 c 2,23,-1
 1072.00490224 1251 l 2,12,13
EndSplineSet
EndChar

